<svg xmlns="http://www.w3.org/2000/svg" width="1200" height="600" viewBox="0 0 1200 600">
<desc>Equity curve with drawdown fill</desc>
<text x="600.0" y="18.0" text-anchor="middle" font-family="sans-serif" font-size="14">Portfolio 2011</text>
<rect x="70" y="25" width="1100" height="525" fill="white" stroke="#ccc" />
<line x1="70" y1="550.00" x2="1170" y2="550.00" stroke="#eee"/>
<text x="62" y="554.0" text-anchor="end" font-family="sans-serif" font-size="11" fill="#555">0.00</text>
<line x1="70" y1="445.00" x2="1170" y2="445.00" stroke="#eee"/>
<text x="62" y="449.0" text-anchor="end" font-family="sans-serif" font-size="11" fill="#555">22199</text>
<line x1="70" y1="340.00" x2="1170" y2="340.00" stroke="#eee"/>
<text x="62" y="344.0" text-anchor="end" font-family="sans-serif" font-size="11" fill="#555">44398</text>
<line x1="70" y1="235.00" x2="1170" y2="235.00" stroke="#eee"/>
<text x="62" y="239.0" text-anchor="end" font-family="sans-serif" font-size="11" fill="#555">66597</text>
<line x1="70" y1="130.00" x2="1170" y2="130.00" stroke="#eee"/>
<text x="62" y="134.0" text-anchor="end" font-family="sans-serif" font-size="11" fill="#555">88796</text>
<line x1="70" y1="25.00" x2="1170" y2="25.00" stroke="#eee"/>
<text x="62" y="29.0" text-anchor="end" font-family="sans-serif" font-size="11" fill="#555">110994</text>
<line x1="156.74" y1="25" x2="156.74" y2="550" stroke="#f2f2f2"/>
<text x="156.74" y="566" text-anchor="middle" font-family="sans-serif" font-size="11" fill="#555">Feb</text>
<line x1="242.53" y1="25" x2="242.53" y2="550" stroke="#f2f2f2"/>
<text x="242.53" y="566" text-anchor="middle" font-family="sans-serif" font-size="11" fill="#555">Mar</text>
<line x1="337.50" y1="25" x2="337.50" y2="550" stroke="#f2f2f2"/>
<text x="337.50" y="566" text-anchor="middle" font-family="sans-serif" font-size="11" fill="#555">Apr</text>
<line x1="429.42" y1="25" x2="429.42" y2="550" stroke="#f2f2f2"/>
<text x="429.42" y="566" text-anchor="middle" font-family="sans-serif" font-size="11" fill="#555">May</text>
<line x1="524.39" y1="25" x2="524.39" y2="550" stroke="#f2f2f2"/>
<text x="524.39" y="566" text-anchor="middle" font-family="sans-serif" font-size="11" fill="#555">Jun</text>
<line x1="616.31" y1="25" x2="616.31" y2="550" stroke="#f2f2f2"/>
<text x="616.31" y="566" text-anchor="middle" font-family="sans-serif" font-size="11" fill="#555">Jul</text>
<line x1="711.28" y1="25" x2="711.28" y2="550" stroke="#f2f2f2"/>
<text x="711.28" y="566" text-anchor="middle" font-family="sans-serif" font-size="11" fill="#555">Aug</text>
<line x1="806.26" y1="25" x2="806.26" y2="550" stroke="#f2f2f2"/>
<text x="806.26" y="566" text-anchor="middle" font-family="sans-serif" font-size="11" fill="#555">Sep</text>
<line x1="898.17" y1="25" x2="898.17" y2="550" stroke="#f2f2f2"/>
<text x="898.17" y="566" text-anchor="middle" font-family="sans-serif" font-size="11" fill="#555">Oct</text>
<line x1="993.15" y1="25" x2="993.15" y2="550" stroke="#f2f2f2"/>
<text x="993.15" y="566" text-anchor="middle" font-family="sans-serif" font-size="11" fill="#555">Nov</text>
<line x1="1085.06" y1="25" x2="1085.06" y2="550" stroke="#f2f2f2"/>
<text x="1085.06" y="566" text-anchor="middle" font-family="sans-serif" font-size="11" fill="#555">Dec</text>
<line x1="70" y1="550" x2="1170" y2="550" stroke="#888"/>
<line x1="70" y1="25" x2="70" y2="550" stroke="#888"/>
<path d="M 73.01 73.64 L 79.15 73.64 L 82.27 73.64 L 97.34 73.64 L 100.38 73.64 L 100.44 73.64 L 100.54 73.64 L 100.76 73.64 L 102.66 73.64 L 112.32 73.64 L 115.09 73.64 L 115.74 73.64 L 118.59 73.64 L 121.76 73.64 L 122.03 73.64 L 124.09 73.64 L 134.21 73.64 L 136.61 73.64 L 137.34 73.64 L 142.44 73.64 L 142.77 73.64 L 146.51 73.64 L 167.89 73.64 L 183.20 73.64 L 197.78 73.64 L 204.82 73.64 L 210.63 73.64 L 221.36 73.64 L 222.08 73.64 L 222.50 73.64 L 271.02 73.64 L 274.54 73.64 L 274.54 74.61 L 271.02 76.09 L 222.50 78.84 L 222.08 74.08 L 221.36 76.19 L 210.63 77.15 L 204.82 75.51 L 197.78 77.77 L 183.20 76.40 L 167.89 78.57 L 146.51 79.84 L 142.77 75.09 L 142.44 77.84 L 137.34 80.56 L 136.61 81.33 L 134.21 82.26 L 124.09 82.13 L 122.03 84.59 L 121.76 86.34 L 118.59 88.80 L 115.74 90.99 L 115.09 92.97 L 112.32 93.21 L 102.66 95.67 L 100.76 91.09 L 100.54 86.46 L 100.44 87.42 L 100.38 82.81 L 97.34 78.09 L 82.27 80.39 L 79.15 83.10 L 73.01 78.40 Z" fill="#d0d0d0" fill-opacity="0.5" stroke="none"/>
<path d="M 318.42 65.75 L 318.42 66.34 Z" fill="#d0d0d0" fill-opacity="0.5" stroke="none"/>
<path d="M 339.64 61.69 L 359.35 61.69 L 391.62 61.69 L 391.70 61.69 L 397.12 61.69 L 414.37 61.69 L 415.26 61.69 L 417.09 61.69 L 437.70 61.69 L 437.70 63.15 L 417.09 63.80 L 415.26 66.39 L 414.37 68.31 L 397.12 70.28 L 391.70 68.50 L 391.62 69.63 L 359.35 64.78 L 339.64 66.56 Z" fill="#d0d0d0" fill-opacity="0.5" stroke="none"/>
<path d="M 443.44 60.31 L 443.53 60.31 L 443.65 60.31 L 443.70 60.31 L 443.79 60.31 L 443.89 60.31 L 446.47 60.31 L 446.94 60.31 L 447.04 60.31 L 447.19 60.31 L 455.75 60.31 L 458.15 60.31 L 461.94 60.31 L 462.35 60.31 L 462.49 60.31 L 465.28 60.31 L 468.28 60.31 L 468.40 60.31 L 468.52 60.31 L 477.27 60.31 L 480.24 60.31 L 480.90 60.31 L 486.86 60.31 L 489.30 60.31 L 489.61 60.31 L 497.94 60.31 L 506.32 60.31 L 508.00 60.31 L 509.66 60.31 L 510.84 60.31 L 521.43 60.31 L 528.98 60.31 L 529.86 60.31 L 532.55 60.31 L 550.80 60.31 L 553.92 60.31 L 569.50 60.31 L 571.08 60.31 L 571.71 60.31 L 572.31 60.31 L 574.78 60.31 L 584.53 60.31 L 585.75 60.31 L 593.60 60.31 L 604.31 60.31 L 606.13 60.31 L 609.09 60.31 L 611.94 60.31 L 612.13 60.31 L 636.44 60.31 L 636.68 60.31 L 639.48 60.31 L 639.50 60.31 L 639.87 60.31 L 648.62 60.31 L 649.00 60.31 L 649.00 62.09 L 648.62 64.25 L 639.87 65.86 L 639.50 66.85 L 639.48 69.65 L 636.68 72.44 L 636.44 67.63 L 612.13 70.19 L 611.94 72.48 L 609.09 75.25 L 606.13 70.46 L 604.31 69.84 L 593.60 70.82 L 585.75 71.45 L 584.53 74.22 L 574.78 73.16 L 572.31 73.76 L 571.71 76.06 L 571.08 78.80 L 569.50 81.53 L 553.92 76.79 L 550.80 78.45 L 532.55 80.46 L 529.86 81.64 L 528.98 83.39 L 521.43 81.55 L 510.84 82.18 L 509.66 83.49 L 508.00 78.78 L 506.32 80.77 L 497.94 81.93 L 489.61 84.11 L 489.30 79.41 L 486.86 77.45 L 480.90 78.84 L 480.24 80.79 L 477.27 83.04 L 468.52 85.19 L 468.40 87.09 L 468.28 82.42 L 465.28 77.69 L 462.49 79.19 L 462.35 79.42 L 461.94 80.88 L 458.15 82.66 L 455.75 84.74 L 447.19 80.05 L 447.04 80.26 L 446.94 81.85 L 446.47 77.13 L 443.89 79.87 L 443.79 79.81 L 443.70 79.51 L 443.65 74.76 L 443.53 69.98 L 443.44 65.18 Z" fill="#d0d0d0" fill-opacity="0.5" stroke="none"/>
<path d="M 651.13 59.25 L 651.18 59.25 L 651.37 59.25 L 651.37 59.67 L 651.18 62.35 L 651.13 64.15 Z" fill="#d0d0d0" fill-opacity="0.5" stroke="none"/>
<path d="M 655.10 55.19 L 655.18 55.19 L 656.05 55.19 L 656.05 56.47 L 655.18 58.12 L 655.10 60.14 Z" fill="#d0d0d0" fill-opacity="0.5" stroke="none"/>
<path d="M 678.91 44.91 L 678.97 44.91 L 679.09 44.91 L 679.09 46.70 L 678.97 48.08 L 678.91 49.96 Z" fill="#d0d0d0" fill-opacity="0.5" stroke="none"/>
<path d="M 679.42 43.77 L 679.43 43.77 L 679.64 43.77 L 679.69 43.77 L 693.26 43.77 L 698.15 43.77 L 700.46 43.77 L 703.93 43.77 L 704.03 43.77 L 704.20 43.77 L 713.20 43.77 L 713.30 43.77 L 713.39 43.77 L 713.54 43.77 L 715.38 43.77 L 716.33 43.77 L 718.54 43.77 L 718.79 43.77 L 722.24 43.77 L 722.35 43.77 L 724.64 43.77 L 725.41 43.77 L 725.73 43.77 L 725.83 43.77 L 726.07 43.77 L 733.78 43.77 L 734.11 43.77 L 734.14 43.77 L 734.40 43.77 L 737.15 43.77 L 738.26 43.77 L 740.64 43.77 L 740.77 43.77 L 740.78 43.77 L 740.85 43.77 L 740.96 43.77 L 742.40 43.77 L 743.40 43.77 L 743.74 43.77 L 743.99 43.77 L 755.99 43.77 L 756.20 43.77 L 756.26 43.77 L 759.44 43.77 L 761.38 43.77 L 761.99 43.77 L 765.39 43.77 L 768.15 43.77 L 779.85 43.77 L 780.62 43.77 L 786.89 43.77 L 790.10 43.77 L 797.88 43.77 L 801.37 43.77 L 807.43 43.77 L 822.73 43.77 L 822.89 43.77 L 822.93 43.77 L 823.65 43.77 L 825.81 43.77 L 829.47 43.77 L 829.92 43.77 L 832.11 43.77 L 832.63 43.77 L 832.72 43.77 L 832.83 43.77 L 839.87 43.77 L 840.80 43.77 L 841.22 43.77 L 842.37 43.77 L 844.11 43.77 L 844.23 43.77 L 844.54 43.77 L 844.97 43.77 L 848.06 43.77 L 848.06 43.80 L 844.97 46.48 L 844.54 49.10 L 844.23 51.59 L 844.11 54.00 L 842.37 55.76 L 841.22 58.03 L 840.80 60.32 L 839.87 60.59 L 832.83 62.39 L 832.72 64.88 L 832.63 65.62 L 832.11 60.74 L 829.92 62.98 L 829.47 64.98 L 825.81 60.09 L 823.65 62.93 L 822.93 58.01 L 822.89 59.60 L 822.73 54.65 L 807.43 57.61 L 801.37 59.34 L 797.88 61.64 L 790.10 64.47 L 786.89 59.57 L 780.62 61.44 L 779.85 62.16 L 768.15 57.23 L 765.39 52.26 L 761.99 52.12 L 761.38 54.41 L 759.44 56.50 L 756.26 59.35 L 756.20 61.38 L 755.99 59.68 L 743.99 54.73 L 743.74 57.15 L 743.40 60.00 L 742.40 59.98 L 740.96 59.27 L 740.85 60.22 L 740.78 61.10 L 740.77 56.21 L 740.64 51.23 L 738.26 46.20 L 737.15 49.11 L 734.40 51.99 L 734.14 52.80 L 734.11 54.97 L 733.78 49.97 L 726.07 52.27 L 725.83 53.43 L 725.73 55.90 L 725.41 58.77 L 724.64 61.33 L 722.35 63.66 L 722.24 66.20 L 718.79 68.42 L 718.54 70.17 L 716.33 72.26 L 715.38 72.66 L 713.54 74.88 L 713.39 73.52 L 713.30 74.59 L 713.20 69.81 L 704.20 64.95 L 704.03 66.10 L 703.93 66.78 L 700.46 61.91 L 698.15 56.98 L 693.26 52.02 L 679.69 54.91 L 679.64 55.84 L 679.43 53.78 L 679.42 48.82 Z" fill="#d0d0d0" fill-opacity="0.5" stroke="none"/>
<path d="M 864.53 35.38 L 864.53 36.89 Z" fill="#d0d0d0" fill-opacity="0.5" stroke="none"/>
<path d="M 873.82 25.94 L 875.21 25.94 L 875.70 25.94 L 883.09 25.94 L 883.17 25.94 L 884.18 25.94 L 884.83 25.94 L 887.55 25.94 L 890.14 25.94 L 890.49 25.94 L 891.45 25.94 L 892.76 25.94 L 897.03 25.94 L 906.35 25.94 L 908.53 25.94 L 909.33 25.94 L 912.92 25.94 L 915.19 25.94 L 915.21 25.94 L 915.38 25.94 L 915.63 25.94 L 918.28 25.94 L 918.28 27.76 L 915.63 30.77 L 915.38 28.14 L 915.21 31.13 L 915.19 33.95 L 912.92 28.75 L 909.33 29.97 L 908.53 32.71 L 906.35 34.90 L 897.03 29.71 L 892.76 30.23 L 891.45 29.26 L 890.49 31.42 L 890.14 33.08 L 887.55 34.79 L 884.83 29.60 L 884.18 31.12 L 883.17 32.85 L 883.09 33.93 L 875.70 28.74 L 875.21 31.45 L 873.82 31.16 Z" fill="#d0d0d0" fill-opacity="0.5" stroke="none"/>
<path d="M 918.82 25.00 L 918.90 25.00 L 926.11 25.00 L 926.98 25.00 L 927.48 25.00 L 933.06 25.00 L 933.19 25.00 L 933.21 25.00 L 933.31 25.00 L 936.34 25.00 L 939.86 25.00 L 948.74 25.00 L 951.39 25.00 L 957.73 25.00 L 957.86 25.00 L 957.91 25.00 L 958.23 25.00 L 958.79 25.00 L 960.65 25.00 L 961.28 25.00 L 969.60 25.00 L 970.84 25.00 L 973.58 25.00 L 976.75 25.00 L 976.85 25.00 L 977.18 25.00 L 978.13 25.00 L 979.64 25.00 L 979.72 25.00 L 980.01 25.00 L 990.47 25.00 L 990.59 25.00 L 990.81 25.00 L 992.35 25.00 L 994.21 25.00 L 994.40 25.00 L 995.52 25.00 L 996.29 25.00 L 1001.19 25.00 L 1001.23 25.00 L 1001.68 25.00 L 1004.24 25.00 L 1004.33 25.00 L 1013.01 25.00 L 1013.46 25.00 L 1017.02 25.00 L 1018.90 25.00 L 1019.06 25.00 L 1019.12 25.00 L 1019.41 25.00 L 1021.88 25.00 L 1022.72 25.00 L 1025.87 25.00 L 1025.97 25.00 L 1039.49 25.00 L 1044.00 25.00 L 1044.49 25.00 L 1046.85 25.00 L 1047.22 25.00 L 1055.58 25.00 L 1056.54 25.00 L 1061.99 25.00 L 1062.67 25.00 L 1075.84 25.00 L 1077.06 25.00 L 1080.25 25.00 L 1080.31 25.00 L 1080.69 25.00 L 1083.66 25.00 L 1083.79 25.00 L 1083.80 25.00 L 1090.18 25.00 L 1090.29 25.00 L 1099.81 25.00 L 1108.34 25.00 L 1110.99 25.00 L 1111.40 25.00 L 1123.84 25.00 L 1123.96 25.00 L 1144.60 25.00 L 1147.67 25.00 L 1147.78 25.00 L 1150.51 25.00 L 1169.67 25.00 L 1169.84 25.00 L 1170.00 25.00 L 1170.00 81.22 L 1169.84 79.84 L 1169.67 80.54 L 1150.51 75.79 L 1147.78 77.45 L 1147.67 79.59 L 1144.60 82.06 L 1123.96 83.44 L 1123.84 83.44 L 1111.40 78.72 L 1110.99 80.26 L 1108.34 75.51 L 1099.81 70.71 L 1090.29 70.83 L 1090.18 70.78 L 1083.80 65.93 L 1083.79 61.05 L 1083.66 56.10 L 1080.69 59.07 L 1080.31 61.42 L 1080.25 63.92 L 1077.06 59.01 L 1075.84 61.01 L 1062.67 60.62 L 1061.99 61.85 L 1056.54 60.51 L 1055.58 62.56 L 1047.22 62.82 L 1046.85 64.88 L 1044.49 59.97 L 1044.00 62.58 L 1039.49 64.86 L 1025.97 64.96 L 1025.87 65.16 L 1022.72 60.27 L 1021.88 62.71 L 1019.41 65.33 L 1019.12 67.40 L 1019.06 62.57 L 1018.90 63.18 L 1017.02 58.25 L 1013.46 60.91 L 1013.01 62.62 L 1004.33 64.62 L 1004.24 65.22 L 1001.68 60.31 L 1001.23 55.37 L 1001.19 57.79 L 996.29 52.81 L 995.52 54.87 L 994.40 49.86 L 994.21 51.61 L 992.35 53.90 L 990.81 55.07 L 990.59 54.01 L 990.47 55.60 L 980.01 58.00 L 979.72 53.02 L 979.64 53.75 L 978.13 48.74 L 977.18 51.65 L 976.85 54.54 L 976.75 55.72 L 973.58 50.73 L 970.84 53.39 L 969.60 52.35 L 961.28 54.34 L 960.65 49.34 L 958.79 51.17 L 958.23 54.06 L 957.91 56.17 L 957.86 57.90 L 957.73 57.42 L 951.39 52.44 L 948.74 52.85 L 939.86 47.83 L 936.34 42.77 L 933.31 45.08 L 933.21 44.87 L 933.19 39.78 L 933.06 34.65 L 927.48 29.45 L 926.98 32.18 L 926.11 26.97 L 918.90 29.13 L 918.82 30.22 Z" fill="#d0d0d0" fill-opacity="0.5" stroke="none"/>
<polyline fill="none" stroke="#111" stroke-width="1.2" points="70.00,75.32 72.26,73.64 73.01,78.40 79.15,83.10 82.27,80.39 97.34,78.09 100.38,82.81 100.44,87.42 100.54,86.46 100.76,91.09 102.66,95.67 112.32,93.21 115.09,92.97 115.74,90.99 118.59,88.80 121.76,86.34 122.03,84.59 124.09,82.13 134.21,82.26 136.61,81.33 137.34,80.56 142.44,77.84 142.77,75.09 146.51,79.84 167.89,78.57 183.20,76.40 197.78,77.77 204.82,75.51 210.63,77.15 221.36,76.19 222.08,74.08 222.50,78.84 271.02,76.09 274.54,74.61 286.11,73.29 286.85,71.05 287.37,68.54 294.99,66.80 296.24,65.83 315.11,65.75 318.42,66.34 333.65,64.51 339.42,61.69 339.64,66.56 359.35,64.78 391.62,69.63 391.70,68.50 397.12,70.28 414.37,68.31 415.26,66.39 417.09,63.80 437.70,63.15 443.39,60.31 443.44,65.18 443.53,69.98 443.65,74.76 443.70,79.51 443.79,79.81 443.89,79.87 446.47,77.13 446.94,81.85 447.04,80.26 447.19,80.05 455.75,84.74 458.15,82.66 461.94,80.88 462.35,79.42 462.49,79.19 465.28,77.69 468.28,82.42 468.40,87.09 468.52,85.19 477.27,83.04 480.24,80.79 480.90,78.84 486.86,77.45 489.30,79.41 489.61,84.11 497.94,81.93 506.32,80.77 508.00,78.78 509.66,83.49 510.84,82.18 521.43,81.55 528.98,83.39 529.86,81.64 532.55,80.46 550.80,78.45 553.92,76.79 569.50,81.53 571.08,78.80 571.71,76.06 572.31,73.76 574.78,73.16 584.53,74.22 585.75,71.45 593.60,70.82 604.31,69.84 606.13,70.46 609.09,75.25 611.94,72.48 612.13,70.19 636.44,67.63 636.68,72.44 639.48,69.65 639.50,66.85 639.87,65.86 648.62,64.25 649.00,62.09 650.40,59.25 651.13,64.15 651.18,62.35 651.37,59.67 651.72,59.24 653.26,57.08 654.20,55.19 655.10,60.14 655.18,58.12 656.05,56.47 658.19,54.27 660.31,52.47 661.37,49.57 672.57,47.58 673.94,44.91 678.91,49.96 678.97,48.08 679.09,46.70 679.27,43.77 679.42,48.82 679.43,53.78 679.64,55.84 679.69,54.91 693.26,52.02 698.15,56.98 700.46,61.91 703.93,66.78 704.03,66.10 704.20,64.95 713.20,69.81 713.30,74.59 713.39,73.52 713.54,74.88 715.38,72.66 716.33,72.26 718.54,70.17 718.79,68.42 722.24,66.20 722.35,63.66 724.64,61.33 725.41,58.77 725.73,55.90 725.83,53.43 726.07,52.27 733.78,49.97 734.11,54.97 734.14,52.80 734.40,51.99 737.15,49.11 738.26,46.20 740.64,51.23 740.77,56.21 740.78,61.10 740.85,60.22 740.96,59.27 742.40,59.98 743.40,60.00 743.74,57.15 743.99,54.73 755.99,59.68 756.20,61.38 756.26,59.35 759.44,56.50 761.38,54.41 761.99,52.12 765.39,52.26 768.15,57.23 779.85,62.16 780.62,61.44 786.89,59.57 790.10,64.47 797.88,61.64 801.37,59.34 807.43,57.61 822.73,54.65 822.89,59.60 822.93,58.01 823.65,62.93 825.81,60.09 829.47,64.98 829.92,62.98 832.11,60.74 832.63,65.62 832.72,64.88 832.83,62.39 839.87,60.59 840.80,60.32 841.22,58.03 842.37,55.76 844.11,54.00 844.23,51.59 844.54,49.10 844.97,46.48 848.06,43.80 848.49,40.86 850.94,37.91 851.02,36.49 861.34,35.38 864.53,36.89 865.67,35.17 865.89,33.53 871.90,30.53 872.39,28.96 873.07,25.94 873.82,31.16 875.21,31.45 875.70,28.74 883.09,33.93 883.17,32.85 884.18,31.12 884.83,29.60 887.55,34.79 890.14,33.08 890.49,31.42 891.45,29.26 892.76,30.23 897.03,29.71 906.35,34.90 908.53,32.71 909.33,29.97 912.92,28.75 915.19,33.95 915.21,31.13 915.38,28.14 915.63,30.77 918.28,27.76 918.55,25.00 918.82,30.22 918.90,29.13 926.11,26.97 926.98,32.18 927.48,29.45 933.06,34.65 933.19,39.78 933.21,44.87 933.31,45.08 936.34,42.77 939.86,47.83 948.74,52.85 951.39,52.44 957.73,57.42 957.86,57.90 957.91,56.17 958.23,54.06 958.79,51.17 960.65,49.34 961.28,54.34 969.60,52.35 970.84,53.39 973.58,50.73 976.75,55.72 976.85,54.54 977.18,51.65 978.13,48.74 979.64,53.75 979.72,53.02 980.01,58.00 990.47,55.60 990.59,54.01 990.81,55.07 992.35,53.90 994.21,51.61 994.40,49.86 995.52,54.87 996.29,52.81 1001.19,57.79 1001.23,55.37 1001.68,60.31 1004.24,65.22 1004.33,64.62 1013.01,62.62 1013.46,60.91 1017.02,58.25 1018.90,63.18 1019.06,62.57 1019.12,67.40 1019.41,65.33 1021.88,62.71 1022.72,60.27 1025.87,65.16 1025.97,64.96 1039.49,64.86 1044.00,62.58 1044.49,59.97 1046.85,64.88 1047.22,62.82 1055.58,62.56 1056.54,60.51 1061.99,61.85 1062.67,60.62 1075.84,61.01 1077.06,59.01 1080.25,63.92 1080.31,61.42 1080.69,59.07 1083.66,56.10 1083.79,61.05 1083.80,65.93 1090.18,70.78 1090.29,70.83 1099.81,70.71 1108.34,75.51 1110.99,80.26 1111.40,78.72 1123.84,83.44 1123.96,83.44 1144.60,82.06 1147.67,79.59 1147.78,77.45 1150.51,75.79 1169.67,80.54 1169.84,79.84 1170.00,81.22"/>
<text x="620.0" y="588" text-anchor="middle" font-family="sans-serif" font-size="12" fill="#333">UTC time</text>
<text x="15" y="287.5" transform="rotate(-90 15,287.5)" text-anchor="middle" font-family="sans-serif" font-size="12" fill="#333">Capital</text>
</svg>