<svg xmlns="http://www.w3.org/2000/svg" width="1200" height="600" viewBox="0 0 1200 600">
<desc>Equity curve with drawdown fill</desc>
<text x="600.0" y="18.0" text-anchor="middle" font-family="sans-serif" font-size="14">Portfolio 2012</text>
<rect x="70" y="25" width="1100" height="525" fill="white" stroke="#ccc" />
<line x1="70" y1="550.00" x2="1170" y2="550.00" stroke="#eee"/>
<text x="62" y="554.0" text-anchor="end" font-family="sans-serif" font-size="11" fill="#555">0.00</text>
<line x1="70" y1="445.00" x2="1170" y2="445.00" stroke="#eee"/>
<text x="62" y="449.0" text-anchor="end" font-family="sans-serif" font-size="11" fill="#555">21026</text>
<line x1="70" y1="340.00" x2="1170" y2="340.00" stroke="#eee"/>
<text x="62" y="344.0" text-anchor="end" font-family="sans-serif" font-size="11" fill="#555">42052</text>
<line x1="70" y1="235.00" x2="1170" y2="235.00" stroke="#eee"/>
<text x="62" y="239.0" text-anchor="end" font-family="sans-serif" font-size="11" fill="#555">63078</text>
<line x1="70" y1="130.00" x2="1170" y2="130.00" stroke="#eee"/>
<text x="62" y="134.0" text-anchor="end" font-family="sans-serif" font-size="11" fill="#555">84103</text>
<line x1="70" y1="25.00" x2="1170" y2="25.00" stroke="#eee"/>
<text x="62" y="29.0" text-anchor="end" font-family="sans-serif" font-size="11" fill="#555">105129</text>
<line x1="154.27" y1="25" x2="154.27" y2="550" stroke="#f2f2f2"/>
<text x="154.27" y="566" text-anchor="middle" font-family="sans-serif" font-size="11" fill="#555">Feb</text>
<line x1="243.15" y1="25" x2="243.15" y2="550" stroke="#f2f2f2"/>
<text x="243.15" y="566" text-anchor="middle" font-family="sans-serif" font-size="11" fill="#555">Mar</text>
<line x1="338.17" y1="25" x2="338.17" y2="550" stroke="#f2f2f2"/>
<text x="338.17" y="566" text-anchor="middle" font-family="sans-serif" font-size="11" fill="#555">Apr</text>
<line x1="430.11" y1="25" x2="430.11" y2="550" stroke="#f2f2f2"/>
<text x="430.11" y="566" text-anchor="middle" font-family="sans-serif" font-size="11" fill="#555">May</text>
<line x1="525.13" y1="25" x2="525.13" y2="550" stroke="#f2f2f2"/>
<text x="525.13" y="566" text-anchor="middle" font-family="sans-serif" font-size="11" fill="#555">Jun</text>
<line x1="617.07" y1="25" x2="617.07" y2="550" stroke="#f2f2f2"/>
<text x="617.07" y="566" text-anchor="middle" font-family="sans-serif" font-size="11" fill="#555">Jul</text>
<line x1="712.08" y1="25" x2="712.08" y2="550" stroke="#f2f2f2"/>
<text x="712.08" y="566" text-anchor="middle" font-family="sans-serif" font-size="11" fill="#555">Aug</text>
<line x1="807.10" y1="25" x2="807.10" y2="550" stroke="#f2f2f2"/>
<text x="807.10" y="566" text-anchor="middle" font-family="sans-serif" font-size="11" fill="#555">Sep</text>
<line x1="899.04" y1="25" x2="899.04" y2="550" stroke="#f2f2f2"/>
<text x="899.04" y="566" text-anchor="middle" font-family="sans-serif" font-size="11" fill="#555">Oct</text>
<line x1="994.06" y1="25" x2="994.06" y2="550" stroke="#f2f2f2"/>
<text x="994.06" y="566" text-anchor="middle" font-family="sans-serif" font-size="11" fill="#555">Nov</text>
<line x1="1086.00" y1="25" x2="1086.00" y2="550" stroke="#f2f2f2"/>
<text x="1086.00" y="566" text-anchor="middle" font-family="sans-serif" font-size="11" fill="#555">Dec</text>
<line x1="70" y1="550" x2="1170" y2="550" stroke="#888"/>
<line x1="70" y1="25" x2="70" y2="550" stroke="#888"/>
<path d="M 97.85 40.73 L 97.99 40.73 L 98.00 40.73 L 98.07 40.73 L 110.19 40.73 L 112.67 40.73 L 118.79 40.73 L 128.17 40.73 L 135.05 40.73 L 135.24 40.73 L 137.18 40.73 L 141.06 40.73 L 153.18 40.73 L 155.54 40.73 L 155.95 40.73 L 158.92 40.73 L 159.41 40.73 L 162.19 40.73 L 162.26 40.73 L 171.72 40.73 L 171.72 42.18 L 162.26 43.31 L 162.19 45.81 L 159.41 47.81 L 158.92 49.21 L 155.95 51.86 L 155.54 52.47 L 153.18 47.45 L 141.06 49.17 L 137.18 51.84 L 135.24 54.21 L 135.05 53.08 L 128.17 55.60 L 118.79 50.62 L 112.67 51.36 L 110.19 54.23 L 98.07 54.75 L 98.00 55.76 L 97.99 50.83 L 97.85 45.81 Z" fill="#d0d0d0" fill-opacity="0.5" stroke="none"/>
<path d="M 183.53 36.43 L 183.53 36.99 Z" fill="#d0d0d0" fill-opacity="0.5" stroke="none"/>
<path d="M 202.41 31.70 L 212.50 31.70 L 215.93 31.70 L 215.93 33.58 L 212.50 36.56 L 202.41 36.87 Z" fill="#d0d0d0" fill-opacity="0.5" stroke="none"/>
<path d="M 300.46 25.00 L 308.73 25.00 L 311.91 25.00 L 321.50 25.00 L 346.76 25.00 L 346.91 25.00 L 351.91 25.00 L 367.51 25.00 L 376.98 25.00 L 386.66 25.00 L 392.31 25.00 L 394.98 25.00 L 432.12 25.00 L 434.56 25.00 L 448.44 25.00 L 448.49 25.00 L 474.92 25.00 L 498.77 25.00 L 499.53 25.00 L 501.76 25.00 L 505.51 25.00 L 518.20 25.00 L 524.12 25.00 L 526.97 25.00 L 527.03 25.00 L 536.28 25.00 L 538.56 25.00 L 542.24 25.00 L 542.76 25.00 L 555.71 25.00 L 557.89 25.00 L 560.79 25.00 L 564.08 25.00 L 577.21 25.00 L 578.50 25.00 L 582.41 25.00 L 585.62 25.00 L 588.45 25.00 L 609.03 25.00 L 609.12 25.00 L 611.45 25.00 L 611.56 25.00 L 611.67 25.00 L 612.69 25.00 L 612.80 25.00 L 612.91 25.00 L 630.99 25.00 L 631.19 25.00 L 631.31 25.00 L 634.23 25.00 L 655.82 25.00 L 664.91 25.00 L 668.11 25.00 L 674.15 25.00 L 676.99 25.00 L 695.17 25.00 L 695.24 25.00 L 695.36 25.00 L 695.49 25.00 L 695.57 25.00 L 698.45 25.00 L 698.59 25.00 L 699.22 25.00 L 714.54 25.00 L 716.88 25.00 L 716.89 25.00 L 716.92 25.00 L 717.03 25.00 L 717.09 25.00 L 717.29 25.00 L 719.81 25.00 L 720.19 25.00 L 727.53 25.00 L 741.72 25.00 L 756.51 25.00 L 760.11 25.00 L 763.17 25.00 L 784.68 25.00 L 796.22 25.00 L 803.05 25.00 L 805.43 25.00 L 821.05 25.00 L 827.35 25.00 L 841.97 25.00 L 846.12 25.00 L 846.35 25.00 L 848.56 25.00 L 848.92 25.00 L 858.03 25.00 L 866.39 25.00 L 869.72 25.00 L 891.90 25.00 L 924.75 25.00 L 925.73 25.00 L 970.77 25.00 L 1013.07 25.00 L 1014.06 25.00 L 1055.94 25.00 L 1103.36 25.00 L 1122.05 25.00 L 1128.13 25.00 L 1167.69 25.00 L 1170.00 25.00 L 1170.00 44.99 L 1167.69 45.86 L 1128.13 48.31 L 1122.05 48.57 L 1103.36 50.15 L 1055.94 48.99 L 1014.06 49.78 L 1013.07 44.74 L 970.77 44.66 L 925.73 46.43 L 924.75 48.74 L 891.90 48.94 L 869.72 48.83 L 866.39 50.42 L 858.03 52.47 L 848.92 54.58 L 848.56 55.76 L 846.35 55.90 L 846.12 50.91 L 841.97 53.77 L 827.35 56.63 L 821.05 54.98 L 805.43 56.98 L 803.05 58.97 L 796.22 60.58 L 784.68 62.23 L 763.17 64.56 L 760.11 65.67 L 756.51 67.11 L 741.72 68.36 L 727.53 70.21 L 720.19 72.25 L 719.81 67.42 L 717.29 67.07 L 717.09 66.97 L 717.03 69.11 L 716.92 69.19 L 716.89 71.96 L 716.88 74.78 L 714.54 70.00 L 699.22 72.74 L 698.59 67.92 L 698.45 70.70 L 695.57 73.44 L 695.49 75.78 L 695.36 76.30 L 695.24 71.53 L 695.17 66.71 L 676.99 61.83 L 674.15 62.76 L 668.11 63.41 L 664.91 58.49 L 655.82 59.83 L 634.23 60.38 L 631.31 61.88 L 631.19 59.52 L 630.99 54.56 L 612.91 49.57 L 612.80 50.56 L 612.69 50.73 L 611.67 45.69 L 611.56 40.60 L 611.45 40.93 L 609.12 35.79 L 609.03 37.14 L 588.45 31.96 L 585.62 31.52 L 582.41 34.21 L 578.50 34.81 L 577.21 34.87 L 564.08 33.75 L 560.79 34.20 L 557.89 36.88 L 555.71 39.58 L 542.76 40.25 L 542.24 38.39 L 538.56 41.05 L 536.28 35.92 L 527.03 35.77 L 526.97 37.18 L 524.12 32.01 L 518.20 34.69 L 505.51 33.91 L 501.76 32.95 L 499.53 35.93 L 498.77 30.74 L 474.92 33.23 L 448.49 33.33 L 448.44 35.48 L 434.56 30.29 L 432.12 31.66 L 394.98 34.18 L 392.31 36.06 L 386.66 38.51 L 376.98 37.47 L 367.51 38.07 L 351.91 40.32 L 346.91 39.06 L 346.76 38.06 L 321.50 32.89 L 311.91 27.68 L 308.73 27.21 L 300.46 30.23 Z" fill="#d0d0d0" fill-opacity="0.5" stroke="none"/>
<polyline fill="none" stroke="#111" stroke-width="1.2" points="70.00,50.13 72.68,48.08 76.39,46.99 91.36,44.08 94.95,43.40 97.37,40.73 97.85,45.81 97.99,50.83 98.00,55.76 98.07,54.75 110.19,54.23 112.67,51.36 118.79,50.62 128.17,55.60 135.05,53.08 135.24,54.21 137.18,51.84 141.06,49.17 153.18,47.45 155.54,52.47 155.95,51.86 158.92,49.21 159.41,47.81 162.19,45.81 162.26,43.31 171.72,42.18 173.68,40.04 174.43,37.49 174.78,36.43 183.53,36.99 190.96,34.69 198.87,31.70 202.41,36.87 212.50,36.56 215.93,33.58 226.73,31.47 242.02,28.47 269.42,26.03 281.78,25.37 290.95,25.00 300.46,30.23 308.73,27.21 311.91,27.68 321.50,32.89 346.76,38.06 346.91,39.06 351.91,40.32 367.51,38.07 376.98,37.47 386.66,38.51 392.31,36.06 394.98,34.18 432.12,31.66 434.56,30.29 448.44,35.48 448.49,33.33 474.92,33.23 498.77,30.74 499.53,35.93 501.76,32.95 505.51,33.91 518.20,34.69 524.12,32.01 526.97,37.18 527.03,35.77 536.28,35.92 538.56,41.05 542.24,38.39 542.76,40.25 555.71,39.58 557.89,36.88 560.79,34.20 564.08,33.75 577.21,34.87 578.50,34.81 582.41,34.21 585.62,31.52 588.45,31.96 609.03,37.14 609.12,35.79 611.45,40.93 611.56,40.60 611.67,45.69 612.69,50.73 612.80,50.56 612.91,49.57 630.99,54.56 631.19,59.52 631.31,61.88 634.23,60.38 655.82,59.83 664.91,58.49 668.11,63.41 674.15,62.76 676.99,61.83 695.17,66.71 695.24,71.53 695.36,76.30 695.49,75.78 695.57,73.44 698.45,70.70 698.59,67.92 699.22,72.74 714.54,70.00 716.88,74.78 716.89,71.96 716.92,69.19 717.03,69.11 717.09,66.97 717.29,67.07 719.81,67.42 720.19,72.25 727.53,70.21 741.72,68.36 756.51,67.11 760.11,65.67 763.17,64.56 784.68,62.23 796.22,60.58 803.05,58.97 805.43,56.98 821.05,54.98 827.35,56.63 841.97,53.77 846.12,50.91 846.35,55.90 848.56,55.76 848.92,54.58 858.03,52.47 866.39,50.42 869.72,48.83 891.90,48.94 924.75,48.74 925.73,46.43 970.77,44.66 1013.07,44.74 1014.06,49.78 1055.94,48.99 1103.36,50.15 1122.05,48.57 1128.13,48.31 1167.69,45.86 1170.00,44.99"/>
<text x="620.0" y="588" text-anchor="middle" font-family="sans-serif" font-size="12" fill="#333">UTC time</text>
<text x="15" y="287.5" transform="rotate(-90 15,287.5)" text-anchor="middle" font-family="sans-serif" font-size="12" fill="#333">Capital</text>
</svg>