<svg xmlns="http://www.w3.org/2000/svg" width="1200" height="600" viewBox="0 0 1200 600">
<desc>Equity curve with drawdown fill</desc>
<text x="600.0" y="18.0" text-anchor="middle" font-family="sans-serif" font-size="14">Portfolio 2017</text>
<rect x="70" y="25" width="1100" height="525" fill="white" stroke="#ccc" />
<line x1="70" y1="550.00" x2="1170" y2="550.00" stroke="#eee"/>
<text x="62" y="554.0" text-anchor="end" font-family="sans-serif" font-size="11" fill="#555">0.00</text>
<line x1="70" y1="445.00" x2="1170" y2="445.00" stroke="#eee"/>
<text x="62" y="449.0" text-anchor="end" font-family="sans-serif" font-size="11" fill="#555">21962</text>
<line x1="70" y1="340.00" x2="1170" y2="340.00" stroke="#eee"/>
<text x="62" y="344.0" text-anchor="end" font-family="sans-serif" font-size="11" fill="#555">43925</text>
<line x1="70" y1="235.00" x2="1170" y2="235.00" stroke="#eee"/>
<text x="62" y="239.0" text-anchor="end" font-family="sans-serif" font-size="11" fill="#555">65887</text>
<line x1="70" y1="130.00" x2="1170" y2="130.00" stroke="#eee"/>
<text x="62" y="134.0" text-anchor="end" font-family="sans-serif" font-size="11" fill="#555">87850</text>
<line x1="70" y1="25.00" x2="1170" y2="25.00" stroke="#eee"/>
<text x="62" y="29.0" text-anchor="end" font-family="sans-serif" font-size="11" fill="#555">109812</text>
<line x1="159.32" y1="25" x2="159.32" y2="550" stroke="#f2f2f2"/>
<text x="159.32" y="566" text-anchor="middle" font-family="sans-serif" font-size="11" fill="#555">Feb</text>
<line x1="246.66" y1="25" x2="246.66" y2="550" stroke="#f2f2f2"/>
<text x="246.66" y="566" text-anchor="middle" font-family="sans-serif" font-size="11" fill="#555">Mar</text>
<line x1="343.35" y1="25" x2="343.35" y2="550" stroke="#f2f2f2"/>
<text x="343.35" y="566" text-anchor="middle" font-family="sans-serif" font-size="11" fill="#555">Apr</text>
<line x1="436.93" y1="25" x2="436.93" y2="550" stroke="#f2f2f2"/>
<text x="436.93" y="566" text-anchor="middle" font-family="sans-serif" font-size="11" fill="#555">May</text>
<line x1="533.63" y1="25" x2="533.63" y2="550" stroke="#f2f2f2"/>
<text x="533.63" y="566" text-anchor="middle" font-family="sans-serif" font-size="11" fill="#555">Jun</text>
<line x1="627.21" y1="25" x2="627.21" y2="550" stroke="#f2f2f2"/>
<text x="627.21" y="566" text-anchor="middle" font-family="sans-serif" font-size="11" fill="#555">Jul</text>
<line x1="723.90" y1="25" x2="723.90" y2="550" stroke="#f2f2f2"/>
<text x="723.90" y="566" text-anchor="middle" font-family="sans-serif" font-size="11" fill="#555">Aug</text>
<line x1="820.60" y1="25" x2="820.60" y2="550" stroke="#f2f2f2"/>
<text x="820.60" y="566" text-anchor="middle" font-family="sans-serif" font-size="11" fill="#555">Sep</text>
<line x1="914.18" y1="25" x2="914.18" y2="550" stroke="#f2f2f2"/>
<text x="914.18" y="566" text-anchor="middle" font-family="sans-serif" font-size="11" fill="#555">Oct</text>
<line x1="1010.87" y1="25" x2="1010.87" y2="550" stroke="#f2f2f2"/>
<text x="1010.87" y="566" text-anchor="middle" font-family="sans-serif" font-size="11" fill="#555">Nov</text>
<line x1="1104.45" y1="25" x2="1104.45" y2="550" stroke="#f2f2f2"/>
<text x="1104.45" y="566" text-anchor="middle" font-family="sans-serif" font-size="11" fill="#555">Dec</text>
<line x1="70" y1="550" x2="1170" y2="550" stroke="#888"/>
<line x1="70" y1="25" x2="70" y2="550" stroke="#888"/>
<path d="M 77.15 62.27 L 77.22 62.27 L 79.98 62.27 L 79.98 63.36 L 77.22 66.12 L 77.15 67.14 Z" fill="#d0d0d0" fill-opacity="0.5" stroke="none"/>
<path d="M 96.14 59.26 L 96.17 59.26 L 96.24 59.26 L 96.33 59.26 L 102.03 59.26 L 114.07 59.26 L 114.07 62.00 L 102.03 63.60 L 96.33 65.87 L 96.24 67.70 L 96.17 69.02 L 96.14 64.17 Z" fill="#d0d0d0" fill-opacity="0.5" stroke="none"/>
<path d="M 154.77 59.21 L 155.19 59.21 L 157.88 59.21 L 201.96 59.21 L 205.19 59.21 L 205.19 60.11 L 201.96 62.35 L 157.88 62.99 L 155.19 61.83 L 154.77 64.11 Z" fill="#d0d0d0" fill-opacity="0.5" stroke="none"/>
<path d="M 415.16 50.36 L 429.03 50.36 L 473.11 50.36 L 473.11 51.27 L 429.03 52.96 L 415.16 50.87 Z" fill="#d0d0d0" fill-opacity="0.5" stroke="none"/>
<path d="M 504.07 49.07 L 538.58 49.07 L 553.94 49.07 L 553.94 51.10 L 538.58 50.33 L 504.07 51.26 Z" fill="#d0d0d0" fill-opacity="0.5" stroke="none"/>
<path d="M 576.01 48.53 L 616.13 48.53 L 616.96 48.53 L 619.57 48.53 L 619.59 48.53 L 619.59 50.66 L 619.57 53.61 L 616.96 56.46 L 616.13 58.49 L 576.01 53.53 Z" fill="#d0d0d0" fill-opacity="0.5" stroke="none"/>
<path d="M 680.66 46.25 L 680.66 47.42 Z" fill="#d0d0d0" fill-opacity="0.5" stroke="none"/>
<path d="M 688.65 44.53 L 707.69 44.53 L 722.93 44.53 L 729.38 44.53 L 735.03 44.53 L 735.26 44.53 L 735.45 44.53 L 747.81 44.53 L 750.73 44.53 L 756.93 44.53 L 769.43 44.53 L 771.89 44.53 L 773.16 44.53 L 775.44 44.53 L 775.44 45.04 L 773.16 47.93 L 771.89 50.80 L 769.43 53.46 L 756.93 53.65 L 750.73 54.11 L 747.81 56.54 L 735.45 51.55 L 735.26 50.97 L 735.03 45.95 L 729.38 48.61 L 722.93 51.48 L 707.69 52.21 L 688.65 47.19 Z" fill="#d0d0d0" fill-opacity="0.5" stroke="none"/>
<path d="M 860.11 30.52 L 860.11 30.99 Z" fill="#d0d0d0" fill-opacity="0.5" stroke="none"/>
<path d="M 882.41 25.00 L 953.42 25.00 L 993.95 25.00 L 994.21 25.00 L 1070.14 25.00 L 1071.35 25.00 L 1103.40 25.00 L 1106.62 25.00 L 1170.00 25.00 L 1170.00 29.62 L 1106.62 32.35 L 1103.40 33.95 L 1071.35 32.55 L 1070.14 33.44 L 994.21 34.39 L 993.95 29.21 L 953.42 28.00 L 882.41 30.21 Z" fill="#d0d0d0" fill-opacity="0.5" stroke="none"/>
<polyline fill="none" stroke="#111" stroke-width="1.2" points="70.00,70.69 70.85,68.19 71.05,66.66 75.13,64.18 76.27,62.27 77.15,67.14 77.22,66.12 79.98,63.36 95.86,62.04 95.98,59.26 96.14,64.17 96.17,69.02 96.24,67.70 96.33,65.87 102.03,63.60 114.07,62.00 120.54,59.21 154.77,64.11 155.19,61.83 157.88,62.99 201.96,62.35 205.19,60.11 255.46,58.72 273.49,57.12 292.87,56.53 333.42,55.51 335.73,53.41 360.05,51.28 415.04,50.36 415.16,50.87 429.03,52.96 473.11,51.27 492.46,49.07 504.07,51.26 538.58,50.33 553.94,51.10 554.40,48.53 576.01,53.53 616.13,58.49 616.96,56.46 619.57,53.61 619.59,50.66 663.55,48.34 669.60,46.25 680.66,47.42 688.27,44.53 688.65,47.19 707.69,52.21 722.93,51.48 729.38,48.61 735.03,45.95 735.26,50.97 735.45,51.55 747.81,56.54 750.73,54.11 756.93,53.65 769.43,53.46 771.89,50.80 773.16,47.93 775.44,45.04 800.72,42.13 812.34,40.72 822.35,37.79 822.59,35.58 841.08,32.61 842.96,30.52 860.11,30.99 862.90,28.00 882.34,25.00 882.41,30.21 953.42,28.00 993.95,29.21 994.21,34.39 1070.14,33.44 1071.35,32.55 1103.40,33.95 1106.62,32.35 1170.00,29.62"/>
<text x="620.0" y="588" text-anchor="middle" font-family="sans-serif" font-size="12" fill="#333">UTC time</text>
<text x="15" y="287.5" transform="rotate(-90 15,287.5)" text-anchor="middle" font-family="sans-serif" font-size="12" fill="#333">Capital</text>
</svg>