<svg xmlns="http://www.w3.org/2000/svg" width="1200" height="600" viewBox="0 0 1200 600">
<desc>Equity curve with drawdown fill</desc>
<text x="600.0" y="18.0" text-anchor="middle" font-family="sans-serif" font-size="14">Portfolio 2022</text>
<rect x="70" y="25" width="1100" height="525" fill="white" stroke="#ccc" />
<line x1="70" y1="550.00" x2="1170" y2="550.00" stroke="#eee"/>
<text x="62" y="554.0" text-anchor="end" font-family="sans-serif" font-size="11" fill="#555">0.00</text>
<line x1="70" y1="445.00" x2="1170" y2="445.00" stroke="#eee"/>
<text x="62" y="449.0" text-anchor="end" font-family="sans-serif" font-size="11" fill="#555">22525</text>
<line x1="70" y1="340.00" x2="1170" y2="340.00" stroke="#eee"/>
<text x="62" y="344.0" text-anchor="end" font-family="sans-serif" font-size="11" fill="#555">45050</text>
<line x1="70" y1="235.00" x2="1170" y2="235.00" stroke="#eee"/>
<text x="62" y="239.0" text-anchor="end" font-family="sans-serif" font-size="11" fill="#555">67575</text>
<line x1="70" y1="130.00" x2="1170" y2="130.00" stroke="#eee"/>
<text x="62" y="134.0" text-anchor="end" font-family="sans-serif" font-size="11" fill="#555">90100</text>
<line x1="70" y1="25.00" x2="1170" y2="25.00" stroke="#eee"/>
<text x="62" y="29.0" text-anchor="end" font-family="sans-serif" font-size="11" fill="#555">112625</text>
<line x1="157.17" y1="25" x2="157.17" y2="550" stroke="#f2f2f2"/>
<text x="157.17" y="566" text-anchor="middle" font-family="sans-serif" font-size="11" fill="#555">Mar</text>
<line x1="263.92" y1="25" x2="263.92" y2="550" stroke="#f2f2f2"/>
<text x="263.92" y="566" text-anchor="middle" font-family="sans-serif" font-size="11" fill="#555">Apr</text>
<line x1="367.22" y1="25" x2="367.22" y2="550" stroke="#f2f2f2"/>
<text x="367.22" y="566" text-anchor="middle" font-family="sans-serif" font-size="11" fill="#555">May</text>
<line x1="473.97" y1="25" x2="473.97" y2="550" stroke="#f2f2f2"/>
<text x="473.97" y="566" text-anchor="middle" font-family="sans-serif" font-size="11" fill="#555">Jun</text>
<line x1="577.28" y1="25" x2="577.28" y2="550" stroke="#f2f2f2"/>
<text x="577.28" y="566" text-anchor="middle" font-family="sans-serif" font-size="11" fill="#555">Jul</text>
<line x1="684.02" y1="25" x2="684.02" y2="550" stroke="#f2f2f2"/>
<text x="684.02" y="566" text-anchor="middle" font-family="sans-serif" font-size="11" fill="#555">Aug</text>
<line x1="790.77" y1="25" x2="790.77" y2="550" stroke="#f2f2f2"/>
<text x="790.77" y="566" text-anchor="middle" font-family="sans-serif" font-size="11" fill="#555">Sep</text>
<line x1="894.08" y1="25" x2="894.08" y2="550" stroke="#f2f2f2"/>
<text x="894.08" y="566" text-anchor="middle" font-family="sans-serif" font-size="11" fill="#555">Oct</text>
<line x1="1000.83" y1="25" x2="1000.83" y2="550" stroke="#f2f2f2"/>
<text x="1000.83" y="566" text-anchor="middle" font-family="sans-serif" font-size="11" fill="#555">Nov</text>
<line x1="1104.13" y1="25" x2="1104.13" y2="550" stroke="#f2f2f2"/>
<text x="1104.13" y="566" text-anchor="middle" font-family="sans-serif" font-size="11" fill="#555">Dec</text>
<line x1="70" y1="550" x2="1170" y2="550" stroke="#888"/>
<line x1="70" y1="25" x2="70" y2="550" stroke="#888"/>
<path d="M 70.00 83.85 L 93.83 83.85 L 94.07 83.85 L 97.90 83.85 L 116.45 83.85 L 140.63 83.85 L 141.40 83.85 L 141.40 84.20 L 140.63 86.63 L 116.45 87.26 L 97.90 89.17 L 94.07 91.01 L 93.83 86.38 L 70.00 88.51 Z" fill="#d0d0d0" fill-opacity="0.5" stroke="none"/>
<path d="M 177.84 68.61 L 177.84 69.23 Z" fill="#d0d0d0" fill-opacity="0.5" stroke="none"/>
<path d="M 179.64 68.05 L 179.66 68.05 L 179.66 70.19 L 179.64 72.85 Z" fill="#d0d0d0" fill-opacity="0.5" stroke="none"/>
<path d="M 183.91 67.25 L 183.91 67.76 Z" fill="#d0d0d0" fill-opacity="0.5" stroke="none"/>
<path d="M 187.10 63.19 L 190.32 63.19 L 193.26 63.19 L 193.26 64.41 L 190.32 66.98 L 187.10 68.05 Z" fill="#d0d0d0" fill-opacity="0.5" stroke="none"/>
<path d="M 255.51 59.13 L 307.79 59.13 L 310.73 59.13 L 310.82 59.13 L 311.00 59.13 L 330.91 59.13 L 333.99 59.13 L 347.60 59.13 L 354.68 59.13 L 355.54 59.13 L 358.19 59.13 L 362.31 59.13 L 371.84 59.13 L 376.16 59.13 L 382.87 59.13 L 385.60 59.13 L 397.33 59.13 L 397.33 59.50 L 385.60 60.43 L 382.87 62.71 L 376.16 64.94 L 371.84 63.42 L 362.31 65.73 L 358.19 67.62 L 355.54 70.13 L 354.68 70.04 L 347.60 72.26 L 333.99 74.99 L 330.91 70.20 L 311.00 71.90 L 310.82 72.77 L 310.73 67.95 L 307.79 63.09 L 255.51 64.02 Z" fill="#d0d0d0" fill-opacity="0.5" stroke="none"/>
<path d="M 406.28 56.70 L 407.56 56.70 L 431.51 56.70 L 444.45 56.70 L 447.57 56.70 L 472.27 56.70 L 472.27 56.73 L 447.57 59.03 L 444.45 61.82 L 431.51 56.90 L 407.56 59.08 L 406.28 61.62 Z" fill="#d0d0d0" fill-opacity="0.5" stroke="none"/>
<path d="M 524.18 48.58 L 527.71 48.58 L 528.23 48.58 L 528.31 48.58 L 531.31 48.58 L 548.43 48.58 L 551.09 48.58 L 551.89 48.58 L 569.01 48.58 L 576.24 48.58 L 579.54 48.58 L 592.32 48.58 L 592.49 48.58 L 592.57 48.58 L 592.66 48.58 L 602.59 48.58 L 602.66 48.58 L 616.97 48.58 L 620.53 48.58 L 620.53 48.58 L 620.86 48.58 L 620.95 48.58 L 624.11 48.58 L 624.34 48.58 L 638.13 48.58 L 640.48 48.58 L 640.64 48.58 L 640.71 48.58 L 644.39 48.58 L 648.05 48.58 L 648.17 48.58 L 648.25 48.58 L 650.93 48.58 L 651.73 48.58 L 661.47 48.58 L 664.95 48.58 L 675.84 48.58 L 688.72 48.58 L 693.24 48.58 L 696.73 48.58 L 699.73 48.58 L 699.89 48.58 L 716.95 48.58 L 717.23 48.58 L 744.79 48.58 L 758.81 48.58 L 761.90 48.58 L 761.99 48.58 L 762.15 48.58 L 765.52 48.58 L 765.54 48.58 L 772.18 48.58 L 772.48 48.58 L 782.16 48.58 L 789.66 48.58 L 792.96 48.58 L 793.05 48.58 L 796.86 48.58 L 805.77 48.58 L 810.18 48.58 L 813.75 48.58 L 816.91 48.58 L 816.95 48.58 L 817.08 48.58 L 818.68 48.58 L 820.15 48.58 L 829.80 48.58 L 829.87 48.58 L 830.05 48.58 L 834.03 48.58 L 834.22 48.58 L 834.32 48.58 L 834.50 48.58 L 844.81 48.58 L 858.19 48.58 L 860.66 48.58 L 860.76 48.58 L 862.37 48.58 L 864.39 48.58 L 864.49 48.58 L 865.44 48.58 L 867.71 48.58 L 868.84 48.58 L 877.14 48.58 L 877.16 48.58 L 878.07 48.58 L 878.48 48.58 L 878.86 48.58 L 879.25 48.58 L 882.90 48.58 L 885.33 48.58 L 885.86 48.58 L 885.89 48.58 L 886.02 48.58 L 886.34 48.58 L 886.34 48.58 L 886.46 48.58 L 889.36 48.58 L 889.63 48.58 L 892.57 48.58 L 892.93 48.58 L 902.59 48.58 L 903.15 48.58 L 905.63 48.58 L 906.42 48.58 L 910.00 48.58 L 910.00 50.01 L 906.42 52.84 L 905.63 54.74 L 903.15 55.92 L 902.59 58.48 L 892.93 58.85 L 892.57 61.34 L 889.63 64.11 L 889.36 63.35 L 886.46 66.11 L 886.34 65.33 L 886.34 60.49 L 886.02 55.56 L 885.89 58.34 L 885.86 60.81 L 885.33 63.58 L 882.90 66.33 L 879.25 68.22 L 878.86 70.47 L 878.48 73.06 L 878.07 75.58 L 877.16 70.79 L 877.14 73.50 L 868.84 68.69 L 867.71 69.91 L 865.44 71.88 L 864.49 72.12 L 864.39 74.70 L 862.37 77.38 L 860.76 80.06 L 860.66 82.61 L 858.19 85.25 L 844.81 87.63 L 834.50 86.90 L 834.32 82.22 L 834.22 82.25 L 834.03 80.46 L 830.05 83.23 L 829.87 78.52 L 829.80 73.76 L 820.15 68.95 L 818.68 70.90 L 817.08 70.74 L 816.95 73.16 L 816.91 75.53 L 813.75 70.74 L 810.18 70.60 L 805.77 72.42 L 796.86 75.13 L 793.05 70.34 L 792.96 72.88 L 789.66 68.06 L 782.16 68.68 L 772.48 70.52 L 772.18 72.40 L 765.54 75.11 L 765.52 77.47 L 762.15 72.70 L 761.99 74.37 L 761.90 75.38 L 758.81 70.58 L 744.79 69.94 L 717.23 70.00 L 716.95 65.15 L 699.89 68.02 L 699.73 68.10 L 696.73 70.84 L 693.24 73.03 L 688.72 71.33 L 675.84 73.77 L 664.95 72.79 L 661.47 73.31 L 651.73 73.86 L 650.93 69.06 L 648.25 68.67 L 648.17 70.85 L 648.05 71.03 L 644.39 73.75 L 640.71 68.94 L 640.64 69.66 L 640.48 68.38 L 638.13 63.52 L 624.34 64.79 L 624.11 67.54 L 620.95 70.28 L 620.86 71.65 L 620.53 66.82 L 620.53 69.57 L 616.97 72.29 L 602.66 73.58 L 602.59 75.40 L 592.66 78.09 L 592.57 79.13 L 592.49 74.38 L 592.32 69.58 L 579.54 64.73 L 576.24 64.55 L 569.01 59.66 L 551.89 61.53 L 551.09 64.12 L 548.43 59.22 L 531.31 61.18 L 528.31 63.67 L 528.23 58.77 L 527.71 58.54 L 524.18 53.59 Z" fill="#d0d0d0" fill-opacity="0.5" stroke="none"/>
<path d="M 937.74 28.95 L 937.79 28.95 L 937.97 28.95 L 940.87 28.95 L 940.90 28.95 L 951.51 28.95 L 957.89 28.95 L 961.28 28.95 L 964.90 28.95 L 964.95 28.95 L 965.14 28.95 L 965.14 30.40 L 964.95 32.91 L 964.90 35.83 L 961.28 37.82 L 957.89 40.14 L 951.51 40.72 L 940.90 42.24 L 940.87 44.83 L 937.97 39.74 L 937.79 39.27 L 937.74 34.14 Z" fill="#d0d0d0" fill-opacity="0.5" stroke="none"/>
<path d="M 978.80 25.00 L 978.88 25.00 L 979.05 25.00 L 981.48 25.00 L 982.59 25.00 L 985.55 25.00 L 988.37 25.00 L 1003.05 25.00 L 1007.06 25.00 L 1013.03 25.00 L 1013.12 25.00 L 1013.18 25.00 L 1013.23 25.00 L 1013.38 25.00 L 1022.86 25.00 L 1027.13 25.00 L 1030.55 25.00 L 1033.29 25.00 L 1033.75 25.00 L 1033.92 25.00 L 1034.11 25.00 L 1034.15 25.00 L 1036.56 25.00 L 1047.46 25.00 L 1051.35 25.00 L 1051.69 25.00 L 1051.72 25.00 L 1078.75 25.00 L 1095.09 25.00 L 1096.15 25.00 L 1099.26 25.00 L 1102.96 25.00 L 1103.02 25.00 L 1103.38 25.00 L 1103.66 25.00 L 1109.60 25.00 L 1110.15 25.00 L 1120.38 25.00 L 1126.67 25.00 L 1147.54 25.00 L 1147.65 25.00 L 1154.37 25.00 L 1154.44 25.00 L 1154.96 25.00 L 1170.00 25.00 L 1170.00 65.64 L 1154.96 68.41 L 1154.44 66.44 L 1154.37 67.61 L 1147.65 62.73 L 1147.54 63.27 L 1126.67 63.80 L 1120.38 65.95 L 1110.15 67.34 L 1109.60 66.53 L 1103.66 61.65 L 1103.38 59.29 L 1103.02 61.69 L 1102.96 63.56 L 1099.26 58.64 L 1096.15 60.66 L 1095.09 55.72 L 1078.75 50.73 L 1051.72 52.68 L 1051.69 54.98 L 1051.35 49.98 L 1047.46 51.70 L 1036.56 54.37 L 1034.15 56.56 L 1034.11 57.99 L 1033.92 55.41 L 1033.75 55.34 L 1033.29 58.31 L 1030.55 59.81 L 1027.13 62.60 L 1022.86 57.68 L 1013.38 57.70 L 1013.23 59.54 L 1013.18 54.59 L 1013.12 49.59 L 1013.03 50.20 L 1007.06 45.15 L 1003.05 40.07 L 988.37 40.60 L 985.55 42.90 L 982.59 45.09 L 981.48 45.60 L 979.05 40.52 L 978.88 35.39 L 978.80 30.22 Z" fill="#d0d0d0" fill-opacity="0.5" stroke="none"/>
<polyline fill="none" stroke="#111" stroke-width="1.2" points="70.00,88.51 93.83,86.38 94.07,91.01 97.90,89.17 116.45,87.26 140.63,86.63 141.40,84.20 142.26,81.75 142.68,79.62 153.66,79.48 155.31,76.79 159.64,74.61 162.98,71.89 167.65,70.58 169.54,68.61 177.84,69.23 179.38,68.05 179.64,72.85 179.66,70.19 179.80,67.71 182.54,67.25 183.91,67.76 186.24,65.96 186.74,63.19 187.10,68.05 190.32,66.98 193.26,64.41 203.37,61.92 251.55,59.13 255.51,64.02 307.79,63.09 310.73,67.95 310.82,72.77 311.00,71.90 330.91,70.20 333.99,74.99 347.60,72.26 354.68,70.04 355.54,70.13 358.19,67.62 362.31,65.73 371.84,63.42 376.16,64.94 382.87,62.71 385.60,60.43 397.33,59.50 403.59,56.70 406.28,61.62 407.56,59.08 431.51,56.90 444.45,61.82 447.57,59.03 472.27,56.73 476.23,56.59 503.49,54.95 503.62,52.74 503.74,51.12 506.92,48.58 524.18,53.59 527.71,58.54 528.23,58.77 528.31,63.67 531.31,61.18 548.43,59.22 551.09,64.12 551.89,61.53 569.01,59.66 576.24,64.55 579.54,64.73 592.32,69.58 592.49,74.38 592.57,79.13 592.66,78.09 602.59,75.40 602.66,73.58 616.97,72.29 620.53,69.57 620.53,66.82 620.86,71.65 620.95,70.28 624.11,67.54 624.34,64.79 638.13,63.52 640.48,68.38 640.64,69.66 640.71,68.94 644.39,73.75 648.05,71.03 648.17,70.85 648.25,68.67 650.93,69.06 651.73,73.86 661.47,73.31 664.95,72.79 675.84,73.77 688.72,71.33 693.24,73.03 696.73,70.84 699.73,68.10 699.89,68.02 716.95,65.15 717.23,70.00 744.79,69.94 758.81,70.58 761.90,75.38 761.99,74.37 762.15,72.70 765.52,77.47 765.54,75.11 772.18,72.40 772.48,70.52 782.16,68.68 789.66,68.06 792.96,72.88 793.05,70.34 796.86,75.13 805.77,72.42 810.18,70.60 813.75,70.74 816.91,75.53 816.95,73.16 817.08,70.74 818.68,70.90 820.15,68.95 829.80,73.76 829.87,78.52 830.05,83.23 834.03,80.46 834.22,82.25 834.32,82.22 834.50,86.90 844.81,87.63 858.19,85.25 860.66,82.61 860.76,80.06 862.37,77.38 864.39,74.70 864.49,72.12 865.44,71.88 867.71,69.91 868.84,68.69 877.14,73.50 877.16,70.79 878.07,75.58 878.48,73.06 878.86,70.47 879.25,68.22 882.90,66.33 885.33,63.58 885.86,60.81 885.89,58.34 886.02,55.56 886.34,60.49 886.34,65.33 886.46,66.11 889.36,63.35 889.63,64.11 892.57,61.34 892.93,58.85 902.59,58.48 903.15,55.92 905.63,54.74 906.42,52.84 910.00,50.01 913.38,47.47 916.68,44.61 916.74,41.88 927.29,39.00 930.98,36.82 932.68,33.91 937.34,30.85 937.52,28.95 937.74,34.14 937.79,39.27 937.97,39.74 940.87,44.83 940.90,42.24 951.51,40.72 957.89,40.14 961.28,37.82 964.90,35.83 964.95,32.91 965.14,30.40 965.31,27.81 965.43,26.64 975.44,25.00 978.80,30.22 978.88,35.39 979.05,40.52 981.48,45.60 982.59,45.09 985.55,42.90 988.37,40.60 1003.05,40.07 1007.06,45.15 1013.03,50.20 1013.12,49.59 1013.18,54.59 1013.23,59.54 1013.38,57.70 1022.86,57.68 1027.13,62.60 1030.55,59.81 1033.29,58.31 1033.75,55.34 1033.92,55.41 1034.11,57.99 1034.15,56.56 1036.56,54.37 1047.46,51.70 1051.35,49.98 1051.69,54.98 1051.72,52.68 1078.75,50.73 1095.09,55.72 1096.15,60.66 1099.26,58.64 1102.96,63.56 1103.02,61.69 1103.38,59.29 1103.66,61.65 1109.60,66.53 1110.15,67.34 1120.38,65.95 1126.67,63.80 1147.54,63.27 1147.65,62.73 1154.37,67.61 1154.44,66.44 1154.96,68.41 1170.00,65.64"/>
<text x="620.0" y="588" text-anchor="middle" font-family="sans-serif" font-size="12" fill="#333">UTC time</text>
<text x="15" y="287.5" transform="rotate(-90 15,287.5)" text-anchor="middle" font-family="sans-serif" font-size="12" fill="#333">Capital</text>
</svg>