<svg xmlns="http://www.w3.org/2000/svg" width="1200" height="600" viewBox="0 0 1200 600">
<desc>Equity curve with drawdown fill</desc>
<text x="600.0" y="18.0" text-anchor="middle" font-family="sans-serif" font-size="14">Portfolio 2001</text>
<rect x="70" y="25" width="1100" height="525" fill="white" stroke="#ccc" />
<line x1="70" y1="550.00" x2="1170" y2="550.00" stroke="#eee"/>
<text x="62" y="554.0" text-anchor="end" font-family="sans-serif" font-size="11" fill="#555">0.00</text>
<line x1="70" y1="445.00" x2="1170" y2="445.00" stroke="#eee"/>
<text x="62" y="449.0" text-anchor="end" font-family="sans-serif" font-size="11" fill="#555">22022</text>
<line x1="70" y1="340.00" x2="1170" y2="340.00" stroke="#eee"/>
<text x="62" y="344.0" text-anchor="end" font-family="sans-serif" font-size="11" fill="#555">44043</text>
<line x1="70" y1="235.00" x2="1170" y2="235.00" stroke="#eee"/>
<text x="62" y="239.0" text-anchor="end" font-family="sans-serif" font-size="11" fill="#555">66065</text>
<line x1="70" y1="130.00" x2="1170" y2="130.00" stroke="#eee"/>
<text x="62" y="134.0" text-anchor="end" font-family="sans-serif" font-size="11" fill="#555">88087</text>
<line x1="70" y1="25.00" x2="1170" y2="25.00" stroke="#eee"/>
<text x="62" y="29.0" text-anchor="end" font-family="sans-serif" font-size="11" fill="#555">110108</text>
<line x1="156.97" y1="25" x2="156.97" y2="550" stroke="#f2f2f2"/>
<text x="156.97" y="566" text-anchor="middle" font-family="sans-serif" font-size="11" fill="#555">Feb</text>
<line x1="241.97" y1="25" x2="241.97" y2="550" stroke="#f2f2f2"/>
<text x="241.97" y="566" text-anchor="middle" font-family="sans-serif" font-size="11" fill="#555">Mar</text>
<line x1="336.07" y1="25" x2="336.07" y2="550" stroke="#f2f2f2"/>
<text x="336.07" y="566" text-anchor="middle" font-family="sans-serif" font-size="11" fill="#555">Apr</text>
<line x1="427.14" y1="25" x2="427.14" y2="550" stroke="#f2f2f2"/>
<text x="427.14" y="566" text-anchor="middle" font-family="sans-serif" font-size="11" fill="#555">May</text>
<line x1="521.24" y1="25" x2="521.24" y2="550" stroke="#f2f2f2"/>
<text x="521.24" y="566" text-anchor="middle" font-family="sans-serif" font-size="11" fill="#555">Jun</text>
<line x1="612.31" y1="25" x2="612.31" y2="550" stroke="#f2f2f2"/>
<text x="612.31" y="566" text-anchor="middle" font-family="sans-serif" font-size="11" fill="#555">Jul</text>
<line x1="706.42" y1="25" x2="706.42" y2="550" stroke="#f2f2f2"/>
<text x="706.42" y="566" text-anchor="middle" font-family="sans-serif" font-size="11" fill="#555">Aug</text>
<line x1="800.52" y1="25" x2="800.52" y2="550" stroke="#f2f2f2"/>
<text x="800.52" y="566" text-anchor="middle" font-family="sans-serif" font-size="11" fill="#555">Sep</text>
<line x1="891.59" y1="25" x2="891.59" y2="550" stroke="#f2f2f2"/>
<text x="891.59" y="566" text-anchor="middle" font-family="sans-serif" font-size="11" fill="#555">Oct</text>
<line x1="985.69" y1="25" x2="985.69" y2="550" stroke="#f2f2f2"/>
<text x="985.69" y="566" text-anchor="middle" font-family="sans-serif" font-size="11" fill="#555">Nov</text>
<line x1="1076.76" y1="25" x2="1076.76" y2="550" stroke="#f2f2f2"/>
<text x="1076.76" y="566" text-anchor="middle" font-family="sans-serif" font-size="11" fill="#555">Dec</text>
<line x1="1170.00" y1="25" x2="1170.00" y2="550" stroke="#f2f2f2"/>
<text x="1170.00" y="566" text-anchor="middle" font-family="sans-serif" font-size="11" fill="#555">Jan</text>
<line x1="70" y1="550" x2="1170" y2="550" stroke="#888"/>
<line x1="70" y1="25" x2="70" y2="550" stroke="#888"/>
<path d="M 71.43 65.84 L 72.93 65.84 L 72.97 65.84 L 73.14 65.84 L 73.15 65.84 L 73.27 65.84 L 73.29 65.84 L 73.36 65.84 L 73.54 65.84 L 74.23 65.84 L 74.96 65.84 L 75.93 65.84 L 76.83 65.84 L 77.39 65.84 L 85.18 65.84 L 88.35 65.84 L 91.35 65.84 L 126.65 65.84 L 126.74 65.84 L 127.75 65.84 L 128.55 65.84 L 134.49 65.84 L 134.55 65.84 L 134.74 65.84 L 137.02 65.84 L 137.62 65.84 L 139.85 65.84 L 140.47 65.84 L 152.90 65.84 L 155.76 65.84 L 161.91 65.84 L 161.99 65.84 L 170.14 65.84 L 176.67 65.84 L 179.80 65.84 L 182.44 65.84 L 182.48 65.84 L 183.41 65.84 L 195.27 65.84 L 200.78 65.84 L 200.96 65.84 L 201.50 65.84 L 203.38 65.84 L 203.44 65.84 L 204.37 65.84 L 211.65 65.84 L 213.12 65.84 L 215.63 65.84 L 216.04 65.84 L 216.25 65.84 L 218.75 65.84 L 218.91 65.84 L 219.06 65.84 L 219.70 65.84 L 219.85 65.84 L 220.85 65.84 L 221.79 65.84 L 221.94 65.84 L 222.55 65.84 L 222.74 65.84 L 222.74 68.34 L 222.55 70.54 L 221.94 74.20 L 221.79 77.91 L 220.85 80.61 L 219.85 83.97 L 219.70 85.38 L 219.06 89.31 L 218.91 88.25 L 218.75 89.43 L 216.25 92.82 L 216.04 92.99 L 215.63 95.70 L 213.12 97.07 L 211.65 90.17 L 204.37 92.78 L 203.44 93.81 L 203.38 96.31 L 201.50 99.85 L 200.96 101.82 L 200.78 103.44 L 195.27 101.04 L 183.41 100.39 L 182.48 101.95 L 182.44 105.74 L 179.80 108.87 L 176.67 107.14 L 170.14 109.38 L 161.99 112.44 L 161.91 114.28 L 155.76 107.67 L 152.90 110.56 L 140.47 103.88 L 139.85 97.09 L 137.62 90.20 L 137.02 91.48 L 134.74 94.17 L 134.55 94.40 L 134.49 96.74 L 128.55 89.84 L 127.75 82.83 L 126.74 86.42 L 126.65 87.64 L 91.35 80.59 L 88.35 84.23 L 85.18 87.07 L 77.39 90.02 L 76.83 91.78 L 75.93 95.35 L 74.96 98.82 L 74.23 102.27 L 73.54 105.81 L 73.36 109.08 L 73.29 110.03 L 73.27 103.45 L 73.15 96.68 L 73.14 89.78 L 72.97 87.26 L 72.93 80.23 L 71.43 73.08 Z" fill="#d0d0d0" fill-opacity="0.5" stroke="none"/>
<path d="M 225.97 65.72 L 226.25 65.72 L 234.05 65.72 L 236.99 65.72 L 237.80 65.72 L 238.14 65.72 L 240.47 65.72 L 240.88 65.72 L 246.10 65.72 L 246.13 65.72 L 262.14 65.72 L 279.60 65.72 L 280.42 65.72 L 282.43 65.72 L 282.90 65.72 L 283.34 65.72 L 283.37 65.72 L 283.75 65.72 L 285.43 65.72 L 285.55 65.72 L 285.55 67.62 L 285.43 71.70 L 283.75 74.93 L 283.37 78.59 L 283.34 82.38 L 282.90 75.25 L 282.43 74.28 L 280.42 67.03 L 279.60 68.17 L 262.14 69.65 L 246.13 70.80 L 246.10 73.98 L 240.88 66.72 L 240.47 69.00 L 238.14 71.03 L 237.80 70.76 L 236.99 74.40 L 234.05 77.14 L 226.25 75.92 L 225.97 72.99 Z" fill="#d0d0d0" fill-opacity="0.5" stroke="none"/>
<path d="M 286.76 64.60 L 286.77 64.60 L 286.77 67.92 L 286.76 71.89 Z" fill="#d0d0d0" fill-opacity="0.5" stroke="none"/>
<path d="M 303.82 51.29 L 303.84 51.29 L 304.04 51.29 L 306.77 51.29 L 306.95 51.29 L 307.68 51.29 L 309.74 51.29 L 309.92 51.29 L 322.72 51.29 L 322.72 51.32 L 309.92 55.17 L 309.74 58.46 L 307.68 59.11 L 306.95 62.29 L 306.77 64.88 L 304.04 68.19 L 303.84 66.16 L 303.82 58.78 Z" fill="#d0d0d0" fill-opacity="0.5" stroke="none"/>
<path d="M 325.28 48.49 L 330.41 48.49 L 332.01 48.49 L 341.13 48.49 L 343.17 48.49 L 344.23 48.49 L 344.32 48.49 L 348.60 48.49 L 349.46 48.49 L 349.95 48.49 L 352.40 48.49 L 352.94 48.49 L 352.94 50.47 L 352.40 52.58 L 349.95 54.26 L 349.46 58.46 L 348.60 60.85 L 344.32 59.82 L 344.23 61.07 L 343.17 53.61 L 341.13 56.56 L 332.01 57.65 L 330.41 50.15 L 325.28 52.21 Z" fill="#d0d0d0" fill-opacity="0.5" stroke="none"/>
<path d="M 365.43 45.47 L 368.19 45.47 L 368.24 45.47 L 368.70 45.47 L 371.32 45.47 L 371.52 45.47 L 383.27 45.47 L 389.64 45.47 L 389.71 45.47 L 389.72 45.47 L 389.86 45.47 L 389.96 45.47 L 390.07 45.47 L 391.93 45.47 L 392.55 45.47 L 392.61 45.47 L 392.79 45.47 L 394.88 45.47 L 395.45 45.47 L 395.72 45.47 L 404.02 45.47 L 404.88 45.47 L 407.83 45.47 L 408.02 45.47 L 410.83 45.47 L 413.68 45.47 L 416.80 45.47 L 416.90 45.47 L 416.96 45.47 L 417.06 45.47 L 431.29 45.47 L 433.14 45.47 L 434.48 45.47 L 435.14 45.47 L 435.37 45.47 L 437.95 45.47 L 438.10 45.47 L 450.24 45.47 L 450.24 45.58 L 438.10 46.43 L 437.95 49.76 L 435.37 54.18 L 435.14 56.52 L 434.48 59.91 L 433.14 60.80 L 431.29 64.23 L 417.06 66.98 L 416.96 70.44 L 416.90 72.83 L 416.80 65.54 L 413.68 58.14 L 410.83 50.63 L 408.02 49.95 L 407.83 49.83 L 404.88 54.03 L 404.02 56.23 L 395.72 59.97 L 395.45 63.78 L 394.88 67.56 L 392.79 66.80 L 392.61 69.14 L 392.55 71.69 L 391.93 74.21 L 390.07 75.79 L 389.96 74.72 L 389.86 75.63 L 389.72 68.39 L 389.71 72.61 L 389.64 65.32 L 383.27 57.92 L 371.52 50.41 L 371.32 52.51 L 368.70 56.07 L 368.24 57.46 L 368.19 60.51 L 365.43 53.04 Z" fill="#d0d0d0" fill-opacity="0.5" stroke="none"/>
<path d="M 473.73 32.83 L 473.82 32.83 L 489.00 32.83 L 492.27 32.83 L 495.05 32.83 L 496.25 32.83 L 497.34 32.83 L 498.33 32.83 L 500.92 32.83 L 501.23 32.83 L 515.39 32.83 L 515.39 33.76 L 501.23 37.81 L 500.92 39.67 L 498.33 43.58 L 497.34 45.57 L 496.25 49.60 L 495.05 53.47 L 492.27 55.93 L 489.00 55.80 L 473.82 48.25 L 473.73 40.59 Z" fill="#d0d0d0" fill-opacity="0.5" stroke="none"/>
<path d="M 532.44 25.00 L 534.80 25.00 L 537.43 25.00 L 538.39 25.00 L 543.09 25.00 L 543.23 25.00 L 543.26 25.00 L 543.39 25.00 L 543.40 25.00 L 543.54 25.00 L 543.55 25.00 L 543.76 25.00 L 553.38 25.00 L 555.66 25.00 L 562.60 25.00 L 562.66 25.00 L 562.78 25.00 L 562.86 25.00 L 562.99 25.00 L 565.64 25.00 L 574.65 25.00 L 581.37 25.00 L 583.78 25.00 L 604.84 25.00 L 625.56 25.00 L 626.54 25.00 L 629.52 25.00 L 629.57 25.00 L 638.62 25.00 L 640.65 25.00 L 643.71 25.00 L 646.73 25.00 L 663.14 25.00 L 665.89 25.00 L 665.90 25.00 L 665.97 25.00 L 666.07 25.00 L 667.99 25.00 L 668.72 25.00 L 672.16 25.00 L 686.85 25.00 L 692.98 25.00 L 693.32 25.00 L 714.46 25.00 L 725.66 25.00 L 732.93 25.00 L 732.96 25.00 L 747.94 25.00 L 750.28 25.00 L 753.06 25.00 L 753.86 25.00 L 754.17 25.00 L 771.36 25.00 L 771.53 25.00 L 772.41 25.00 L 778.34 25.00 L 789.15 25.00 L 790.48 25.00 L 794.35 25.00 L 796.27 25.00 L 796.55 25.00 L 796.59 25.00 L 796.81 25.00 L 799.42 25.00 L 799.45 25.00 L 799.62 25.00 L 810.52 25.00 L 811.55 25.00 L 811.66 25.00 L 811.68 25.00 L 811.71 25.00 L 811.86 25.00 L 811.93 25.00 L 814.18 25.00 L 816.81 25.00 L 817.62 25.00 L 820.44 25.00 L 820.51 25.00 L 820.59 25.00 L 832.65 25.00 L 832.76 25.00 L 832.87 25.00 L 832.91 25.00 L 833.03 25.00 L 833.09 25.00 L 833.16 25.00 L 834.06 25.00 L 834.55 25.00 L 834.70 25.00 L 834.72 25.00 L 835.05 25.00 L 835.19 25.00 L 839.05 25.00 L 841.11 25.00 L 841.73 25.00 L 849.83 25.00 L 850.75 25.00 L 851.07 25.00 L 851.11 25.00 L 851.21 25.00 L 851.51 25.00 L 854.34 25.00 L 857.22 25.00 L 861.64 25.00 L 862.42 25.00 L 863.02 25.00 L 863.40 25.00 L 863.51 25.00 L 871.86 25.00 L 871.89 25.00 L 875.20 25.00 L 881.26 25.00 L 882.83 25.00 L 891.80 25.00 L 896.32 25.00 L 898.15 25.00 L 900.01 25.00 L 913.01 25.00 L 914.03 25.00 L 916.55 25.00 L 918.37 25.00 L 939.17 25.00 L 942.09 25.00 L 955.51 25.00 L 957.41 25.00 L 977.77 25.00 L 978.54 25.00 L 1004.81 25.00 L 1006.29 25.00 L 1020.92 25.00 L 1020.92 25.00 L 1022.31 25.00 L 1023.25 25.00 L 1083.02 25.00 L 1091.03 25.00 L 1110.54 25.00 L 1125.48 25.00 L 1131.39 25.00 L 1132.85 25.00 L 1133.82 25.00 L 1146.73 25.00 L 1146.79 25.00 L 1148.08 25.00 L 1148.10 25.00 L 1148.28 25.00 L 1148.40 25.00 L 1148.67 25.00 L 1154.31 25.00 L 1154.43 25.00 L 1167.89 25.00 L 1169.53 25.00 L 1169.83 25.00 L 1170.00 25.00 L 1170.00 183.58 L 1169.83 186.75 L 1169.53 185.34 L 1167.89 188.48 L 1154.43 189.98 L 1154.31 193.07 L 1148.67 196.11 L 1148.40 199.12 L 1148.28 197.62 L 1148.10 192.52 L 1148.08 187.32 L 1146.79 182.01 L 1146.73 176.58 L 1133.82 175.99 L 1132.85 179.24 L 1131.39 179.12 L 1125.48 182.34 L 1110.54 179.74 L 1091.03 182.95 L 1083.02 177.55 L 1023.25 174.14 L 1022.31 173.42 L 1020.92 176.50 L 1020.92 179.69 L 1006.29 182.70 L 1004.81 181.74 L 978.54 183.03 L 977.77 182.57 L 957.41 183.65 L 955.51 181.16 L 942.09 179.25 L 939.17 173.77 L 918.37 176.01 L 916.55 172.47 L 914.03 175.67 L 913.01 173.94 L 900.01 173.92 L 898.15 168.34 L 896.32 168.98 L 891.80 171.29 L 882.83 173.62 L 881.26 174.64 L 875.20 176.71 L 871.89 178.32 L 871.86 180.94 L 863.51 183.94 L 863.40 186.10 L 863.02 187.79 L 862.42 190.71 L 861.64 193.17 L 857.22 196.03 L 854.34 190.91 L 851.51 193.62 L 851.21 195.91 L 851.11 190.78 L 851.07 185.55 L 850.75 180.21 L 849.83 182.94 L 841.73 184.02 L 841.11 185.34 L 839.05 186.85 L 835.19 188.56 L 835.05 188.58 L 834.72 183.31 L 834.70 177.94 L 834.55 173.83 L 834.06 171.18 L 833.16 165.56 L 833.09 159.94 L 833.03 154.11 L 832.91 148.28 L 832.87 142.23 L 832.76 136.18 L 832.65 129.93 L 820.59 133.45 L 820.51 127.14 L 820.44 120.73 L 817.62 124.34 L 816.81 127.25 L 814.18 128.07 L 811.93 131.60 L 811.86 132.31 L 811.71 133.99 L 811.68 127.70 L 811.66 121.40 L 811.55 114.89 L 810.52 108.27 L 799.62 101.54 L 799.45 94.71 L 799.42 98.00 L 796.81 91.11 L 796.59 92.30 L 796.55 94.89 L 796.27 87.94 L 794.35 91.08 L 790.48 94.62 L 789.15 87.67 L 778.34 91.58 L 772.41 95.46 L 771.53 97.44 L 771.36 95.91 L 754.17 88.99 L 753.86 90.72 L 753.06 88.88 L 750.28 92.48 L 747.94 96.35 L 732.96 89.44 L 732.93 93.09 L 725.66 86.13 L 714.46 88.90 L 693.32 89.81 L 692.98 88.19 L 686.85 91.76 L 672.16 92.98 L 668.72 93.53 L 667.99 96.50 L 666.07 99.96 L 665.97 102.59 L 665.90 104.89 L 665.89 98.12 L 663.14 91.24 L 646.73 84.25 L 643.71 87.47 L 640.65 80.43 L 638.62 84.04 L 629.57 87.07 L 629.52 89.47 L 626.54 82.46 L 625.56 82.73 L 604.84 83.03 L 583.78 81.27 L 581.37 82.26 L 574.65 83.37 L 565.64 87.30 L 562.99 90.61 L 562.86 89.37 L 562.78 90.78 L 562.66 83.90 L 562.60 76.81 L 555.66 80.79 L 553.38 83.91 L 543.76 76.81 L 543.55 79.67 L 543.54 73.38 L 543.40 66.53 L 543.39 59.97 L 543.26 53.65 L 543.23 48.53 L 543.09 41.88 L 538.39 34.80 L 537.43 26.95 L 534.80 29.65 L 532.44 32.87 Z" fill="#d0d0d0" fill-opacity="0.5" stroke="none"/>
<polyline fill="none" stroke="#111" stroke-width="1.2" points="70.00,70.13 71.25,65.84 71.43,73.08 72.93,80.23 72.97,87.26 73.14,89.78 73.15,96.68 73.27,103.45 73.29,110.03 73.36,109.08 73.54,105.81 74.23,102.27 74.96,98.82 75.93,95.35 76.83,91.78 77.39,90.02 85.18,87.07 88.35,84.23 91.35,80.59 126.65,87.64 126.74,86.42 127.75,82.83 128.55,89.84 134.49,96.74 134.55,94.40 134.74,94.17 137.02,91.48 137.62,90.20 139.85,97.09 140.47,103.88 152.90,110.56 155.76,107.67 161.91,114.28 161.99,112.44 170.14,109.38 176.67,107.14 179.80,108.87 182.44,105.74 182.48,101.95 183.41,100.39 195.27,101.04 200.78,103.44 200.96,101.82 201.50,99.85 203.38,96.31 203.44,93.81 204.37,92.78 211.65,90.17 213.12,97.07 215.63,95.70 216.04,92.99 216.25,92.82 218.75,89.43 218.91,88.25 219.06,89.31 219.70,85.38 219.85,83.97 220.85,80.61 221.79,77.91 221.94,74.20 222.55,70.54 222.74,68.34 225.58,65.72 225.97,72.99 226.25,75.92 234.05,77.14 236.99,74.40 237.80,70.76 238.14,71.03 240.47,69.00 240.88,66.72 246.10,73.98 246.13,70.80 262.14,69.65 279.60,68.17 280.42,67.03 282.43,74.28 282.90,75.25 283.34,82.38 283.37,78.59 283.75,74.93 285.43,71.70 285.55,67.62 286.13,64.60 286.76,71.89 286.77,67.92 286.90,64.35 288.64,60.83 289.34,59.53 289.67,56.81 298.07,55.26 300.72,54.99 302.60,51.29 303.82,58.78 303.84,66.16 304.04,68.19 306.77,64.88 306.95,62.29 307.68,59.11 309.74,58.46 309.92,55.17 322.72,51.32 322.87,48.49 325.28,52.21 330.41,50.15 332.01,57.65 341.13,56.56 343.17,53.61 344.23,61.07 344.32,59.82 348.60,60.85 349.46,58.46 349.95,54.26 352.40,52.58 352.94,50.47 352.99,46.24 353.55,45.47 365.43,53.04 368.19,60.51 368.24,57.46 368.70,56.07 371.32,52.51 371.52,50.41 383.27,57.92 389.64,65.32 389.71,72.61 389.72,68.39 389.86,75.63 389.96,74.72 390.07,75.79 391.93,74.21 392.55,71.69 392.61,69.14 392.79,66.80 394.88,67.56 395.45,63.78 395.72,59.97 404.02,56.23 404.88,54.03 407.83,49.83 408.02,49.95 410.83,50.63 413.68,58.14 416.80,65.54 416.90,72.83 416.96,70.44 417.06,66.98 431.29,64.23 433.14,60.80 434.48,59.91 435.14,56.52 435.37,54.18 437.95,49.76 438.10,46.43 450.24,45.58 456.16,41.58 456.27,38.20 456.56,34.31 473.21,32.83 473.73,40.59 473.82,48.25 489.00,55.80 492.27,55.93 495.05,53.47 496.25,49.60 497.34,45.57 498.33,43.58 500.92,39.67 501.23,37.81 515.39,33.76 518.96,29.38 523.35,25.00 532.44,32.87 534.80,29.65 537.43,26.95 538.39,34.80 543.09,41.88 543.23,48.53 543.26,53.65 543.39,59.97 543.40,66.53 543.54,73.38 543.55,79.67 543.76,76.81 553.38,83.91 555.66,80.79 562.60,76.81 562.66,83.90 562.78,90.78 562.86,89.37 562.99,90.61 565.64,87.30 574.65,83.37 581.37,82.26 583.78,81.27 604.84,83.03 625.56,82.73 626.54,82.46 629.52,89.47 629.57,87.07 638.62,84.04 640.65,80.43 643.71,87.47 646.73,84.25 663.14,91.24 665.89,98.12 665.90,104.89 665.97,102.59 666.07,99.96 667.99,96.50 668.72,93.53 672.16,92.98 686.85,91.76 692.98,88.19 693.32,89.81 714.46,88.90 725.66,86.13 732.93,93.09 732.96,89.44 747.94,96.35 750.28,92.48 753.06,88.88 753.86,90.72 754.17,88.99 771.36,95.91 771.53,97.44 772.41,95.46 778.34,91.58 789.15,87.67 790.48,94.62 794.35,91.08 796.27,87.94 796.55,94.89 796.59,92.30 796.81,91.11 799.42,98.00 799.45,94.71 799.62,101.54 810.52,108.27 811.55,114.89 811.66,121.40 811.68,127.70 811.71,133.99 811.86,132.31 811.93,131.60 814.18,128.07 816.81,127.25 817.62,124.34 820.44,120.73 820.51,127.14 820.59,133.45 832.65,129.93 832.76,136.18 832.87,142.23 832.91,148.28 833.03,154.11 833.09,159.94 833.16,165.56 834.06,171.18 834.55,173.83 834.70,177.94 834.72,183.31 835.05,188.58 835.19,188.56 839.05,186.85 841.11,185.34 841.73,184.02 849.83,182.94 850.75,180.21 851.07,185.55 851.11,190.78 851.21,195.91 851.51,193.62 854.34,190.91 857.22,196.03 861.64,193.17 862.42,190.71 863.02,187.79 863.40,186.10 863.51,183.94 871.86,180.94 871.89,178.32 875.20,176.71 881.26,174.64 882.83,173.62 891.80,171.29 896.32,168.98 898.15,168.34 900.01,173.92 913.01,173.94 914.03,175.67 916.55,172.47 918.37,176.01 939.17,173.77 942.09,179.25 955.51,181.16 957.41,183.65 977.77,182.57 978.54,183.03 1004.81,181.74 1006.29,182.70 1020.92,179.69 1020.92,176.50 1022.31,173.42 1023.25,174.14 1083.02,177.55 1091.03,182.95 1110.54,179.74 1125.48,182.34 1131.39,179.12 1132.85,179.24 1133.82,175.99 1146.73,176.58 1146.79,182.01 1148.08,187.32 1148.10,192.52 1148.28,197.62 1148.40,199.12 1148.67,196.11 1154.31,193.07 1154.43,189.98 1167.89,188.48 1169.53,185.34 1169.83,186.75 1170.00,183.58"/>
<text x="620.0" y="588" text-anchor="middle" font-family="sans-serif" font-size="12" fill="#333">UTC time</text>
<text x="15" y="287.5" transform="rotate(-90 15,287.5)" text-anchor="middle" font-family="sans-serif" font-size="12" fill="#333">Capital</text>
</svg>