<svg xmlns="http://www.w3.org/2000/svg" width="1200" height="600" viewBox="0 0 1200 600">
<desc>Equity curve with drawdown fill</desc>
<text x="600.0" y="18.0" text-anchor="middle" font-family="sans-serif" font-size="14">Portfolio 2014</text>
<rect x="70" y="25" width="1100" height="525" fill="white" stroke="#ccc" />
<line x1="70" y1="550.00" x2="1170" y2="550.00" stroke="#eee"/>
<text x="62" y="554.0" text-anchor="end" font-family="sans-serif" font-size="11" fill="#555">0.00</text>
<line x1="70" y1="445.00" x2="1170" y2="445.00" stroke="#eee"/>
<text x="62" y="449.0" text-anchor="end" font-family="sans-serif" font-size="11" fill="#555">21662</text>
<line x1="70" y1="340.00" x2="1170" y2="340.00" stroke="#eee"/>
<text x="62" y="344.0" text-anchor="end" font-family="sans-serif" font-size="11" fill="#555">43324</text>
<line x1="70" y1="235.00" x2="1170" y2="235.00" stroke="#eee"/>
<text x="62" y="239.0" text-anchor="end" font-family="sans-serif" font-size="11" fill="#555">64986</text>
<line x1="70" y1="130.00" x2="1170" y2="130.00" stroke="#eee"/>
<text x="62" y="134.0" text-anchor="end" font-family="sans-serif" font-size="11" fill="#555">86649</text>
<line x1="70" y1="25.00" x2="1170" y2="25.00" stroke="#eee"/>
<text x="62" y="29.0" text-anchor="end" font-family="sans-serif" font-size="11" fill="#555">108311</text>
<line x1="162.62" y1="25" x2="162.62" y2="550" stroke="#f2f2f2"/>
<text x="162.62" y="566" text-anchor="middle" font-family="sans-serif" font-size="11" fill="#555">Feb</text>
<line x1="250.68" y1="25" x2="250.68" y2="550" stroke="#f2f2f2"/>
<text x="250.68" y="566" text-anchor="middle" font-family="sans-serif" font-size="11" fill="#555">Mar</text>
<line x1="348.17" y1="25" x2="348.17" y2="550" stroke="#f2f2f2"/>
<text x="348.17" y="566" text-anchor="middle" font-family="sans-serif" font-size="11" fill="#555">Apr</text>
<line x1="442.52" y1="25" x2="442.52" y2="550" stroke="#f2f2f2"/>
<text x="442.52" y="566" text-anchor="middle" font-family="sans-serif" font-size="11" fill="#555">May</text>
<line x1="540.02" y1="25" x2="540.02" y2="550" stroke="#f2f2f2"/>
<text x="540.02" y="566" text-anchor="middle" font-family="sans-serif" font-size="11" fill="#555">Jun</text>
<line x1="634.37" y1="25" x2="634.37" y2="550" stroke="#f2f2f2"/>
<text x="634.37" y="566" text-anchor="middle" font-family="sans-serif" font-size="11" fill="#555">Jul</text>
<line x1="731.86" y1="25" x2="731.86" y2="550" stroke="#f2f2f2"/>
<text x="731.86" y="566" text-anchor="middle" font-family="sans-serif" font-size="11" fill="#555">Aug</text>
<line x1="829.36" y1="25" x2="829.36" y2="550" stroke="#f2f2f2"/>
<text x="829.36" y="566" text-anchor="middle" font-family="sans-serif" font-size="11" fill="#555">Sep</text>
<line x1="923.71" y1="25" x2="923.71" y2="550" stroke="#f2f2f2"/>
<text x="923.71" y="566" text-anchor="middle" font-family="sans-serif" font-size="11" fill="#555">Oct</text>
<line x1="1021.20" y1="25" x2="1021.20" y2="550" stroke="#f2f2f2"/>
<text x="1021.20" y="566" text-anchor="middle" font-family="sans-serif" font-size="11" fill="#555">Nov</text>
<line x1="1115.55" y1="25" x2="1115.55" y2="550" stroke="#f2f2f2"/>
<text x="1115.55" y="566" text-anchor="middle" font-family="sans-serif" font-size="11" fill="#555">Dec</text>
<line x1="70" y1="550" x2="1170" y2="550" stroke="#888"/>
<line x1="70" y1="25" x2="70" y2="550" stroke="#888"/>
<path d="M 135.44 59.03 L 139.02 59.03 L 180.14 59.03 L 180.14 59.68 L 139.02 62.30 L 135.44 63.93 Z" fill="#d0d0d0" fill-opacity="0.5" stroke="none"/>
<path d="M 198.91 56.83 L 198.91 57.21 Z" fill="#d0d0d0" fill-opacity="0.5" stroke="none"/>
<path d="M 290.99 48.02 L 309.91 48.02 L 325.48 48.02 L 466.51 48.02 L 554.37 48.02 L 554.41 48.02 L 554.61 48.02 L 554.61 48.12 L 554.41 51.02 L 554.37 53.24 L 466.51 56.11 L 325.48 51.14 L 309.91 54.03 L 290.99 49.03 Z" fill="#d0d0d0" fill-opacity="0.5" stroke="none"/>
<path d="M 840.57 45.21 L 840.75 45.21 L 853.82 45.21 L 882.18 45.21 L 906.04 45.21 L 922.07 45.21 L 922.07 46.49 L 906.04 47.34 L 882.18 49.96 L 853.82 52.60 L 840.75 55.23 L 840.57 50.24 Z" fill="#d0d0d0" fill-opacity="0.5" stroke="none"/>
<path d="M 932.02 43.84 L 948.23 43.84 L 969.54 43.84 L 969.64 43.84 L 969.68 43.84 L 972.36 43.84 L 976.04 43.84 L 988.11 43.84 L 1010.51 43.84 L 1014.26 43.84 L 1014.42 43.84 L 1019.95 43.84 L 1027.60 43.84 L 1032.76 43.84 L 1038.70 43.84 L 1038.85 43.84 L 1038.89 43.84 L 1051.50 43.84 L 1064.17 43.84 L 1075.99 43.84 L 1075.99 45.67 L 1064.17 48.55 L 1051.50 50.69 L 1038.89 53.06 L 1038.85 54.89 L 1038.70 53.96 L 1032.76 56.82 L 1027.60 58.63 L 1019.95 61.18 L 1014.42 56.25 L 1014.26 54.46 L 1010.51 57.31 L 988.11 57.48 L 976.04 57.77 L 972.36 59.29 L 969.68 54.34 L 969.64 56.01 L 969.54 51.03 L 948.23 46.01 L 932.02 48.90 Z" fill="#d0d0d0" fill-opacity="0.5" stroke="none"/>
<path d="M 1085.28 42.75 L 1098.67 42.75 L 1098.67 45.33 L 1085.28 47.81 Z" fill="#d0d0d0" fill-opacity="0.5" stroke="none"/>
<polyline fill="none" stroke="#111" stroke-width="1.2" points="70.00,63.72 92.13,61.87 95.20,59.03 135.44,63.93 139.02,62.30 180.14,59.68 183.26,56.83 198.91,57.21 223.50,54.82 248.84,51.94 248.95,50.93 268.18,48.02 290.99,49.03 309.91,54.03 325.48,51.14 466.51,56.11 554.37,53.24 554.41,51.02 554.61,48.12 840.46,45.21 840.57,50.24 840.75,55.23 853.82,52.60 882.18,49.96 906.04,47.34 922.07,46.49 928.74,43.84 932.02,48.90 948.23,46.01 969.54,51.03 969.64,56.01 969.68,54.34 972.36,59.29 976.04,57.77 988.11,57.48 1010.51,57.31 1014.26,54.46 1014.42,56.25 1019.95,61.18 1027.60,58.63 1032.76,56.82 1038.70,53.96 1038.85,54.89 1038.89,53.06 1051.50,50.69 1064.17,48.55 1075.99,45.67 1080.30,42.75 1085.28,47.81 1098.67,45.33 1126.78,42.61 1126.85,40.75 1126.97,38.90 1130.11,36.92 1142.77,36.02 1148.97,33.34 1164.08,32.54 1164.34,30.22 1168.00,29.88 1168.43,27.10 1170.00,25.00"/>
<text x="620.0" y="588" text-anchor="middle" font-family="sans-serif" font-size="12" fill="#333">UTC time</text>
<text x="15" y="287.5" transform="rotate(-90 15,287.5)" text-anchor="middle" font-family="sans-serif" font-size="12" fill="#333">Capital</text>
</svg>