<svg xmlns="http://www.w3.org/2000/svg" width="1200" height="600" viewBox="0 0 1200 600">
<desc>Equity curve with drawdown fill</desc>
<text x="600.0" y="18.0" text-anchor="middle" font-family="sans-serif" font-size="14">Portfolio 2002</text>
<rect x="70" y="25" width="1100" height="525" fill="white" stroke="#ccc" />
<line x1="70" y1="550.00" x2="1170" y2="550.00" stroke="#eee"/>
<text x="62" y="554.0" text-anchor="end" font-family="sans-serif" font-size="11" fill="#555">0.00</text>
<line x1="70" y1="445.00" x2="1170" y2="445.00" stroke="#eee"/>
<text x="62" y="449.0" text-anchor="end" font-family="sans-serif" font-size="11" fill="#555">20239</text>
<line x1="70" y1="340.00" x2="1170" y2="340.00" stroke="#eee"/>
<text x="62" y="344.0" text-anchor="end" font-family="sans-serif" font-size="11" fill="#555">40477</text>
<line x1="70" y1="235.00" x2="1170" y2="235.00" stroke="#eee"/>
<text x="62" y="239.0" text-anchor="end" font-family="sans-serif" font-size="11" fill="#555">60716</text>
<line x1="70" y1="130.00" x2="1170" y2="130.00" stroke="#eee"/>
<text x="62" y="134.0" text-anchor="end" font-family="sans-serif" font-size="11" fill="#555">80955</text>
<line x1="70" y1="25.00" x2="1170" y2="25.00" stroke="#eee"/>
<text x="62" y="29.0" text-anchor="end" font-family="sans-serif" font-size="11" fill="#555">101193</text>
<line x1="159.96" y1="25" x2="159.96" y2="550" stroke="#f2f2f2"/>
<text x="159.96" y="566" text-anchor="middle" font-family="sans-serif" font-size="11" fill="#555">Feb</text>
<line x1="246.79" y1="25" x2="246.79" y2="550" stroke="#f2f2f2"/>
<text x="246.79" y="566" text-anchor="middle" font-family="sans-serif" font-size="11" fill="#555">Mar</text>
<line x1="342.92" y1="25" x2="342.92" y2="550" stroke="#f2f2f2"/>
<text x="342.92" y="566" text-anchor="middle" font-family="sans-serif" font-size="11" fill="#555">Apr</text>
<line x1="435.95" y1="25" x2="435.95" y2="550" stroke="#f2f2f2"/>
<text x="435.95" y="566" text-anchor="middle" font-family="sans-serif" font-size="11" fill="#555">May</text>
<line x1="532.07" y1="25" x2="532.07" y2="550" stroke="#f2f2f2"/>
<text x="532.07" y="566" text-anchor="middle" font-family="sans-serif" font-size="11" fill="#555">Jun</text>
<line x1="625.10" y1="25" x2="625.10" y2="550" stroke="#f2f2f2"/>
<text x="625.10" y="566" text-anchor="middle" font-family="sans-serif" font-size="11" fill="#555">Jul</text>
<line x1="721.23" y1="25" x2="721.23" y2="550" stroke="#f2f2f2"/>
<text x="721.23" y="566" text-anchor="middle" font-family="sans-serif" font-size="11" fill="#555">Aug</text>
<line x1="817.36" y1="25" x2="817.36" y2="550" stroke="#f2f2f2"/>
<text x="817.36" y="566" text-anchor="middle" font-family="sans-serif" font-size="11" fill="#555">Sep</text>
<line x1="910.39" y1="25" x2="910.39" y2="550" stroke="#f2f2f2"/>
<text x="910.39" y="566" text-anchor="middle" font-family="sans-serif" font-size="11" fill="#555">Oct</text>
<line x1="1006.52" y1="25" x2="1006.52" y2="550" stroke="#f2f2f2"/>
<text x="1006.52" y="566" text-anchor="middle" font-family="sans-serif" font-size="11" fill="#555">Nov</text>
<line x1="1099.55" y1="25" x2="1099.55" y2="550" stroke="#f2f2f2"/>
<text x="1099.55" y="566" text-anchor="middle" font-family="sans-serif" font-size="11" fill="#555">Dec</text>
<line x1="70" y1="550" x2="1170" y2="550" stroke="#888"/>
<line x1="70" y1="25" x2="70" y2="550" stroke="#888"/>
<path d="M 82.67 26.49 L 83.92 26.49 L 84.07 26.49 L 84.12 26.49 L 86.44 26.49 L 88.60 26.49 L 88.60 29.37 L 86.44 34.04 L 84.12 38.67 L 84.07 40.37 L 83.92 40.83 L 82.67 33.09 Z" fill="#d0d0d0" fill-opacity="0.5" stroke="none"/>
<path d="M 109.60 25.38 L 113.41 25.38 L 134.39 25.38 L 147.61 25.38 L 147.83 25.38 L 155.60 25.38 L 157.44 25.38 L 171.56 25.38 L 171.56 28.31 L 157.44 29.26 L 155.60 33.93 L 147.83 36.88 L 147.61 33.45 L 134.39 36.37 L 113.41 28.56 L 109.60 33.25 Z" fill="#d0d0d0" fill-opacity="0.5" stroke="none"/>
<path d="M 213.02 25.00 L 213.08 25.00 L 217.88 25.00 L 226.77 25.00 L 239.76 25.00 L 239.83 25.00 L 258.29 25.00 L 264.31 25.00 L 299.58 25.00 L 307.74 25.00 L 321.42 25.00 L 326.17 25.00 L 393.76 25.00 L 430.14 25.00 L 438.01 25.00 L 438.09 25.00 L 438.22 25.00 L 451.61 25.00 L 451.75 25.00 L 459.90 25.00 L 473.43 25.00 L 478.13 25.00 L 481.22 25.00 L 495.10 25.00 L 501.74 25.00 L 520.89 25.00 L 525.14 25.00 L 538.54 25.00 L 540.31 25.00 L 560.17 25.00 L 603.64 25.00 L 603.76 25.00 L 604.57 25.00 L 604.62 25.00 L 605.91 25.00 L 608.95 25.00 L 608.97 25.00 L 609.68 25.00 L 610.60 25.00 L 612.11 25.00 L 625.26 25.00 L 629.06 25.00 L 632.47 25.00 L 647.18 25.00 L 648.89 25.00 L 654.11 25.00 L 654.85 25.00 L 654.99 25.00 L 668.69 25.00 L 670.15 25.00 L 672.92 25.00 L 672.96 25.00 L 673.10 25.00 L 676.31 25.00 L 676.99 25.00 L 690.69 25.00 L 693.47 25.00 L 693.63 25.00 L 693.77 25.00 L 694.48 25.00 L 694.62 25.00 L 695.85 25.00 L 698.24 25.00 L 698.28 25.00 L 700.11 25.00 L 712.02 25.00 L 712.23 25.00 L 713.50 25.00 L 716.99 25.00 L 720.23 25.00 L 722.27 25.00 L 723.20 25.00 L 723.35 25.00 L 723.35 25.00 L 726.21 25.00 L 737.90 25.00 L 738.06 25.00 L 738.13 25.00 L 738.88 25.00 L 742.07 25.00 L 744.08 25.00 L 745.13 25.00 L 747.44 25.00 L 757.09 25.00 L 764.02 25.00 L 766.90 25.00 L 769.63 25.00 L 782.03 25.00 L 788.40 25.00 L 803.93 25.00 L 809.18 25.00 L 824.96 25.00 L 825.64 25.00 L 831.80 25.00 L 834.61 25.00 L 834.79 25.00 L 846.43 25.00 L 853.83 25.00 L 856.74 25.00 L 856.90 25.00 L 856.98 25.00 L 868.29 25.00 L 869.03 25.00 L 871.05 25.00 L 878.33 25.00 L 886.81 25.00 L 887.88 25.00 L 887.94 25.00 L 890.47 25.00 L 893.37 25.00 L 896.88 25.00 L 921.58 25.00 L 922.06 25.00 L 937.18 25.00 L 955.08 25.00 L 996.09 25.00 L 996.27 25.00 L 996.33 25.00 L 1020.10 25.00 L 1027.28 25.00 L 1045.67 25.00 L 1064.62 25.00 L 1064.75 25.00 L 1064.87 25.00 L 1073.87 25.00 L 1104.84 25.00 L 1116.87 25.00 L 1116.91 25.00 L 1135.88 25.00 L 1137.94 25.00 L 1139.09 25.00 L 1149.63 25.00 L 1151.37 25.00 L 1170.00 25.00 L 1170.00 146.10 L 1151.37 144.76 L 1149.63 145.49 L 1139.09 139.51 L 1137.94 142.58 L 1135.88 141.72 L 1116.91 143.41 L 1116.87 137.40 L 1104.84 131.26 L 1073.87 130.00 L 1064.87 131.14 L 1064.75 129.50 L 1064.62 128.30 L 1045.67 121.98 L 1027.28 125.72 L 1020.10 119.35 L 996.33 119.04 L 996.27 119.85 L 996.09 117.39 L 955.08 110.87 L 937.18 113.44 L 922.06 115.87 L 921.58 118.18 L 896.88 118.03 L 893.37 119.54 L 890.47 122.05 L 887.94 121.54 L 887.88 123.64 L 886.81 117.24 L 878.33 119.87 L 871.05 123.43 L 869.03 125.95 L 868.29 125.68 L 856.98 127.88 L 856.90 127.62 L 856.74 126.65 L 853.83 120.31 L 846.43 121.18 L 834.79 114.75 L 834.61 116.70 L 831.80 120.33 L 825.64 121.93 L 824.96 122.30 L 809.18 122.67 L 803.93 125.91 L 788.40 125.80 L 782.03 129.01 L 769.63 131.44 L 766.90 132.71 L 764.02 134.32 L 757.09 137.09 L 747.44 136.65 L 745.13 138.24 L 744.08 140.35 L 742.07 141.72 L 738.88 143.50 L 738.13 145.43 L 738.06 145.66 L 737.90 139.70 L 726.21 133.62 L 723.35 136.50 L 723.35 130.47 L 723.20 124.20 L 722.27 117.83 L 720.23 120.48 L 716.99 123.34 L 713.50 126.20 L 712.23 122.82 L 712.02 116.42 L 700.11 109.90 L 698.28 112.47 L 698.24 115.19 L 695.85 108.65 L 694.62 101.99 L 694.48 103.18 L 693.77 96.42 L 693.63 99.26 L 693.47 102.43 L 690.69 105.86 L 676.99 105.78 L 676.31 108.77 L 673.10 112.07 L 672.96 115.26 L 672.92 118.40 L 670.15 111.92 L 668.69 105.33 L 654.99 102.77 L 654.85 106.17 L 654.11 103.66 L 648.89 103.22 L 647.18 106.33 L 632.47 99.63 L 629.06 99.97 L 625.26 100.45 L 612.11 98.43 L 610.60 102.00 L 609.68 95.23 L 608.97 88.35 L 608.95 92.06 L 605.91 85.13 L 604.62 78.08 L 604.57 80.60 L 603.76 73.47 L 603.64 69.62 L 560.17 63.39 L 540.31 62.82 L 538.54 55.41 L 525.14 55.69 L 520.89 59.15 L 501.74 61.30 L 495.10 60.11 L 481.22 55.42 L 478.13 58.86 L 473.43 58.70 L 459.90 52.73 L 451.75 52.42 L 451.61 51.19 L 438.22 51.10 L 438.09 51.81 L 438.01 53.52 L 430.14 45.96 L 393.76 44.44 L 326.17 45.94 L 321.42 38.27 L 307.74 32.29 L 299.58 32.35 L 264.31 33.95 L 258.29 37.42 L 239.83 35.57 L 239.76 37.95 L 226.77 30.16 L 217.88 33.10 L 213.08 25.23 L 213.02 26.73 Z" fill="#d0d0d0" fill-opacity="0.5" stroke="none"/>
<polyline fill="none" stroke="#111" stroke-width="1.2" points="70.00,26.49 82.67,33.09 83.92,40.83 84.07,40.37 84.12,38.67 86.44,34.04 88.60,29.37 90.58,25.38 109.60,33.25 113.41,28.56 134.39,36.37 147.61,33.45 147.83,36.88 155.60,33.93 157.44,29.26 171.56,28.31 177.54,25.00 213.02,26.73 213.08,25.23 217.88,33.10 226.77,30.16 239.76,37.95 239.83,35.57 258.29,37.42 264.31,33.95 299.58,32.35 307.74,32.29 321.42,38.27 326.17,45.94 393.76,44.44 430.14,45.96 438.01,53.52 438.09,51.81 438.22,51.10 451.61,51.19 451.75,52.42 459.90,52.73 473.43,58.70 478.13,58.86 481.22,55.42 495.10,60.11 501.74,61.30 520.89,59.15 525.14,55.69 538.54,55.41 540.31,62.82 560.17,63.39 603.64,69.62 603.76,73.47 604.57,80.60 604.62,78.08 605.91,85.13 608.95,92.06 608.97,88.35 609.68,95.23 610.60,102.00 612.11,98.43 625.26,100.45 629.06,99.97 632.47,99.63 647.18,106.33 648.89,103.22 654.11,103.66 654.85,106.17 654.99,102.77 668.69,105.33 670.15,111.92 672.92,118.40 672.96,115.26 673.10,112.07 676.31,108.77 676.99,105.78 690.69,105.86 693.47,102.43 693.63,99.26 693.77,96.42 694.48,103.18 694.62,101.99 695.85,108.65 698.24,115.19 698.28,112.47 700.11,109.90 712.02,116.42 712.23,122.82 713.50,126.20 716.99,123.34 720.23,120.48 722.27,117.83 723.20,124.20 723.35,130.47 723.35,136.50 726.21,133.62 737.90,139.70 738.06,145.66 738.13,145.43 738.88,143.50 742.07,141.72 744.08,140.35 745.13,138.24 747.44,136.65 757.09,137.09 764.02,134.32 766.90,132.71 769.63,131.44 782.03,129.01 788.40,125.80 803.93,125.91 809.18,122.67 824.96,122.30 825.64,121.93 831.80,120.33 834.61,116.70 834.79,114.75 846.43,121.18 853.83,120.31 856.74,126.65 856.90,127.62 856.98,127.88 868.29,125.68 869.03,125.95 871.05,123.43 878.33,119.87 886.81,117.24 887.88,123.64 887.94,121.54 890.47,122.05 893.37,119.54 896.88,118.03 921.58,118.18 922.06,115.87 937.18,113.44 955.08,110.87 996.09,117.39 996.27,119.85 996.33,119.04 1020.10,119.35 1027.28,125.72 1045.67,121.98 1064.62,128.30 1064.75,129.50 1064.87,131.14 1073.87,130.00 1104.84,131.26 1116.87,137.40 1116.91,143.41 1135.88,141.72 1137.94,142.58 1139.09,139.51 1149.63,145.49 1151.37,144.76 1170.00,146.10"/>
<text x="620.0" y="588" text-anchor="middle" font-family="sans-serif" font-size="12" fill="#333">UTC time</text>
<text x="15" y="287.5" transform="rotate(-90 15,287.5)" text-anchor="middle" font-family="sans-serif" font-size="12" fill="#333">Capital</text>
</svg>