<svg xmlns="http://www.w3.org/2000/svg" width="1200" height="600" viewBox="0 0 1200 600">
<desc>Equity curve with drawdown fill</desc>
<text x="600.0" y="18.0" text-anchor="middle" font-family="sans-serif" font-size="14">Portfolio 2004</text>
<rect x="70" y="25" width="1100" height="525" fill="white" stroke="#ccc" />
<line x1="70" y1="550.00" x2="1170" y2="550.00" stroke="#eee"/>
<text x="62" y="554.0" text-anchor="end" font-family="sans-serif" font-size="11" fill="#555">0.00</text>
<line x1="70" y1="445.00" x2="1170" y2="445.00" stroke="#eee"/>
<text x="62" y="449.0" text-anchor="end" font-family="sans-serif" font-size="11" fill="#555">21379</text>
<line x1="70" y1="340.00" x2="1170" y2="340.00" stroke="#eee"/>
<text x="62" y="344.0" text-anchor="end" font-family="sans-serif" font-size="11" fill="#555">42759</text>
<line x1="70" y1="235.00" x2="1170" y2="235.00" stroke="#eee"/>
<text x="62" y="239.0" text-anchor="end" font-family="sans-serif" font-size="11" fill="#555">64138</text>
<line x1="70" y1="130.00" x2="1170" y2="130.00" stroke="#eee"/>
<text x="62" y="134.0" text-anchor="end" font-family="sans-serif" font-size="11" fill="#555">85517</text>
<line x1="70" y1="25.00" x2="1170" y2="25.00" stroke="#eee"/>
<text x="62" y="29.0" text-anchor="end" font-family="sans-serif" font-size="11" fill="#555">106897</text>
<line x1="152.03" y1="25" x2="152.03" y2="550" stroke="#f2f2f2"/>
<text x="152.03" y="566" text-anchor="middle" font-family="sans-serif" font-size="11" fill="#555">Feb</text>
<line x1="240.23" y1="25" x2="240.23" y2="550" stroke="#f2f2f2"/>
<text x="240.23" y="566" text-anchor="middle" font-family="sans-serif" font-size="11" fill="#555">Mar</text>
<line x1="334.51" y1="25" x2="334.51" y2="550" stroke="#f2f2f2"/>
<text x="334.51" y="566" text-anchor="middle" font-family="sans-serif" font-size="11" fill="#555">Apr</text>
<line x1="425.75" y1="25" x2="425.75" y2="550" stroke="#f2f2f2"/>
<text x="425.75" y="566" text-anchor="middle" font-family="sans-serif" font-size="11" fill="#555">May</text>
<line x1="520.03" y1="25" x2="520.03" y2="550" stroke="#f2f2f2"/>
<text x="520.03" y="566" text-anchor="middle" font-family="sans-serif" font-size="11" fill="#555">Jun</text>
<line x1="611.27" y1="25" x2="611.27" y2="550" stroke="#f2f2f2"/>
<text x="611.27" y="566" text-anchor="middle" font-family="sans-serif" font-size="11" fill="#555">Jul</text>
<line x1="705.55" y1="25" x2="705.55" y2="550" stroke="#f2f2f2"/>
<text x="705.55" y="566" text-anchor="middle" font-family="sans-serif" font-size="11" fill="#555">Aug</text>
<line x1="799.84" y1="25" x2="799.84" y2="550" stroke="#f2f2f2"/>
<text x="799.84" y="566" text-anchor="middle" font-family="sans-serif" font-size="11" fill="#555">Sep</text>
<line x1="891.08" y1="25" x2="891.08" y2="550" stroke="#f2f2f2"/>
<text x="891.08" y="566" text-anchor="middle" font-family="sans-serif" font-size="11" fill="#555">Oct</text>
<line x1="985.36" y1="25" x2="985.36" y2="550" stroke="#f2f2f2"/>
<text x="985.36" y="566" text-anchor="middle" font-family="sans-serif" font-size="11" fill="#555">Nov</text>
<line x1="1076.60" y1="25" x2="1076.60" y2="550" stroke="#f2f2f2"/>
<text x="1076.60" y="566" text-anchor="middle" font-family="sans-serif" font-size="11" fill="#555">Dec</text>
<line x1="1170.00" y1="25" x2="1170.00" y2="550" stroke="#f2f2f2"/>
<text x="1170.00" y="566" text-anchor="middle" font-family="sans-serif" font-size="11" fill="#555">Jan</text>
<line x1="70" y1="550" x2="1170" y2="550" stroke="#888"/>
<line x1="70" y1="25" x2="70" y2="550" stroke="#888"/>
<path d="M 80.91 49.98 L 83.99 49.98 L 92.88 49.98 L 98.46 49.98 L 99.46 49.98 L 105.20 49.98 L 105.35 49.98 L 113.71 49.98 L 116.65 49.98 L 117.05 49.98 L 117.68 49.98 L 119.21 49.98 L 119.75 49.98 L 122.99 49.98 L 126.33 49.98 L 126.69 49.98 L 126.82 49.98 L 134.16 49.98 L 135.58 49.98 L 136.28 49.98 L 138.65 49.98 L 138.73 49.98 L 138.90 49.98 L 140.39 49.98 L 140.72 49.98 L 141.56 49.98 L 141.56 52.78 L 140.72 56.71 L 140.39 61.12 L 138.90 65.49 L 138.73 58.12 L 138.65 62.57 L 136.28 62.59 L 135.58 55.18 L 134.16 59.60 L 126.82 63.98 L 126.69 56.58 L 126.33 60.85 L 122.99 60.67 L 119.75 53.23 L 119.21 54.14 L 117.68 58.43 L 117.05 59.53 L 116.65 62.45 L 113.71 55.04 L 105.35 58.19 L 105.20 50.71 L 99.46 55.02 L 98.46 57.19 L 92.88 56.52 L 83.99 59.56 L 80.91 57.48 Z" fill="#d0d0d0" fill-opacity="0.5" stroke="none"/>
<path d="M 144.92 32.45 L 144.98 32.45 L 145.09 32.45 L 145.09 32.98 L 144.98 37.44 L 144.92 40.20 Z" fill="#d0d0d0" fill-opacity="0.5" stroke="none"/>
<path d="M 159.13 25.21 L 166.66 25.21 L 169.17 25.21 L 169.20 25.21 L 169.28 25.21 L 176.30 25.21 L 178.45 25.21 L 184.49 25.21 L 184.55 25.21 L 184.62 25.21 L 184.66 25.21 L 190.24 25.21 L 190.48 25.21 L 190.68 25.21 L 201.74 25.21 L 204.58 25.21 L 205.34 25.21 L 205.84 25.21 L 206.21 25.21 L 208.57 25.21 L 209.79 25.21 L 209.79 25.71 L 208.57 29.38 L 206.21 33.12 L 205.84 35.66 L 205.34 40.08 L 204.58 42.92 L 201.74 47.31 L 190.68 47.23 L 190.48 48.90 L 190.24 52.95 L 184.66 57.25 L 184.62 60.14 L 184.55 52.79 L 184.49 45.22 L 178.45 37.54 L 176.30 40.60 L 169.28 41.71 L 169.20 41.96 L 169.17 34.23 L 166.66 30.87 L 159.13 33.07 Z" fill="#d0d0d0" fill-opacity="0.5" stroke="none"/>
<path d="M 211.80 25.00 L 211.86 25.00 L 212.09 25.00 L 218.97 25.00 L 224.02 25.00 L 226.99 25.00 L 227.21 25.00 L 227.28 25.00 L 229.19 25.00 L 229.81 25.00 L 233.01 25.00 L 233.44 25.00 L 245.29 25.00 L 245.30 25.00 L 245.37 25.00 L 245.45 25.00 L 245.61 25.00 L 247.70 25.00 L 248.41 25.00 L 248.44 25.00 L 248.79 25.00 L 251.45 25.00 L 254.29 25.00 L 254.30 25.00 L 254.38 25.00 L 254.48 25.00 L 263.91 25.00 L 265.97 25.00 L 266.77 25.00 L 269.34 25.00 L 275.73 25.00 L 283.99 25.00 L 284.82 25.00 L 285.08 25.00 L 289.96 25.00 L 293.84 25.00 L 294.04 25.00 L 294.18 25.00 L 297.07 25.00 L 305.56 25.00 L 311.60 25.00 L 312.57 25.00 L 317.21 25.00 L 317.57 25.00 L 318.34 25.00 L 333.37 25.00 L 339.26 25.00 L 339.39 25.00 L 339.57 25.00 L 348.58 25.00 L 350.77 25.00 L 354.80 25.00 L 357.49 25.00 L 372.05 25.00 L 372.72 25.00 L 378.55 25.00 L 382.01 25.00 L 395.27 25.00 L 397.30 25.00 L 398.38 25.00 L 403.15 25.00 L 414.63 25.00 L 418.64 25.00 L 421.38 25.00 L 421.55 25.00 L 421.60 25.00 L 421.68 25.00 L 424.52 25.00 L 436.13 25.00 L 445.71 25.00 L 445.71 25.00 L 445.84 25.00 L 446.01 25.00 L 446.02 25.00 L 457.76 25.00 L 461.06 25.00 L 463.22 25.00 L 464.44 25.00 L 467.07 25.00 L 467.18 25.00 L 474.87 25.00 L 481.53 25.00 L 484.50 25.00 L 487.89 25.00 L 506.63 25.00 L 506.72 25.00 L 506.78 25.00 L 525.38 25.00 L 530.87 25.00 L 530.90 25.00 L 546.00 25.00 L 551.22 25.00 L 561.38 25.00 L 564.36 25.00 L 564.85 25.00 L 567.18 25.00 L 567.79 25.00 L 573.52 25.00 L 588.52 25.00 L 591.23 25.00 L 591.73 25.00 L 603.87 25.00 L 616.03 25.00 L 616.15 25.00 L 616.25 25.00 L 630.46 25.00 L 649.58 25.00 L 658.78 25.00 L 658.83 25.00 L 674.19 25.00 L 680.25 25.00 L 692.28 25.00 L 692.40 25.00 L 692.45 25.00 L 694.72 25.00 L 698.45 25.00 L 701.27 25.00 L 716.70 25.00 L 722.61 25.00 L 722.77 25.00 L 743.76 25.00 L 743.85 25.00 L 743.92 25.00 L 755.93 25.00 L 765.04 25.00 L 774.97 25.00 L 786.53 25.00 L 807.94 25.00 L 823.13 25.00 L 823.22 25.00 L 823.26 25.00 L 823.39 25.00 L 828.98 25.00 L 841.15 25.00 L 844.26 25.00 L 862.19 25.00 L 863.11 25.00 L 865.32 25.00 L 871.54 25.00 L 871.86 25.00 L 889.75 25.00 L 901.84 25.00 L 914.29 25.00 L 929.39 25.00 L 929.95 25.00 L 930.03 25.00 L 932.34 25.00 L 935.39 25.00 L 950.11 25.00 L 972.34 25.00 L 974.67 25.00 L 975.04 25.00 L 991.74 25.00 L 999.38 25.00 L 1014.15 25.00 L 1014.67 25.00 L 1014.70 25.00 L 1053.79 25.00 L 1062.47 25.00 L 1062.61 25.00 L 1081.63 25.00 L 1085.09 25.00 L 1098.52 25.00 L 1099.00 25.00 L 1099.63 25.00 L 1099.66 25.00 L 1103.37 25.00 L 1105.33 25.00 L 1124.04 25.00 L 1124.11 25.00 L 1124.21 25.00 L 1157.89 25.00 L 1169.96 25.00 L 1170.00 25.00 L 1170.00 115.16 L 1169.96 117.93 L 1157.89 111.35 L 1124.21 104.66 L 1124.11 106.82 L 1124.04 108.60 L 1105.33 101.86 L 1103.37 95.02 L 1099.66 97.16 L 1099.63 100.53 L 1099.00 93.66 L 1098.52 96.58 L 1085.09 99.72 L 1081.63 98.56 L 1062.61 102.14 L 1062.47 105.61 L 1053.79 109.60 L 1014.70 107.70 L 1014.67 110.62 L 1014.15 103.92 L 999.38 106.23 L 991.74 110.04 L 975.04 113.81 L 974.67 116.24 L 972.34 109.63 L 950.11 102.92 L 935.39 102.85 L 932.34 106.72 L 930.03 110.20 L 929.95 111.77 L 929.39 115.54 L 914.29 116.26 L 901.84 115.98 L 889.75 115.03 L 871.86 108.42 L 871.54 111.50 L 865.32 113.64 L 863.11 116.24 L 862.19 119.98 L 844.26 120.39 L 841.15 124.08 L 828.98 126.93 L 823.39 120.52 L 823.26 119.43 L 823.22 112.99 L 823.13 106.35 L 807.94 99.59 L 786.53 92.71 L 774.97 96.29 L 765.04 97.85 L 755.93 100.88 L 743.92 104.73 L 743.85 97.93 L 743.76 91.04 L 722.77 95.00 L 722.61 88.05 L 716.70 81.00 L 701.27 84.27 L 698.45 85.78 L 694.72 89.07 L 692.45 92.28 L 692.40 85.30 L 692.28 85.12 L 680.25 78.01 L 674.19 80.17 L 658.83 78.50 L 658.78 81.09 L 649.58 73.92 L 630.46 75.31 L 616.25 76.44 L 616.15 76.19 L 616.03 69.06 L 603.87 73.37 L 591.73 75.78 L 591.23 79.20 L 588.52 80.82 L 573.52 82.48 L 567.79 83.28 L 567.18 80.83 L 564.85 73.66 L 564.36 73.88 L 561.38 66.60 L 551.22 67.44 L 546.00 71.21 L 530.90 72.07 L 530.87 76.21 L 525.38 80.30 L 506.78 80.27 L 506.72 83.85 L 506.63 84.75 L 487.89 77.64 L 484.50 81.01 L 481.53 83.81 L 474.87 87.40 L 467.18 89.02 L 467.07 81.99 L 464.44 84.24 L 463.22 87.53 L 461.06 88.62 L 457.76 88.35 L 446.02 91.46 L 446.01 84.47 L 445.84 77.38 L 445.71 70.28 L 445.71 74.57 L 436.13 78.69 L 424.52 71.49 L 421.68 74.92 L 421.60 75.99 L 421.55 68.87 L 421.38 61.55 L 418.64 65.76 L 414.63 67.29 L 403.15 69.59 L 398.38 73.37 L 397.30 77.14 L 395.27 69.92 L 382.01 71.62 L 378.55 75.75 L 372.72 78.66 L 372.05 82.73 L 357.49 75.60 L 354.80 75.84 L 350.77 68.61 L 348.58 72.02 L 339.57 76.15 L 339.39 68.92 L 339.26 61.69 L 333.37 66.13 L 318.34 58.74 L 317.57 58.00 L 317.21 61.58 L 312.57 65.43 L 311.60 69.25 L 305.56 71.55 L 297.07 70.71 L 294.18 63.41 L 294.04 62.72 L 293.84 62.85 L 289.96 55.42 L 285.08 58.88 L 284.82 63.13 L 283.99 65.95 L 275.73 69.36 L 269.34 72.04 L 266.77 76.18 L 265.97 78.05 L 263.91 75.68 L 254.48 79.74 L 254.38 80.53 L 254.30 81.46 L 254.29 74.42 L 251.45 67.20 L 248.79 71.02 L 248.44 73.49 L 248.41 77.15 L 247.70 69.94 L 245.61 71.77 L 245.45 72.75 L 245.37 65.49 L 245.30 67.99 L 245.29 60.65 L 233.44 53.18 L 233.01 56.68 L 229.81 49.17 L 229.19 53.21 L 227.28 56.64 L 227.21 56.89 L 226.99 49.39 L 224.02 41.77 L 218.97 34.04 L 212.09 38.10 L 211.86 30.32 L 211.80 32.86 Z" fill="#d0d0d0" fill-opacity="0.5" stroke="none"/>
<polyline fill="none" stroke="#111" stroke-width="1.2" points="70.00,57.33 77.16,56.03 80.66,53.57 80.77,49.98 80.91,57.48 83.99,59.56 92.88,56.52 98.46,57.19 99.46,55.02 105.20,50.71 105.35,58.19 113.71,55.04 116.65,62.45 117.05,59.53 117.68,58.43 119.21,54.14 119.75,53.23 122.99,60.67 126.33,60.85 126.69,56.58 126.82,63.98 134.16,59.60 135.58,55.18 136.28,62.59 138.65,62.57 138.73,58.12 138.90,65.49 140.39,61.12 140.72,56.71 141.56,52.78 141.58,48.30 142.39,45.93 142.82,43.67 144.62,39.27 144.68,36.91 144.87,32.45 144.92,40.20 144.98,37.44 145.09,32.98 147.74,28.95 148.03,25.21 159.13,33.07 166.66,30.87 169.17,34.23 169.20,41.96 169.28,41.71 176.30,40.60 178.45,37.54 184.49,45.22 184.55,52.79 184.62,60.14 184.66,57.25 190.24,52.95 190.48,48.90 190.68,47.23 201.74,47.31 204.58,42.92 205.34,40.08 205.84,35.66 206.21,33.12 208.57,29.38 209.79,25.71 210.89,25.00 211.80,32.86 211.86,30.32 212.09,38.10 218.97,34.04 224.02,41.77 226.99,49.39 227.21,56.89 227.28,56.64 229.19,53.21 229.81,49.17 233.01,56.68 233.44,53.18 245.29,60.65 245.30,67.99 245.37,65.49 245.45,72.75 245.61,71.77 247.70,69.94 248.41,77.15 248.44,73.49 248.79,71.02 251.45,67.20 254.29,74.42 254.30,81.46 254.38,80.53 254.48,79.74 263.91,75.68 265.97,78.05 266.77,76.18 269.34,72.04 275.73,69.36 283.99,65.95 284.82,63.13 285.08,58.88 289.96,55.42 293.84,62.85 294.04,62.72 294.18,63.41 297.07,70.71 305.56,71.55 311.60,69.25 312.57,65.43 317.21,61.58 317.57,58.00 318.34,58.74 333.37,66.13 339.26,61.69 339.39,68.92 339.57,76.15 348.58,72.02 350.77,68.61 354.80,75.84 357.49,75.60 372.05,82.73 372.72,78.66 378.55,75.75 382.01,71.62 395.27,69.92 397.30,77.14 398.38,73.37 403.15,69.59 414.63,67.29 418.64,65.76 421.38,61.55 421.55,68.87 421.60,75.99 421.68,74.92 424.52,71.49 436.13,78.69 445.71,74.57 445.71,70.28 445.84,77.38 446.01,84.47 446.02,91.46 457.76,88.35 461.06,88.62 463.22,87.53 464.44,84.24 467.07,81.99 467.18,89.02 474.87,87.40 481.53,83.81 484.50,81.01 487.89,77.64 506.63,84.75 506.72,83.85 506.78,80.27 525.38,80.30 530.87,76.21 530.90,72.07 546.00,71.21 551.22,67.44 561.38,66.60 564.36,73.88 564.85,73.66 567.18,80.83 567.79,83.28 573.52,82.48 588.52,80.82 591.23,79.20 591.73,75.78 603.87,73.37 616.03,69.06 616.15,76.19 616.25,76.44 630.46,75.31 649.58,73.92 658.78,81.09 658.83,78.50 674.19,80.17 680.25,78.01 692.28,85.12 692.40,85.30 692.45,92.28 694.72,89.07 698.45,85.78 701.27,84.27 716.70,81.00 722.61,88.05 722.77,95.00 743.76,91.04 743.85,97.93 743.92,104.73 755.93,100.88 765.04,97.85 774.97,96.29 786.53,92.71 807.94,99.59 823.13,106.35 823.22,112.99 823.26,119.43 823.39,120.52 828.98,126.93 841.15,124.08 844.26,120.39 862.19,119.98 863.11,116.24 865.32,113.64 871.54,111.50 871.86,108.42 889.75,115.03 901.84,115.98 914.29,116.26 929.39,115.54 929.95,111.77 930.03,110.20 932.34,106.72 935.39,102.85 950.11,102.92 972.34,109.63 974.67,116.24 975.04,113.81 991.74,110.04 999.38,106.23 1014.15,103.92 1014.67,110.62 1014.70,107.70 1053.79,109.60 1062.47,105.61 1062.61,102.14 1081.63,98.56 1085.09,99.72 1098.52,96.58 1099.00,93.66 1099.63,100.53 1099.66,97.16 1103.37,95.02 1105.33,101.86 1124.04,108.60 1124.11,106.82 1124.21,104.66 1157.89,111.35 1169.96,117.93 1170.00,115.16"/>
<text x="620.0" y="588" text-anchor="middle" font-family="sans-serif" font-size="12" fill="#333">UTC time</text>
<text x="15" y="287.5" transform="rotate(-90 15,287.5)" text-anchor="middle" font-family="sans-serif" font-size="12" fill="#333">Capital</text>
</svg>