<svg xmlns="http://www.w3.org/2000/svg" width="1200" height="600" viewBox="0 0 1200 600">
<desc>Equity curve with drawdown fill</desc>
<text x="600.0" y="18.0" text-anchor="middle" font-family="sans-serif" font-size="14">Portfolio 2015</text>
<rect x="70" y="25" width="1100" height="525" fill="white" stroke="#ccc" />
<line x1="70" y1="550.00" x2="1170" y2="550.00" stroke="#eee"/>
<text x="62" y="554.0" text-anchor="end" font-family="sans-serif" font-size="11" fill="#555">0.00</text>
<line x1="70" y1="445.00" x2="1170" y2="445.00" stroke="#eee"/>
<text x="62" y="449.0" text-anchor="end" font-family="sans-serif" font-size="11" fill="#555">28525</text>
<line x1="70" y1="340.00" x2="1170" y2="340.00" stroke="#eee"/>
<text x="62" y="344.0" text-anchor="end" font-family="sans-serif" font-size="11" fill="#555">57050</text>
<line x1="70" y1="235.00" x2="1170" y2="235.00" stroke="#eee"/>
<text x="62" y="239.0" text-anchor="end" font-family="sans-serif" font-size="11" fill="#555">85575</text>
<line x1="70" y1="130.00" x2="1170" y2="130.00" stroke="#eee"/>
<text x="62" y="134.0" text-anchor="end" font-family="sans-serif" font-size="11" fill="#555">114100</text>
<line x1="70" y1="25.00" x2="1170" y2="25.00" stroke="#eee"/>
<text x="62" y="29.0" text-anchor="end" font-family="sans-serif" font-size="11" fill="#555">142625</text>
<line x1="125.38" y1="25" x2="125.38" y2="550" stroke="#f2f2f2"/>
<text x="125.38" y="566" text-anchor="middle" font-family="sans-serif" font-size="11" fill="#555">Feb</text>
<line x1="213.59" y1="25" x2="213.59" y2="550" stroke="#f2f2f2"/>
<text x="213.59" y="566" text-anchor="middle" font-family="sans-serif" font-size="11" fill="#555">Mar</text>
<line x1="311.26" y1="25" x2="311.26" y2="550" stroke="#f2f2f2"/>
<text x="311.26" y="566" text-anchor="middle" font-family="sans-serif" font-size="11" fill="#555">Apr</text>
<line x1="405.77" y1="25" x2="405.77" y2="550" stroke="#f2f2f2"/>
<text x="405.77" y="566" text-anchor="middle" font-family="sans-serif" font-size="11" fill="#555">May</text>
<line x1="503.43" y1="25" x2="503.43" y2="550" stroke="#f2f2f2"/>
<text x="503.43" y="566" text-anchor="middle" font-family="sans-serif" font-size="11" fill="#555">Jun</text>
<line x1="597.94" y1="25" x2="597.94" y2="550" stroke="#f2f2f2"/>
<text x="597.94" y="566" text-anchor="middle" font-family="sans-serif" font-size="11" fill="#555">Jul</text>
<line x1="695.60" y1="25" x2="695.60" y2="550" stroke="#f2f2f2"/>
<text x="695.60" y="566" text-anchor="middle" font-family="sans-serif" font-size="11" fill="#555">Aug</text>
<line x1="793.26" y1="25" x2="793.26" y2="550" stroke="#f2f2f2"/>
<text x="793.26" y="566" text-anchor="middle" font-family="sans-serif" font-size="11" fill="#555">Sep</text>
<line x1="887.77" y1="25" x2="887.77" y2="550" stroke="#f2f2f2"/>
<text x="887.77" y="566" text-anchor="middle" font-family="sans-serif" font-size="11" fill="#555">Oct</text>
<line x1="985.43" y1="25" x2="985.43" y2="550" stroke="#f2f2f2"/>
<text x="985.43" y="566" text-anchor="middle" font-family="sans-serif" font-size="11" fill="#555">Nov</text>
<line x1="1079.94" y1="25" x2="1079.94" y2="550" stroke="#f2f2f2"/>
<text x="1079.94" y="566" text-anchor="middle" font-family="sans-serif" font-size="11" fill="#555">Dec</text>
<line x1="70" y1="550" x2="1170" y2="550" stroke="#888"/>
<line x1="70" y1="25" x2="70" y2="550" stroke="#888"/>
<path d="M 70.49 180.94 L 70.54 180.94 L 73.08 180.94 L 73.08 181.15 L 70.54 183.26 L 70.49 184.63 Z" fill="#d0d0d0" fill-opacity="0.5" stroke="none"/>
<path d="M 73.93 173.01 L 73.94 173.01 L 73.94 174.80 L 73.93 176.78 Z" fill="#d0d0d0" fill-opacity="0.5" stroke="none"/>
<path d="M 95.96 164.07 L 96.00 164.07 L 96.13 164.07 L 96.19 164.07 L 98.20 164.07 L 98.22 164.07 L 98.35 164.07 L 98.41 164.07 L 98.60 164.07 L 98.64 164.07 L 98.65 164.07 L 98.89 164.07 L 106.43 164.07 L 107.54 164.07 L 110.78 164.07 L 110.83 164.07 L 111.42 164.07 L 111.53 164.07 L 111.69 164.07 L 133.49 164.07 L 133.56 164.07 L 133.70 164.07 L 137.96 164.07 L 139.03 164.07 L 139.43 164.07 L 140.43 164.07 L 143.18 164.07 L 152.33 164.07 L 155.36 164.07 L 162.01 164.07 L 175.00 164.07 L 177.39 164.07 L 181.43 164.07 L 187.26 164.07 L 187.55 164.07 L 205.96 164.07 L 206.13 164.07 L 206.14 164.07 L 206.20 164.07 L 209.23 164.07 L 225.01 164.07 L 227.99 164.07 L 228.07 164.07 L 228.45 164.07 L 230.58 164.07 L 231.12 164.07 L 231.30 164.07 L 231.35 164.07 L 243.28 164.07 L 243.90 164.07 L 243.90 165.86 L 243.28 167.74 L 231.35 168.75 L 231.30 170.31 L 231.12 166.48 L 230.58 168.75 L 228.45 170.73 L 228.07 172.47 L 227.99 174.09 L 225.01 176.06 L 209.23 178.20 L 206.20 179.73 L 206.14 180.57 L 206.13 176.83 L 205.96 173.07 L 187.55 169.27 L 187.26 171.53 L 181.43 173.70 L 177.39 175.85 L 175.00 176.67 L 162.01 178.35 L 155.36 179.84 L 152.33 181.85 L 143.18 182.57 L 140.43 181.57 L 139.43 182.56 L 139.03 184.16 L 137.96 186.09 L 133.70 186.38 L 133.56 186.43 L 133.49 187.17 L 111.69 183.50 L 111.53 179.80 L 111.42 181.60 L 110.83 183.54 L 110.78 185.31 L 107.54 181.63 L 106.43 183.53 L 98.89 179.83 L 98.65 181.67 L 98.64 183.88 L 98.60 180.20 L 98.41 176.46 L 98.35 177.52 L 98.22 173.76 L 98.20 175.81 L 96.19 172.04 L 96.13 172.65 L 96.00 171.70 L 95.96 167.92 Z" fill="#d0d0d0" fill-opacity="0.5" stroke="none"/>
<path d="M 249.32 160.69 L 249.38 160.69 L 249.51 160.69 L 249.51 162.00 L 249.38 163.22 L 249.32 164.57 Z" fill="#d0d0d0" fill-opacity="0.5" stroke="none"/>
<path d="M 253.38 159.78 L 253.39 159.78 L 253.39 161.39 L 253.38 163.67 Z" fill="#d0d0d0" fill-opacity="0.5" stroke="none"/>
<path d="M 262.81 157.98 L 269.48 157.98 L 269.48 159.67 L 262.81 161.90 Z" fill="#d0d0d0" fill-opacity="0.5" stroke="none"/>
<path d="M 270.49 156.23 L 270.89 156.23 L 271.40 156.23 L 271.47 156.23 L 271.57 156.23 L 271.70 156.23 L 271.96 156.23 L 271.96 156.72 L 271.70 158.96 L 271.57 160.85 L 271.47 162.56 L 271.40 163.67 L 270.89 159.77 L 270.49 160.16 Z" fill="#d0d0d0" fill-opacity="0.5" stroke="none"/>
<path d="M 275.42 148.89 L 275.44 148.89 L 275.77 148.89 L 275.89 148.89 L 284.29 148.89 L 284.47 148.89 L 284.66 148.89 L 287.35 148.89 L 287.35 150.34 L 284.66 150.65 L 284.47 150.21 L 284.29 151.77 L 275.89 153.89 L 275.77 155.04 L 275.44 151.06 L 275.42 152.89 Z" fill="#d0d0d0" fill-opacity="0.5" stroke="none"/>
<path d="M 296.66 140.82 L 297.34 140.82 L 297.76 140.82 L 297.76 141.10 L 297.34 143.43 L 296.66 144.89 Z" fill="#d0d0d0" fill-opacity="0.5" stroke="none"/>
<path d="M 319.63 125.01 L 331.40 125.01 L 331.50 125.01 L 335.32 125.01 L 335.84 125.01 L 338.51 125.01 L 340.74 125.01 L 350.50 125.01 L 350.91 125.01 L 350.91 125.97 L 350.50 128.37 L 340.74 129.75 L 338.51 130.72 L 335.84 126.52 L 335.32 128.49 L 331.50 130.43 L 331.40 131.20 L 319.63 127.00 Z" fill="#d0d0d0" fill-opacity="0.5" stroke="none"/>
<path d="M 354.05 124.12 L 354.18 124.12 L 354.29 124.12 L 356.69 124.12 L 357.22 124.12 L 357.30 124.12 L 357.74 124.12 L 357.74 125.13 L 357.30 127.53 L 357.22 129.35 L 356.69 131.73 L 354.29 131.57 L 354.18 132.53 L 354.05 128.34 Z" fill="#d0d0d0" fill-opacity="0.5" stroke="none"/>
<path d="M 360.05 119.97 L 360.12 119.97 L 360.12 122.21 L 360.05 124.23 Z" fill="#d0d0d0" fill-opacity="0.5" stroke="none"/>
<path d="M 361.04 119.79 L 362.99 119.79 L 363.47 119.79 L 375.40 119.79 L 375.40 120.26 L 363.47 120.12 L 362.99 122.34 L 361.04 124.05 Z" fill="#d0d0d0" fill-opacity="0.5" stroke="none"/>
<path d="M 384.74 114.14 L 384.85 114.14 L 384.98 114.14 L 384.98 114.82 L 384.85 116.71 L 384.74 118.45 Z" fill="#d0d0d0" fill-opacity="0.5" stroke="none"/>
<path d="M 401.26 110.01 L 401.41 110.01 L 401.48 110.01 L 401.67 110.01 L 401.74 110.01 L 401.96 110.01 L 402.01 110.01 L 403.76 110.01 L 403.79 110.01 L 403.87 110.01 L 404.44 110.01 L 404.73 110.01 L 407.80 110.01 L 416.45 110.01 L 417.11 110.01 L 420.21 110.01 L 420.47 110.01 L 420.47 110.88 L 420.21 112.19 L 417.11 114.16 L 416.45 115.30 L 407.80 116.78 L 404.73 118.56 L 404.44 120.84 L 403.87 123.04 L 403.79 123.91 L 403.76 119.66 L 402.01 115.37 L 401.96 117.76 L 401.74 120.19 L 401.67 120.76 L 401.48 116.47 L 401.41 112.16 L 401.26 114.35 Z" fill="#d0d0d0" fill-opacity="0.5" stroke="none"/>
<path d="M 423.47 108.39 L 423.62 108.39 L 426.44 108.39 L 429.59 108.39 L 429.61 108.39 L 429.88 108.39 L 438.34 108.39 L 441.56 108.39 L 445.52 108.39 L 447.78 108.39 L 448.83 108.39 L 451.88 108.39 L 451.98 108.39 L 452.10 108.39 L 460.47 108.39 L 461.33 108.39 L 461.33 108.80 L 460.47 109.68 L 452.10 111.73 L 451.98 112.43 L 451.88 112.91 L 448.83 108.56 L 447.78 111.05 L 445.52 112.75 L 441.56 108.40 L 438.34 109.53 L 429.88 111.41 L 429.61 113.76 L 429.59 116.22 L 426.44 118.68 L 423.62 114.37 L 423.47 112.75 Z" fill="#d0d0d0" fill-opacity="0.5" stroke="none"/>
<path d="M 463.53 106.73 L 463.59 106.73 L 463.68 106.73 L 463.74 106.73 L 464.30 106.73 L 466.66 106.73 L 468.12 106.73 L 469.93 106.73 L 473.85 106.73 L 473.92 106.73 L 474.05 106.73 L 485.63 106.73 L 489.56 106.73 L 489.70 106.73 L 489.87 106.73 L 492.48 106.73 L 505.47 106.73 L 507.71 106.73 L 508.07 106.73 L 508.45 106.73 L 508.63 106.73 L 510.83 106.73 L 511.08 106.73 L 511.58 106.73 L 511.71 106.73 L 511.77 106.73 L 511.90 106.73 L 512.00 106.73 L 514.10 106.73 L 514.15 106.73 L 514.35 106.73 L 514.75 106.73 L 514.78 106.73 L 515.21 106.73 L 515.38 106.73 L 516.08 106.73 L 517.10 106.73 L 517.98 106.73 L 526.51 106.73 L 527.31 106.73 L 528.98 106.73 L 529.74 106.73 L 530.47 106.73 L 532.90 106.73 L 533.42 106.73 L 533.70 106.73 L 533.91 106.73 L 536.10 106.73 L 539.37 106.73 L 539.41 106.73 L 539.84 106.73 L 551.79 106.73 L 552.46 106.73 L 552.46 107.87 L 551.79 109.59 L 539.84 111.21 L 539.41 113.69 L 539.37 115.58 L 536.10 118.04 L 533.91 120.49 L 533.70 122.93 L 533.42 124.98 L 532.90 126.92 L 530.47 122.68 L 529.74 124.39 L 528.98 126.59 L 527.31 129.00 L 526.51 129.25 L 517.98 131.64 L 517.10 133.05 L 516.08 135.03 L 515.38 136.50 L 515.21 138.67 L 514.78 141.02 L 514.75 142.91 L 514.35 138.81 L 514.15 134.68 L 514.10 130.51 L 512.00 126.31 L 511.90 125.19 L 511.77 123.89 L 511.71 119.67 L 511.58 115.36 L 511.08 117.65 L 510.83 119.60 L 508.63 121.50 L 508.45 117.22 L 508.07 112.91 L 507.71 115.38 L 505.47 116.56 L 492.48 118.67 L 489.87 120.49 L 489.70 122.72 L 489.56 124.89 L 485.63 124.36 L 474.05 125.55 L 473.92 125.32 L 473.85 126.30 L 469.93 122.06 L 468.12 124.47 L 466.66 126.89 L 464.30 122.65 L 463.74 118.38 L 463.68 119.73 L 463.59 115.43 L 463.53 111.10 Z" fill="#d0d0d0" fill-opacity="0.5" stroke="none"/>
<path d="M 573.25 95.19 L 574.61 95.19 L 580.44 95.19 L 584.35 95.19 L 591.55 95.19 L 591.74 95.19 L 592.62 95.19 L 592.79 95.19 L 593.71 95.19 L 593.71 97.54 L 592.79 99.86 L 592.62 101.59 L 591.74 104.21 L 591.55 99.78 L 584.35 101.28 L 580.44 102.27 L 574.61 104.09 L 573.25 99.66 Z" fill="#d0d0d0" fill-opacity="0.5" stroke="none"/>
<path d="M 596.89 93.18 L 599.29 93.18 L 599.29 95.26 L 596.89 97.66 Z" fill="#d0d0d0" fill-opacity="0.5" stroke="none"/>
<path d="M 618.17 90.05 L 618.17 90.10 Z" fill="#d0d0d0" fill-opacity="0.5" stroke="none"/>
<path d="M 627.76 76.90 L 627.76 77.19 Z" fill="#d0d0d0" fill-opacity="0.5" stroke="none"/>
<path d="M 636.93 74.77 L 636.98 74.77 L 644.00 74.77 L 663.01 74.77 L 668.48 74.77 L 668.48 76.93 L 663.01 76.36 L 644.00 78.17 L 636.98 77.58 L 636.93 79.41 Z" fill="#d0d0d0" fill-opacity="0.5" stroke="none"/>
<path d="M 707.65 62.66 L 707.65 63.26 Z" fill="#d0d0d0" fill-opacity="0.5" stroke="none"/>
<path d="M 716.29 60.55 L 716.56 60.55 L 716.56 62.59 L 716.29 65.29 Z" fill="#d0d0d0" fill-opacity="0.5" stroke="none"/>
<path d="M 728.31 59.88 L 731.53 59.88 L 754.87 59.88 L 757.52 59.88 L 760.83 59.88 L 768.43 59.88 L 768.64 59.88 L 769.73 59.88 L 769.87 59.88 L 769.92 59.88 L 770.46 59.88 L 772.75 59.88 L 772.78 59.88 L 773.33 59.88 L 776.07 59.88 L 776.13 59.88 L 776.40 59.88 L 778.82 59.88 L 779.43 59.88 L 779.61 59.88 L 782.83 59.88 L 782.83 61.83 L 779.61 64.54 L 779.43 66.98 L 778.82 66.54 L 776.40 68.63 L 776.13 71.31 L 776.07 74.09 L 773.33 71.56 L 772.78 66.86 L 772.75 69.17 L 770.46 64.46 L 769.92 65.63 L 769.87 60.89 L 769.73 63.46 L 768.64 65.97 L 768.43 66.45 L 760.83 67.31 L 757.52 62.58 L 754.87 64.82 L 731.53 64.43 L 728.31 64.63 Z" fill="#d0d0d0" fill-opacity="0.5" stroke="none"/>
<path d="M 801.35 57.92 L 801.40 57.92 L 801.54 57.92 L 805.08 57.92 L 816.04 57.92 L 823.74 57.92 L 827.06 57.92 L 842.61 57.92 L 846.16 57.92 L 848.87 57.92 L 858.47 57.92 L 880.58 57.92 L 892.92 57.92 L 892.98 57.92 L 893.40 57.92 L 905.65 57.92 L 910.97 57.92 L 911.63 57.92 L 911.63 57.98 L 910.97 58.85 L 905.65 60.55 L 893.40 62.80 L 892.98 63.29 L 892.92 65.13 L 880.58 64.60 L 858.47 63.97 L 848.87 63.39 L 846.16 65.32 L 842.61 68.02 L 827.06 67.01 L 823.74 66.02 L 816.04 68.71 L 805.08 69.44 L 801.54 72.12 L 801.40 67.42 L 801.35 62.69 Z" fill="#d0d0d0" fill-opacity="0.5" stroke="none"/>
<path d="M 933.79 55.35 L 933.79 55.87 Z" fill="#d0d0d0" fill-opacity="0.5" stroke="none"/>
<path d="M 955.92 50.49 L 956.02 50.49 L 958.82 50.49 L 975.32 50.49 L 975.53 50.49 L 981.16 50.49 L 981.16 51.85 L 975.53 53.72 L 975.32 51.18 L 958.82 54.04 L 956.02 56.78 L 955.92 51.97 Z" fill="#d0d0d0" fill-opacity="0.5" stroke="none"/>
<path d="M 1062.39 35.06 L 1063.28 35.06 L 1063.28 37.19 L 1062.39 40.00 Z" fill="#d0d0d0" fill-opacity="0.5" stroke="none"/>
<path d="M 1088.17 31.38 L 1088.32 31.38 L 1088.34 31.38 L 1088.41 31.38 L 1088.45 31.38 L 1088.58 31.38 L 1090.46 31.38 L 1091.16 31.38 L 1091.39 31.38 L 1091.73 31.38 L 1107.01 31.38 L 1107.54 31.38 L 1113.42 31.38 L 1113.42 31.55 L 1107.54 33.54 L 1107.01 35.88 L 1091.73 38.43 L 1091.39 40.19 L 1091.16 42.32 L 1090.46 45.12 L 1088.58 40.21 L 1088.45 42.15 L 1088.41 44.36 L 1088.34 39.45 L 1088.32 34.51 L 1088.17 31.95 Z" fill="#d0d0d0" fill-opacity="0.5" stroke="none"/>
<polyline fill="none" stroke="#111" stroke-width="1.2" points="70.00,180.94 70.49,184.63 70.54,183.26 73.08,181.15 73.09,178.93 73.22,176.80 73.72,174.85 73.79,173.01 73.93,176.78 73.94,174.80 76.91,172.85 77.07,171.33 85.74,170.07 92.64,169.50 92.67,167.23 95.68,164.94 95.80,164.07 95.96,167.92 96.00,171.70 96.13,172.65 96.19,172.04 98.20,175.81 98.22,173.76 98.35,177.52 98.41,176.46 98.60,180.20 98.64,183.88 98.65,181.67 98.89,179.83 106.43,183.53 107.54,181.63 110.78,185.31 110.83,183.54 111.42,181.60 111.53,179.80 111.69,183.50 133.49,187.17 133.56,186.43 133.70,186.38 137.96,186.09 139.03,184.16 139.43,182.56 140.43,181.57 143.18,182.57 152.33,181.85 155.36,179.84 162.01,178.35 175.00,176.67 177.39,175.85 181.43,173.70 187.26,171.53 187.55,169.27 205.96,173.07 206.13,176.83 206.14,180.57 206.20,179.73 209.23,178.20 225.01,176.06 227.99,174.09 228.07,172.47 228.45,170.73 230.58,168.75 231.12,166.48 231.30,170.31 231.35,168.75 243.28,167.74 243.90,165.86 244.20,163.86 246.30,161.66 246.68,161.51 247.60,160.69 249.32,164.57 249.38,163.22 249.51,162.00 250.02,159.78 253.38,163.67 253.39,161.39 253.52,159.42 253.85,157.98 262.81,161.90 269.48,159.67 269.64,157.35 269.75,156.23 270.49,160.16 270.89,159.77 271.40,163.67 271.47,162.56 271.57,160.85 271.70,158.96 271.96,156.72 272.09,154.60 272.52,152.84 275.21,151.04 275.29,148.89 275.42,152.89 275.44,151.06 275.77,155.04 275.89,153.89 284.29,151.77 284.47,150.21 284.66,150.65 287.35,150.34 287.83,148.05 287.86,145.75 288.02,145.04 293.63,143.76 294.18,141.68 294.41,141.03 294.87,140.82 296.66,144.89 297.34,143.43 297.76,141.10 297.78,138.84 309.43,136.76 313.03,134.82 315.40,132.94 316.24,130.74 319.24,128.35 319.33,125.86 319.44,125.01 319.63,127.00 331.40,131.20 331.50,130.43 335.32,128.49 335.84,126.52 338.51,130.72 340.74,129.75 350.50,128.37 350.91,125.97 354.01,124.12 354.05,128.34 354.18,132.53 354.29,131.57 356.69,131.73 357.22,129.35 357.30,127.53 357.74,125.13 357.83,124.06 358.67,121.64 359.69,119.97 360.05,124.23 360.12,122.21 360.29,119.79 361.04,124.05 362.99,122.34 363.47,120.12 375.40,120.26 376.37,118.83 379.19,117.03 382.04,115.59 382.64,114.14 384.74,118.45 384.85,116.71 384.98,114.82 385.25,113.67 395.31,112.29 398.34,110.01 401.26,114.35 401.41,112.16 401.48,116.47 401.67,120.76 401.74,120.19 401.96,117.76 402.01,115.37 403.76,119.66 403.79,123.91 403.87,123.04 404.44,120.84 404.73,118.56 407.80,116.78 416.45,115.30 417.11,114.16 420.21,112.19 420.47,110.88 422.08,108.39 423.47,112.75 423.62,114.37 426.44,118.68 429.59,116.22 429.61,113.76 429.88,111.41 438.34,109.53 441.56,108.40 445.52,112.75 447.78,111.05 448.83,108.56 451.88,112.91 451.98,112.43 452.10,111.73 460.47,109.68 461.33,108.80 461.86,106.73 463.53,111.10 463.59,115.43 463.68,119.73 463.74,118.38 464.30,122.65 466.66,126.89 468.12,124.47 469.93,122.06 473.85,126.30 473.92,125.32 474.05,125.55 485.63,124.36 489.56,124.89 489.70,122.72 489.87,120.49 492.48,118.67 505.47,116.56 507.71,115.38 508.07,112.91 508.45,117.22 508.63,121.50 510.83,119.60 511.08,117.65 511.58,115.36 511.71,119.67 511.77,123.89 511.90,125.19 512.00,126.31 514.10,130.51 514.15,134.68 514.35,138.81 514.75,142.91 514.78,141.02 515.21,138.67 515.38,136.50 516.08,135.03 517.10,133.05 517.98,131.64 526.51,129.25 527.31,129.00 528.98,126.59 529.74,124.39 530.47,122.68 532.90,126.92 533.42,124.98 533.70,122.93 533.91,120.49 536.10,118.04 539.37,115.58 539.41,113.69 539.84,111.21 551.79,109.59 552.46,107.87 556.33,105.36 556.37,103.59 558.25,102.35 559.30,99.81 561.22,97.75 570.70,95.19 573.25,99.66 574.61,104.09 580.44,102.27 584.35,101.28 591.55,99.78 591.74,104.21 592.62,101.59 592.79,99.86 593.71,97.54 594.07,94.88 596.66,93.18 596.89,97.66 599.29,95.26 613.56,92.61 614.60,90.05 618.17,90.10 618.62,88.62 621.16,86.02 621.89,83.61 622.16,81.23 624.30,79.01 626.24,76.90 627.76,77.19 636.80,74.77 636.93,79.41 636.98,77.58 644.00,78.17 663.01,76.36 668.48,76.93 680.93,74.28 680.97,71.97 688.64,69.30 694.22,66.51 694.36,64.72 694.48,62.76 694.87,62.66 707.65,63.26 716.27,60.55 716.29,65.29 716.56,62.59 726.27,59.88 728.31,64.63 731.53,64.43 754.87,64.82 757.52,62.58 760.83,67.31 768.43,66.45 768.64,65.97 769.73,63.46 769.87,60.89 769.92,65.63 770.46,64.46 772.75,69.17 772.78,66.86 773.33,71.56 776.07,74.09 776.13,71.31 776.40,68.63 778.82,66.54 779.43,66.98 779.61,64.54 782.83,61.83 782.91,59.82 794.45,57.92 801.35,62.69 801.40,67.42 801.54,72.12 805.08,69.44 816.04,68.71 823.74,66.02 827.06,67.01 842.61,68.02 846.16,65.32 848.87,63.39 858.47,63.97 880.58,64.60 892.92,65.13 892.98,63.29 893.40,62.80 905.65,60.55 910.97,58.85 911.63,57.98 914.17,56.41 933.06,55.35 933.79,55.87 955.70,53.12 955.71,50.49 955.92,51.97 956.02,56.78 958.82,54.04 975.32,51.18 975.53,53.72 981.16,51.85 996.81,49.32 1003.16,49.30 1003.24,47.45 1021.27,45.92 1022.00,43.13 1022.06,40.42 1032.66,38.86 1042.37,36.04 1044.35,35.06 1062.39,40.00 1063.28,37.19 1087.90,34.38 1087.90,31.38 1088.17,31.95 1088.32,34.51 1088.34,39.45 1088.41,44.36 1088.45,42.15 1088.58,40.21 1090.46,45.12 1091.16,42.32 1091.39,40.19 1091.73,38.43 1107.01,35.88 1107.54,33.54 1113.42,31.55 1122.96,29.91 1126.00,27.65 1130.33,27.44 1134.67,26.00 1170.00,25.00"/>
<text x="620.0" y="588" text-anchor="middle" font-family="sans-serif" font-size="12" fill="#333">UTC time</text>
<text x="15" y="287.5" transform="rotate(-90 15,287.5)" text-anchor="middle" font-family="sans-serif" font-size="12" fill="#333">Capital</text>
</svg>