<svg xmlns="http://www.w3.org/2000/svg" width="1200" height="600" viewBox="0 0 1200 600">
<desc>Equity curve with drawdown fill</desc>
<text x="600.0" y="18.0" text-anchor="middle" font-family="sans-serif" font-size="14">Portfolio 2020</text>
<rect x="70" y="25" width="1100" height="525" fill="white" stroke="#ccc" />
<line x1="70" y1="550.00" x2="1170" y2="550.00" stroke="#eee"/>
<text x="62" y="554.0" text-anchor="end" font-family="sans-serif" font-size="11" fill="#555">0.00</text>
<line x1="70" y1="445.00" x2="1170" y2="445.00" stroke="#eee"/>
<text x="62" y="449.0" text-anchor="end" font-family="sans-serif" font-size="11" fill="#555">21821</text>
<line x1="70" y1="340.00" x2="1170" y2="340.00" stroke="#eee"/>
<text x="62" y="344.0" text-anchor="end" font-family="sans-serif" font-size="11" fill="#555">43641</text>
<line x1="70" y1="235.00" x2="1170" y2="235.00" stroke="#eee"/>
<text x="62" y="239.0" text-anchor="end" font-family="sans-serif" font-size="11" fill="#555">65462</text>
<line x1="70" y1="130.00" x2="1170" y2="130.00" stroke="#eee"/>
<text x="62" y="134.0" text-anchor="end" font-family="sans-serif" font-size="11" fill="#555">87283</text>
<line x1="70" y1="25.00" x2="1170" y2="25.00" stroke="#eee"/>
<text x="62" y="29.0" text-anchor="end" font-family="sans-serif" font-size="11" fill="#555">109104</text>
<line x1="100.06" y1="25" x2="100.06" y2="550" stroke="#f2f2f2"/>
<text x="100.06" y="566" text-anchor="middle" font-family="sans-serif" font-size="11" fill="#555">Mar</text>
<line x1="211.86" y1="25" x2="211.86" y2="550" stroke="#f2f2f2"/>
<text x="211.86" y="566" text-anchor="middle" font-family="sans-serif" font-size="11" fill="#555">Apr</text>
<line x1="320.05" y1="25" x2="320.05" y2="550" stroke="#f2f2f2"/>
<text x="320.05" y="566" text-anchor="middle" font-family="sans-serif" font-size="11" fill="#555">May</text>
<line x1="431.84" y1="25" x2="431.84" y2="550" stroke="#f2f2f2"/>
<text x="431.84" y="566" text-anchor="middle" font-family="sans-serif" font-size="11" fill="#555">Jun</text>
<line x1="540.03" y1="25" x2="540.03" y2="550" stroke="#f2f2f2"/>
<text x="540.03" y="566" text-anchor="middle" font-family="sans-serif" font-size="11" fill="#555">Jul</text>
<line x1="651.82" y1="25" x2="651.82" y2="550" stroke="#f2f2f2"/>
<text x="651.82" y="566" text-anchor="middle" font-family="sans-serif" font-size="11" fill="#555">Aug</text>
<line x1="763.62" y1="25" x2="763.62" y2="550" stroke="#f2f2f2"/>
<text x="763.62" y="566" text-anchor="middle" font-family="sans-serif" font-size="11" fill="#555">Sep</text>
<line x1="871.81" y1="25" x2="871.81" y2="550" stroke="#f2f2f2"/>
<text x="871.81" y="566" text-anchor="middle" font-family="sans-serif" font-size="11" fill="#555">Oct</text>
<line x1="983.60" y1="25" x2="983.60" y2="550" stroke="#f2f2f2"/>
<text x="983.60" y="566" text-anchor="middle" font-family="sans-serif" font-size="11" fill="#555">Nov</text>
<line x1="1091.79" y1="25" x2="1091.79" y2="550" stroke="#f2f2f2"/>
<text x="1091.79" y="566" text-anchor="middle" font-family="sans-serif" font-size="11" fill="#555">Dec</text>
<line x1="70" y1="550" x2="1170" y2="550" stroke="#888"/>
<line x1="70" y1="25" x2="70" y2="550" stroke="#888"/>
<path d="M 119.71 66.57 L 119.71 66.69 Z" fill="#d0d0d0" fill-opacity="0.5" stroke="none"/>
<path d="M 138.52 42.44 L 140.07 42.44 L 141.86 42.44 L 141.90 42.44 L 142.03 42.44 L 142.15 42.44 L 142.26 42.44 L 142.32 42.44 L 142.48 42.44 L 145.36 42.44 L 145.77 42.44 L 154.29 42.44 L 156.20 42.44 L 159.78 42.44 L 159.95 42.44 L 159.95 42.77 L 159.78 45.35 L 156.20 46.08 L 154.29 47.91 L 145.77 50.38 L 145.36 52.25 L 142.48 53.00 L 142.32 55.50 L 142.26 58.32 L 142.15 60.66 L 142.03 55.73 L 141.90 50.80 L 141.86 53.22 L 140.07 48.21 L 138.52 47.51 Z" fill="#d0d0d0" fill-opacity="0.5" stroke="none"/>
<path d="M 163.40 40.78 L 163.70 40.78 L 163.85 40.78 L 164.22 40.78 L 164.84 40.78 L 164.84 40.78 L 165.18 40.78 L 165.18 40.92 L 164.84 43.63 L 164.84 46.61 L 164.22 41.54 L 163.85 44.25 L 163.70 44.66 L 163.40 45.85 Z" fill="#d0d0d0" fill-opacity="0.5" stroke="none"/>
<path d="M 166.20 38.19 L 166.22 38.19 L 166.53 38.19 L 166.80 38.19 L 166.88 38.19 L 166.92 38.19 L 167.38 38.19 L 167.52 38.19 L 167.53 38.19 L 167.58 38.19 L 167.79 38.19 L 168.86 38.19 L 169.78 38.19 L 170.10 38.19 L 170.61 38.19 L 170.98 38.19 L 180.66 38.19 L 181.24 38.19 L 181.27 38.19 L 181.42 38.19 L 181.51 38.19 L 181.67 38.19 L 181.93 38.19 L 183.18 38.19 L 184.04 38.19 L 184.56 38.19 L 185.09 38.19 L 189.30 38.19 L 190.37 38.19 L 192.57 38.19 L 194.98 38.19 L 195.89 38.19 L 196.24 38.19 L 196.33 38.19 L 196.57 38.19 L 208.54 38.19 L 210.12 38.19 L 210.82 38.19 L 213.33 38.19 L 217.65 38.19 L 234.81 38.19 L 242.88 38.19 L 264.47 38.19 L 268.46 38.19 L 293.58 38.19 L 294.08 38.19 L 310.88 38.19 L 318.84 38.19 L 318.96 38.19 L 335.99 38.19 L 383.83 38.19 L 394.61 38.19 L 415.61 38.19 L 444.66 38.19 L 444.99 38.19 L 445.11 38.19 L 448.30 38.19 L 463.03 38.19 L 467.25 38.19 L 470.82 38.19 L 474.01 38.19 L 485.27 38.19 L 488.25 38.19 L 498.84 38.19 L 499.16 38.19 L 542.42 38.19 L 617.51 38.19 L 646.84 38.19 L 650.89 38.19 L 664.78 38.19 L 675.79 38.19 L 719.38 38.19 L 719.65 38.19 L 719.65 38.70 L 719.38 40.55 L 675.79 42.34 L 664.78 41.45 L 650.89 43.20 L 646.84 45.14 L 617.51 47.24 L 542.42 48.71 L 499.16 48.61 L 498.84 51.11 L 488.25 53.27 L 485.27 55.48 L 474.01 57.21 L 470.82 56.81 L 467.25 56.08 L 463.03 57.01 L 448.30 56.19 L 445.11 59.02 L 444.99 59.38 L 444.66 54.43 L 415.61 56.10 L 394.61 54.77 L 383.83 56.53 L 335.99 59.02 L 318.96 54.06 L 318.84 54.43 L 310.88 49.43 L 294.08 50.79 L 293.58 52.53 L 268.46 53.36 L 264.47 54.00 L 242.88 54.79 L 234.81 49.79 L 217.65 51.12 L 213.33 51.89 L 210.82 52.34 L 210.12 54.55 L 208.54 56.18 L 196.57 58.77 L 196.33 59.88 L 196.24 61.32 L 195.89 56.39 L 194.98 58.40 L 192.57 60.64 L 190.37 62.88 L 189.30 65.17 L 185.09 66.19 L 184.56 68.40 L 184.04 70.56 L 183.18 65.72 L 181.93 60.84 L 181.67 62.11 L 181.51 64.48 L 181.42 67.05 L 181.27 69.45 L 181.24 64.60 L 180.66 59.70 L 170.98 61.19 L 170.61 63.96 L 170.10 66.49 L 169.78 61.61 L 168.86 56.68 L 167.79 51.70 L 167.58 54.17 L 167.53 56.13 L 167.52 51.20 L 167.38 46.17 L 166.92 41.09 L 166.88 43.97 L 166.80 45.91 L 166.53 45.63 L 166.22 40.55 L 166.20 43.29 Z" fill="#d0d0d0" fill-opacity="0.5" stroke="none"/>
<path d="M 837.38 25.30 L 837.38 27.82 Z" fill="#d0d0d0" fill-opacity="0.5" stroke="none"/>
<path d="M 994.90 25.00 L 1014.87 25.00 L 1065.26 25.00 L 1094.29 25.00 L 1165.54 25.00 L 1170.00 25.00 L 1170.00 33.77 L 1165.54 34.48 L 1094.29 35.03 L 1065.26 35.82 L 1014.87 30.64 L 994.90 25.41 Z" fill="#d0d0d0" fill-opacity="0.5" stroke="none"/>
<polyline fill="none" stroke="#111" stroke-width="1.2" points="70.00,68.78 106.28,66.57 119.71,66.69 128.79,64.52 129.19,61.62 129.19,58.66 130.00,56.08 130.35,54.21 130.98,52.45 131.00,49.60 132.69,47.70 133.38,45.32 134.97,42.44 138.52,47.51 140.07,48.21 141.86,53.22 141.90,50.80 142.03,55.73 142.15,60.66 142.26,58.32 142.32,55.50 142.48,53.00 145.36,52.25 145.77,50.38 154.29,47.91 156.20,46.08 159.78,45.35 159.95,42.77 162.61,40.78 163.40,45.85 163.70,44.66 163.85,44.25 164.22,41.54 164.84,46.61 164.84,43.63 165.18,40.92 165.98,38.19 166.20,43.29 166.22,40.55 166.53,45.63 166.80,45.91 166.88,43.97 166.92,41.09 167.38,46.17 167.52,51.20 167.53,56.13 167.58,54.17 167.79,51.70 168.86,56.68 169.78,61.61 170.10,66.49 170.61,63.96 170.98,61.19 180.66,59.70 181.24,64.60 181.27,69.45 181.42,67.05 181.51,64.48 181.67,62.11 181.93,60.84 183.18,65.72 184.04,70.56 184.56,68.40 185.09,66.19 189.30,65.17 190.37,62.88 192.57,60.64 194.98,58.40 195.89,56.39 196.24,61.32 196.33,59.88 196.57,58.77 208.54,56.18 210.12,54.55 210.82,52.34 213.33,51.89 217.65,51.12 234.81,49.79 242.88,54.79 264.47,54.00 268.46,53.36 293.58,52.53 294.08,50.79 310.88,49.43 318.84,54.43 318.96,54.06 335.99,59.02 383.83,56.53 394.61,54.77 415.61,56.10 444.66,54.43 444.99,59.38 445.11,59.02 448.30,56.19 463.03,57.01 467.25,56.08 470.82,56.81 474.01,57.21 485.27,55.48 488.25,53.27 498.84,51.11 499.16,48.61 542.42,48.71 617.51,47.24 646.84,45.14 650.89,43.20 664.78,41.45 675.79,42.34 719.38,40.55 719.65,38.70 747.71,35.78 747.76,32.93 747.89,30.75 794.56,28.00 798.12,25.30 837.38,27.82 994.58,25.00 994.90,25.41 1014.87,30.64 1065.26,35.82 1094.29,35.03 1165.54,34.48 1170.00,33.77"/>
<text x="620.0" y="588" text-anchor="middle" font-family="sans-serif" font-size="12" fill="#333">UTC time</text>
<text x="15" y="287.5" transform="rotate(-90 15,287.5)" text-anchor="middle" font-family="sans-serif" font-size="12" fill="#333">Capital</text>
</svg>