<svg xmlns="http://www.w3.org/2000/svg" width="1200" height="600" viewBox="0 0 1200 600">
<desc>Equity curve with drawdown fill</desc>
<text x="600.0" y="18.0" text-anchor="middle" font-family="sans-serif" font-size="14">Portfolio 2009</text>
<rect x="70" y="25" width="1100" height="525" fill="white" stroke="#ccc" />
<line x1="70" y1="550.00" x2="1170" y2="550.00" stroke="#eee"/>
<text x="62" y="554.0" text-anchor="end" font-family="sans-serif" font-size="11" fill="#555">0.00</text>
<line x1="70" y1="445.00" x2="1170" y2="445.00" stroke="#eee"/>
<text x="62" y="449.0" text-anchor="end" font-family="sans-serif" font-size="11" fill="#555">24703</text>
<line x1="70" y1="340.00" x2="1170" y2="340.00" stroke="#eee"/>
<text x="62" y="344.0" text-anchor="end" font-family="sans-serif" font-size="11" fill="#555">49406</text>
<line x1="70" y1="235.00" x2="1170" y2="235.00" stroke="#eee"/>
<text x="62" y="239.0" text-anchor="end" font-family="sans-serif" font-size="11" fill="#555">74109</text>
<line x1="70" y1="130.00" x2="1170" y2="130.00" stroke="#eee"/>
<text x="62" y="134.0" text-anchor="end" font-family="sans-serif" font-size="11" fill="#555">98812</text>
<line x1="70" y1="25.00" x2="1170" y2="25.00" stroke="#eee"/>
<text x="62" y="29.0" text-anchor="end" font-family="sans-serif" font-size="11" fill="#555">123515</text>
<line x1="159.60" y1="25" x2="159.60" y2="550" stroke="#f2f2f2"/>
<text x="159.60" y="566" text-anchor="middle" font-family="sans-serif" font-size="11" fill="#555">Feb</text>
<line x1="244.39" y1="25" x2="244.39" y2="550" stroke="#f2f2f2"/>
<text x="244.39" y="566" text-anchor="middle" font-family="sans-serif" font-size="11" fill="#555">Mar</text>
<line x1="338.26" y1="25" x2="338.26" y2="550" stroke="#f2f2f2"/>
<text x="338.26" y="566" text-anchor="middle" font-family="sans-serif" font-size="11" fill="#555">Apr</text>
<line x1="429.11" y1="25" x2="429.11" y2="550" stroke="#f2f2f2"/>
<text x="429.11" y="566" text-anchor="middle" font-family="sans-serif" font-size="11" fill="#555">May</text>
<line x1="522.99" y1="25" x2="522.99" y2="550" stroke="#f2f2f2"/>
<text x="522.99" y="566" text-anchor="middle" font-family="sans-serif" font-size="11" fill="#555">Jun</text>
<line x1="613.84" y1="25" x2="613.84" y2="550" stroke="#f2f2f2"/>
<text x="613.84" y="566" text-anchor="middle" font-family="sans-serif" font-size="11" fill="#555">Jul</text>
<line x1="707.71" y1="25" x2="707.71" y2="550" stroke="#f2f2f2"/>
<text x="707.71" y="566" text-anchor="middle" font-family="sans-serif" font-size="11" fill="#555">Aug</text>
<line x1="801.59" y1="25" x2="801.59" y2="550" stroke="#f2f2f2"/>
<text x="801.59" y="566" text-anchor="middle" font-family="sans-serif" font-size="11" fill="#555">Sep</text>
<line x1="892.44" y1="25" x2="892.44" y2="550" stroke="#f2f2f2"/>
<text x="892.44" y="566" text-anchor="middle" font-family="sans-serif" font-size="11" fill="#555">Oct</text>
<line x1="986.31" y1="25" x2="986.31" y2="550" stroke="#f2f2f2"/>
<text x="986.31" y="566" text-anchor="middle" font-family="sans-serif" font-size="11" fill="#555">Nov</text>
<line x1="1077.16" y1="25" x2="1077.16" y2="550" stroke="#f2f2f2"/>
<text x="1077.16" y="566" text-anchor="middle" font-family="sans-serif" font-size="11" fill="#555">Dec</text>
<line x1="1170.00" y1="25" x2="1170.00" y2="550" stroke="#f2f2f2"/>
<text x="1170.00" y="566" text-anchor="middle" font-family="sans-serif" font-size="11" fill="#555">Jan</text>
<line x1="70" y1="550" x2="1170" y2="550" stroke="#888"/>
<line x1="70" y1="25" x2="70" y2="550" stroke="#888"/>
<path d="M 70.00 124.95 L 70.00 126.15 Z" fill="#d0d0d0" fill-opacity="0.5" stroke="none"/>
<path d="M 78.88 122.73 L 78.89 122.73 L 78.92 122.73 L 79.02 122.73 L 79.10 122.73 L 79.21 122.73 L 79.51 122.73 L 80.04 122.73 L 81.46 122.73 L 81.86 122.73 L 82.01 122.73 L 82.12 122.73 L 82.18 122.73 L 82.30 122.73 L 83.05 122.73 L 84.03 122.73 L 84.84 122.73 L 84.90 122.73 L 85.35 122.73 L 85.60 122.73 L 85.67 122.73 L 85.90 122.73 L 86.03 122.73 L 86.35 122.73 L 86.98 122.73 L 86.98 123.29 L 86.35 125.76 L 86.03 127.75 L 85.90 129.94 L 85.67 132.14 L 85.60 132.98 L 85.35 128.78 L 84.90 130.95 L 84.84 133.27 L 84.03 135.66 L 83.05 138.05 L 82.30 133.90 L 82.18 135.24 L 82.12 136.68 L 82.01 139.06 L 81.86 138.00 L 81.46 133.84 L 80.04 136.25 L 79.51 138.47 L 79.21 138.14 L 79.10 138.65 L 79.02 139.47 L 78.92 135.38 L 78.89 131.22 L 78.88 127.00 Z" fill="#d0d0d0" fill-opacity="0.5" stroke="none"/>
<path d="M 91.73 112.98 L 91.87 112.98 L 91.98 112.98 L 92.07 112.98 L 92.07 114.51 L 91.98 117.03 L 91.87 117.14 L 91.73 117.34 Z" fill="#d0d0d0" fill-opacity="0.5" stroke="none"/>
<path d="M 100.95 111.67 L 101.02 111.67 L 101.32 111.67 L 101.32 112.96 L 101.02 114.95 L 100.95 116.04 Z" fill="#d0d0d0" fill-opacity="0.5" stroke="none"/>
<path d="M 106.19 98.61 L 106.25 98.61 L 106.79 98.61 L 106.93 98.61 L 106.98 98.61 L 106.98 99.62 L 106.93 100.65 L 106.79 99.81 L 106.25 100.84 L 106.19 103.12 Z" fill="#d0d0d0" fill-opacity="0.5" stroke="none"/>
<path d="M 109.90 97.66 L 109.91 97.66 L 109.91 99.50 L 109.90 102.17 Z" fill="#d0d0d0" fill-opacity="0.5" stroke="none"/>
<path d="M 110.58 94.18 L 111.65 94.18 L 112.92 94.18 L 112.92 95.28 L 111.65 97.88 L 110.58 98.72 Z" fill="#d0d0d0" fill-opacity="0.5" stroke="none"/>
<path d="M 123.38 88.43 L 124.19 88.43 L 124.19 90.64 L 123.38 93.02 Z" fill="#d0d0d0" fill-opacity="0.5" stroke="none"/>
<path d="M 126.61 86.62 L 126.75 86.62 L 127.15 86.62 L 127.15 87.67 L 126.75 90.33 L 126.61 91.23 Z" fill="#d0d0d0" fill-opacity="0.5" stroke="none"/>
<path d="M 133.33 73.62 L 133.46 73.62 L 133.54 73.62 L 133.62 73.62 L 134.20 73.62 L 134.53 73.62 L 134.68 73.62 L 134.76 73.62 L 141.33 73.62 L 142.56 73.62 L 143.08 73.62 L 143.24 73.62 L 143.31 73.62 L 143.32 73.62 L 143.46 73.62 L 143.73 73.62 L 144.90 73.62 L 145.46 73.62 L 145.62 73.62 L 145.91 73.62 L 146.05 73.62 L 146.35 73.62 L 146.52 73.62 L 147.55 73.62 L 148.53 73.62 L 149.27 73.62 L 151.45 73.62 L 152.10 73.62 L 152.40 73.62 L 152.67 73.62 L 152.73 73.62 L 152.83 73.62 L 155.38 73.62 L 155.53 73.62 L 155.53 73.86 L 155.38 76.41 L 152.83 78.65 L 152.73 80.47 L 152.67 81.98 L 152.40 77.28 L 152.10 80.00 L 151.45 75.28 L 149.27 76.71 L 148.53 79.42 L 147.55 81.29 L 146.52 83.98 L 146.35 86.65 L 146.05 89.32 L 145.91 91.05 L 145.62 93.70 L 145.46 96.18 L 144.90 97.79 L 143.73 93.23 L 143.46 95.78 L 143.32 97.97 L 143.31 93.42 L 143.24 88.87 L 143.08 84.23 L 142.56 86.36 L 141.33 88.08 L 134.76 83.44 L 134.68 85.71 L 134.53 81.05 L 134.20 76.34 L 133.62 77.57 L 133.54 78.63 L 133.46 78.68 L 133.33 78.36 Z" fill="#d0d0d0" fill-opacity="0.5" stroke="none"/>
<path d="M 164.84 71.64 L 164.89 71.64 L 166.16 71.64 L 166.16 72.25 L 164.89 74.70 L 164.84 76.40 Z" fill="#d0d0d0" fill-opacity="0.5" stroke="none"/>
<path d="M 170.23 53.87 L 173.52 53.87 L 173.52 53.89 L 170.23 55.25 Z" fill="#d0d0d0" fill-opacity="0.5" stroke="none"/>
<path d="M 177.07 45.00 L 177.16 45.00 L 184.65 45.00 L 185.59 45.00 L 185.67 45.00 L 186.89 45.00 L 186.99 45.00 L 187.03 45.00 L 187.13 45.00 L 187.59 45.00 L 187.77 45.00 L 188.25 45.00 L 188.78 45.00 L 188.92 45.00 L 188.92 45.90 L 188.78 48.76 L 188.25 51.12 L 187.77 51.51 L 187.59 54.12 L 187.13 56.78 L 187.03 58.71 L 186.99 60.54 L 186.89 55.65 L 185.67 50.71 L 185.59 52.34 L 184.65 47.37 L 177.16 49.21 L 177.07 49.99 Z" fill="#d0d0d0" fill-opacity="0.5" stroke="none"/>
<path d="M 189.30 42.44 L 190.06 42.44 L 190.06 44.79 L 189.30 47.45 Z" fill="#d0d0d0" fill-opacity="0.5" stroke="none"/>
<path d="M 194.05 40.96 L 194.71 40.96 L 194.82 40.96 L 194.82 42.47 L 194.71 43.10 L 194.05 45.99 Z" fill="#d0d0d0" fill-opacity="0.5" stroke="none"/>
<path d="M 204.92 35.96 L 206.90 35.96 L 208.20 35.96 L 208.33 35.96 L 208.44 35.96 L 212.95 35.96 L 215.29 35.96 L 215.94 35.96 L 218.95 35.96 L 219.28 35.96 L 219.29 35.96 L 219.38 35.96 L 219.44 35.96 L 219.53 35.96 L 219.66 35.96 L 226.45 35.96 L 226.46 35.96 L 226.67 35.96 L 227.14 35.96 L 227.42 35.96 L 227.62 35.96 L 227.87 35.96 L 228.25 35.96 L 230.49 35.96 L 231.01 35.96 L 231.60 35.96 L 231.73 35.96 L 233.33 35.96 L 233.79 35.96 L 234.26 35.96 L 234.31 35.96 L 240.32 35.96 L 247.48 35.96 L 251.26 35.96 L 251.97 35.96 L 252.50 35.96 L 253.57 35.96 L 255.60 35.96 L 258.33 35.96 L 258.49 35.96 L 260.41 35.96 L 260.53 35.96 L 260.64 35.96 L 261.32 35.96 L 261.61 35.96 L 270.58 35.96 L 272.56 35.96 L 273.33 35.96 L 273.42 35.96 L 273.53 35.96 L 273.98 35.96 L 274.12 35.96 L 275.28 35.96 L 276.16 35.96 L 278.74 35.96 L 279.42 35.96 L 279.50 35.96 L 279.65 35.96 L 281.93 35.96 L 289.77 35.96 L 291.20 35.96 L 294.53 35.96 L 297.58 35.96 L 297.66 35.96 L 297.83 35.96 L 298.30 35.96 L 300.05 35.96 L 300.50 35.96 L 300.57 35.96 L 300.61 35.96 L 300.71 35.96 L 300.75 35.96 L 300.88 35.96 L 301.30 35.96 L 303.07 35.96 L 303.39 35.96 L 303.47 35.96 L 303.57 35.96 L 303.73 35.96 L 303.86 35.96 L 304.05 35.96 L 310.92 35.96 L 312.10 35.96 L 312.29 35.96 L 312.76 35.96 L 312.92 35.96 L 313.02 35.96 L 313.38 35.96 L 315.12 35.96 L 315.46 35.96 L 315.86 35.96 L 316.40 35.96 L 318.58 35.96 L 318.95 35.96 L 318.98 35.96 L 319.11 35.96 L 319.39 35.96 L 322.04 35.96 L 324.79 35.96 L 324.91 35.96 L 332.99 35.96 L 334.11 35.96 L 336.76 35.96 L 337.28 35.96 L 338.50 35.96 L 342.97 35.96 L 343.05 35.96 L 343.20 35.96 L 343.56 35.96 L 353.37 35.96 L 355.28 35.96 L 355.49 35.96 L 356.51 35.96 L 357.73 35.96 L 359.73 35.96 L 360.98 35.96 L 361.62 35.96 L 363.51 35.96 L 364.55 35.96 L 364.70 35.96 L 364.74 35.96 L 365.57 35.96 L 376.33 35.96 L 376.37 35.96 L 376.70 35.96 L 382.37 35.96 L 386.08 35.96 L 387.45 35.96 L 396.05 35.96 L 397.81 35.96 L 400.11 35.96 L 403.69 35.96 L 409.10 35.96 L 409.75 35.96 L 419.31 35.96 L 419.45 35.96 L 421.83 35.96 L 425.50 35.96 L 427.88 35.96 L 440.12 35.96 L 440.27 35.96 L 440.36 35.96 L 443.25 35.96 L 445.98 35.96 L 446.17 35.96 L 448.96 35.96 L 449.00 35.96 L 449.06 35.96 L 449.09 35.96 L 452.02 35.96 L 452.05 35.96 L 452.20 35.96 L 452.52 35.96 L 465.62 35.96 L 467.20 35.96 L 468.63 35.96 L 473.91 35.96 L 484.89 35.96 L 488.51 35.96 L 488.62 35.96 L 489.05 35.96 L 490.86 35.96 L 490.86 37.79 L 489.05 40.71 L 488.62 43.61 L 488.51 43.60 L 484.89 38.54 L 473.91 41.19 L 468.63 36.12 L 467.20 38.01 L 465.62 39.54 L 452.52 42.46 L 452.20 45.37 L 452.05 46.67 L 452.02 49.18 L 449.09 52.05 L 449.06 54.43 L 449.00 49.48 L 448.96 52.35 L 446.17 53.97 L 445.98 56.64 L 443.25 58.48 L 440.36 60.26 L 440.27 55.39 L 440.12 57.06 L 427.88 52.12 L 425.50 47.15 L 421.83 50.03 L 419.45 52.17 L 419.31 50.96 L 409.75 45.97 L 409.10 48.62 L 403.69 43.61 L 400.11 46.49 L 397.81 48.94 L 396.05 48.73 L 387.45 50.53 L 386.08 51.66 L 382.37 53.92 L 376.70 48.96 L 376.37 43.96 L 376.33 46.45 L 365.57 41.43 L 364.74 44.34 L 364.70 46.04 L 364.55 44.83 L 363.51 39.78 L 361.62 42.14 L 360.98 44.82 L 359.73 46.85 L 357.73 41.83 L 356.51 36.77 L 355.49 39.70 L 355.28 41.76 L 353.37 44.38 L 343.56 44.98 L 343.20 45.78 L 343.05 47.48 L 342.97 49.65 L 338.50 44.65 L 337.28 47.54 L 336.76 50.17 L 334.11 51.81 L 332.99 53.97 L 324.91 56.55 L 324.79 51.61 L 322.04 53.36 L 319.39 55.50 L 319.11 57.74 L 318.98 60.34 L 318.95 62.94 L 318.58 65.74 L 316.40 67.16 L 315.86 69.77 L 315.46 71.96 L 315.12 74.09 L 313.38 76.42 L 313.02 71.66 L 312.92 74.09 L 312.76 75.57 L 312.29 76.02 L 312.10 78.57 L 310.92 80.82 L 304.05 82.60 L 303.86 84.04 L 303.73 86.33 L 303.57 88.71 L 303.47 89.70 L 303.39 90.67 L 303.07 86.04 L 301.30 87.59 L 300.88 90.05 L 300.75 85.42 L 300.71 87.11 L 300.61 82.45 L 300.57 84.20 L 300.50 79.51 L 300.05 74.78 L 298.30 77.08 L 297.83 79.94 L 297.66 79.80 L 297.58 81.18 L 294.53 76.45 L 291.20 78.76 L 289.77 81.47 L 281.93 84.17 L 279.65 86.42 L 279.50 88.38 L 279.42 91.04 L 278.74 93.41 L 276.16 94.06 L 275.28 94.93 L 274.12 96.87 L 273.98 92.30 L 273.53 94.37 L 273.42 94.96 L 273.33 95.51 L 272.56 90.92 L 270.58 92.87 L 261.61 94.28 L 261.32 95.22 L 260.64 97.36 L 260.53 96.10 L 260.41 95.29 L 258.49 90.71 L 258.33 93.23 L 255.60 94.07 L 253.57 95.54 L 252.50 90.96 L 251.97 86.34 L 251.26 87.90 L 247.48 90.03 L 240.32 85.40 L 234.31 80.72 L 234.26 83.01 L 233.79 78.31 L 233.33 73.57 L 231.73 75.49 L 231.60 75.79 L 231.01 71.03 L 230.49 72.94 L 228.25 75.16 L 227.87 75.72 L 227.62 78.16 L 227.42 79.80 L 227.14 75.07 L 226.67 77.80 L 226.46 76.89 L 226.45 72.15 L 219.66 67.35 L 219.53 62.51 L 219.44 62.75 L 219.38 57.89 L 219.29 58.59 L 219.28 53.69 L 218.95 48.73 L 215.94 51.30 L 215.29 52.15 L 212.95 47.19 L 208.44 50.05 L 208.33 48.64 L 208.20 43.64 L 206.90 38.60 L 204.92 41.02 Z" fill="#d0d0d0" fill-opacity="0.5" stroke="none"/>
<path d="M 492.09 35.23 L 494.51 35.23 L 506.01 35.23 L 506.82 35.23 L 509.68 35.23 L 509.68 37.83 L 506.82 40.59 L 506.01 35.52 L 494.51 37.59 L 492.09 40.31 Z" fill="#d0d0d0" fill-opacity="0.5" stroke="none"/>
<path d="M 527.48 34.77 L 527.55 34.77 L 527.65 34.77 L 528.07 34.77 L 530.26 34.77 L 533.73 34.77 L 533.73 35.25 L 530.26 38.03 L 528.07 40.96 L 527.65 43.05 L 527.55 38.00 L 527.48 39.86 Z" fill="#d0d0d0" fill-opacity="0.5" stroke="none"/>
<path d="M 536.87 30.65 L 536.92 30.65 L 537.05 30.65 L 537.17 30.65 L 537.57 30.65 L 545.33 30.65 L 548.34 30.65 L 548.70 30.65 L 548.91 30.65 L 549.73 30.65 L 552.16 30.65 L 552.66 30.65 L 554.99 30.65 L 555.33 30.65 L 555.55 30.65 L 557.93 30.65 L 566.37 30.65 L 567.50 30.65 L 573.88 30.65 L 573.96 30.65 L 576.89 30.65 L 579.69 30.65 L 591.12 30.65 L 591.83 30.65 L 594.21 30.65 L 595.08 30.65 L 598.07 30.65 L 612.65 30.65 L 615.99 30.65 L 618.57 30.65 L 630.03 30.65 L 633.64 30.65 L 640.23 30.65 L 657.29 30.65 L 660.84 30.65 L 672.58 30.65 L 682.55 30.65 L 682.55 32.66 L 672.58 34.45 L 660.84 35.67 L 657.29 38.60 L 640.23 39.22 L 633.64 40.80 L 630.03 39.58 L 618.57 42.08 L 615.99 44.99 L 612.65 47.88 L 598.07 49.58 L 595.08 49.53 L 594.21 52.41 L 591.83 55.27 L 591.12 50.32 L 579.69 51.57 L 576.89 52.34 L 573.96 47.35 L 573.88 48.36 L 567.50 43.34 L 566.37 43.79 L 557.93 45.24 L 555.55 47.87 L 555.33 50.45 L 554.99 48.82 L 552.66 51.49 L 552.16 53.76 L 549.73 48.80 L 548.91 49.72 L 548.70 44.71 L 548.34 47.12 L 545.33 47.54 L 537.57 42.52 L 537.17 43.68 L 537.05 38.62 L 536.92 40.84 L 536.87 35.78 Z" fill="#d0d0d0" fill-opacity="0.5" stroke="none"/>
<path d="M 706.76 25.32 L 706.90 25.32 L 715.12 25.32 L 715.72 25.32 L 727.60 25.32 L 727.82 25.32 L 727.93 25.32 L 728.03 25.32 L 728.07 25.32 L 743.48 25.32 L 757.68 25.32 L 764.18 25.32 L 764.28 25.32 L 764.47 25.32 L 769.45 25.32 L 788.88 25.32 L 789.00 25.32 L 800.58 25.32 L 803.78 25.32 L 806.90 25.32 L 812.48 25.32 L 812.86 25.32 L 824.00 25.32 L 827.65 25.32 L 830.60 25.32 L 842.87 25.32 L 846.41 25.32 L 866.32 25.32 L 870.65 25.32 L 873.25 25.32 L 876.01 25.32 L 883.69 25.32 L 883.74 25.32 L 887.53 25.32 L 891.20 25.32 L 897.19 25.32 L 897.36 25.32 L 918.89 25.32 L 930.35 25.32 L 936.49 25.32 L 947.17 25.32 L 952.11 25.32 L 954.94 25.32 L 970.28 25.32 L 970.36 25.32 L 970.45 25.32 L 973.12 25.32 L 976.48 25.32 L 982.34 25.32 L 991.77 25.32 L 993.64 25.32 L 993.72 25.32 L 993.85 25.32 L 1021.57 25.32 L 1033.92 25.32 L 1041.89 25.32 L 1045.48 25.32 L 1064.12 25.32 L 1064.12 28.00 L 1045.48 28.04 L 1041.89 28.10 L 1033.92 30.57 L 1021.57 33.55 L 993.85 35.98 L 993.72 36.13 L 993.64 37.12 L 991.77 32.01 L 982.34 33.70 L 976.48 36.03 L 973.12 38.39 L 970.45 39.59 L 970.36 34.51 L 970.28 35.75 L 954.94 37.22 L 952.11 38.03 L 947.17 39.71 L 936.49 42.17 L 930.35 45.09 L 918.89 46.38 L 897.36 47.43 L 897.19 42.41 L 891.20 44.92 L 887.53 46.75 L 883.74 49.39 L 883.69 50.89 L 876.01 45.90 L 873.25 48.32 L 870.65 48.78 L 866.32 51.41 L 846.41 52.24 L 842.87 52.91 L 830.60 54.28 L 827.65 57.13 L 824.00 58.50 L 812.86 57.92 L 812.48 53.00 L 806.90 55.29 L 803.78 56.95 L 800.58 52.02 L 789.00 51.87 L 788.88 51.52 L 769.45 46.53 L 764.47 47.04 L 764.28 46.23 L 764.18 48.13 L 757.68 43.12 L 743.48 44.31 L 728.07 39.26 L 728.03 41.27 L 727.93 36.19 L 727.82 35.80 L 727.60 30.68 L 715.72 33.65 L 715.12 28.51 L 706.90 30.43 L 706.76 30.49 Z" fill="#d0d0d0" fill-opacity="0.5" stroke="none"/>
<path d="M 1066.01 25.00 L 1067.11 25.00 L 1074.36 25.00 L 1088.14 25.00 L 1088.20 25.00 L 1096.44 25.00 L 1096.51 25.00 L 1097.56 25.00 L 1100.10 25.00 L 1109.27 25.00 L 1109.46 25.00 L 1109.57 25.00 L 1120.70 25.00 L 1125.89 25.00 L 1126.04 25.00 L 1126.24 25.00 L 1128.98 25.00 L 1130.71 25.00 L 1142.74 25.00 L 1145.78 25.00 L 1164.03 25.00 L 1168.96 25.00 L 1170.00 25.00 L 1170.00 32.30 L 1168.96 33.81 L 1164.03 34.08 L 1145.78 28.94 L 1142.74 30.98 L 1130.71 33.95 L 1128.98 34.18 L 1126.24 35.75 L 1126.04 35.90 L 1125.89 38.01 L 1120.70 40.37 L 1109.57 39.84 L 1109.46 39.05 L 1109.27 38.64 L 1100.10 33.55 L 1097.56 35.12 L 1096.51 37.88 L 1096.44 39.46 L 1088.20 34.37 L 1088.14 29.24 L 1074.36 28.70 L 1067.11 29.92 L 1066.01 30.16 Z" fill="#d0d0d0" fill-opacity="0.5" stroke="none"/>
<polyline fill="none" stroke="#111" stroke-width="1.2" points="70.00,126.15 71.08,124.82 77.88,123.83 78.18,122.73 78.88,127.00 78.89,131.22 78.92,135.38 79.02,139.47 79.10,138.65 79.21,138.14 79.51,138.47 80.04,136.25 81.46,133.84 81.86,138.00 82.01,139.06 82.12,136.68 82.18,135.24 82.30,133.90 83.05,138.05 84.03,135.66 84.84,133.27 84.90,130.95 85.35,128.78 85.60,132.98 85.67,132.14 85.90,129.94 86.03,127.75 86.35,125.76 86.98,123.29 87.95,121.41 88.56,119.88 88.62,117.29 88.76,117.14 88.82,115.06 91.24,112.98 91.73,117.34 91.87,117.14 91.98,117.03 92.07,114.51 99.13,112.85 100.14,111.67 100.95,116.04 101.02,114.95 101.32,112.96 102.79,110.67 103.42,108.29 103.75,106.10 103.83,103.90 104.06,101.33 104.47,98.96 105.31,98.61 106.19,103.12 106.25,100.84 106.79,99.81 106.93,100.65 106.98,99.62 109.35,97.66 109.90,102.17 109.91,99.50 109.95,96.89 110.01,94.18 110.58,98.72 111.65,97.88 112.92,95.28 113.11,93.96 120.20,93.50 121.17,91.09 121.65,88.43 123.38,93.02 124.19,90.64 124.91,88.00 125.72,86.62 126.61,91.23 126.75,90.33 127.15,87.67 128.32,85.25 128.45,82.89 129.20,80.57 129.43,79.68 129.87,77.20 130.50,75.29 131.08,73.62 133.33,78.36 133.46,78.68 133.54,78.63 133.62,77.57 134.20,76.34 134.53,81.05 134.68,85.71 134.76,83.44 141.33,88.08 142.56,86.36 143.08,84.23 143.24,88.87 143.31,93.42 143.32,97.97 143.46,95.78 143.73,93.23 144.90,97.79 145.46,96.18 145.62,93.70 145.91,91.05 146.05,89.32 146.35,86.65 146.52,83.98 147.55,81.29 148.53,79.42 149.27,76.71 151.45,75.28 152.10,80.00 152.40,77.28 152.67,81.98 152.73,80.47 152.83,78.65 155.38,76.41 155.53,73.86 155.71,71.64 164.84,76.40 164.89,74.70 166.16,72.25 167.44,69.88 167.52,67.88 167.66,66.86 167.77,66.22 168.09,63.62 168.82,61.42 169.54,59.14 169.67,56.70 170.07,53.87 170.23,55.25 173.52,53.89 173.77,51.61 173.92,50.16 176.52,47.48 176.67,45.00 177.07,49.99 177.16,49.21 184.65,47.37 185.59,52.34 185.67,50.71 186.89,55.65 186.99,60.54 187.03,58.71 187.13,56.78 187.59,54.12 187.77,51.51 188.25,51.12 188.78,48.76 188.92,45.90 188.96,43.02 189.26,42.44 189.30,47.45 190.06,44.79 191.02,42.22 191.89,41.80 192.11,40.96 194.05,45.99 194.71,43.10 194.82,42.47 195.05,40.72 197.62,38.38 197.93,35.96 204.92,41.02 206.90,38.60 208.20,43.64 208.33,48.64 208.44,50.05 212.95,47.19 215.29,52.15 215.94,51.30 218.95,48.73 219.28,53.69 219.29,58.59 219.38,57.89 219.44,62.75 219.53,62.51 219.66,67.35 226.45,72.15 226.46,76.89 226.67,77.80 227.14,75.07 227.42,79.80 227.62,78.16 227.87,75.72 228.25,75.16 230.49,72.94 231.01,71.03 231.60,75.79 231.73,75.49 233.33,73.57 233.79,78.31 234.26,83.01 234.31,80.72 240.32,85.40 247.48,90.03 251.26,87.90 251.97,86.34 252.50,90.96 253.57,95.54 255.60,94.07 258.33,93.23 258.49,90.71 260.41,95.29 260.53,96.10 260.64,97.36 261.32,95.22 261.61,94.28 270.58,92.87 272.56,90.92 273.33,95.51 273.42,94.96 273.53,94.37 273.98,92.30 274.12,96.87 275.28,94.93 276.16,94.06 278.74,93.41 279.42,91.04 279.50,88.38 279.65,86.42 281.93,84.17 289.77,81.47 291.20,78.76 294.53,76.45 297.58,81.18 297.66,79.80 297.83,79.94 298.30,77.08 300.05,74.78 300.50,79.51 300.57,84.20 300.61,82.45 300.71,87.11 300.75,85.42 300.88,90.05 301.30,87.59 303.07,86.04 303.39,90.67 303.47,89.70 303.57,88.71 303.73,86.33 303.86,84.04 304.05,82.60 310.92,80.82 312.10,78.57 312.29,76.02 312.76,75.57 312.92,74.09 313.02,71.66 313.38,76.42 315.12,74.09 315.46,71.96 315.86,69.77 316.40,67.16 318.58,65.74 318.95,62.94 318.98,60.34 319.11,57.74 319.39,55.50 322.04,53.36 324.79,51.61 324.91,56.55 332.99,53.97 334.11,51.81 336.76,50.17 337.28,47.54 338.50,44.65 342.97,49.65 343.05,47.48 343.20,45.78 343.56,44.98 353.37,44.38 355.28,41.76 355.49,39.70 356.51,36.77 357.73,41.83 359.73,46.85 360.98,44.82 361.62,42.14 363.51,39.78 364.55,44.83 364.70,46.04 364.74,44.34 365.57,41.43 376.33,46.45 376.37,43.96 376.70,48.96 382.37,53.92 386.08,51.66 387.45,50.53 396.05,48.73 397.81,48.94 400.11,46.49 403.69,43.61 409.10,48.62 409.75,45.97 419.31,50.96 419.45,52.17 421.83,50.03 425.50,47.15 427.88,52.12 440.12,57.06 440.27,55.39 440.36,60.26 443.25,58.48 445.98,56.64 446.17,53.97 448.96,52.35 449.00,49.48 449.06,54.43 449.09,52.05 452.02,49.18 452.05,46.67 452.20,45.37 452.52,42.46 465.62,39.54 467.20,38.01 468.63,36.12 473.91,41.19 484.89,38.54 488.51,43.60 488.62,43.61 489.05,40.71 490.86,37.79 491.85,35.39 492.00,35.23 492.09,40.31 494.51,37.59 506.01,35.52 506.82,40.59 509.68,37.83 509.89,35.12 512.77,34.77 527.48,39.86 527.55,38.00 527.65,43.05 528.07,40.96 530.26,38.03 533.73,35.25 534.17,33.63 536.81,30.65 536.87,35.78 536.92,40.84 537.05,38.62 537.17,43.68 537.57,42.52 545.33,47.54 548.34,47.12 548.70,44.71 548.91,49.72 549.73,48.80 552.16,53.76 552.66,51.49 554.99,48.82 555.33,50.45 555.55,47.87 557.93,45.24 566.37,43.79 567.50,43.34 573.88,48.36 573.96,47.35 576.89,52.34 579.69,51.57 591.12,50.32 591.83,55.27 594.21,52.41 595.08,49.53 598.07,49.58 612.65,47.88 615.99,44.99 618.57,42.08 630.03,39.58 633.64,40.80 640.23,39.22 657.29,38.60 660.84,35.67 672.58,34.45 682.55,32.66 682.88,30.16 697.45,28.52 699.58,25.80 700.76,25.32 706.76,30.49 706.90,30.43 715.12,28.51 715.72,33.65 727.60,30.68 727.82,35.80 727.93,36.19 728.03,41.27 728.07,39.26 743.48,44.31 757.68,43.12 764.18,48.13 764.28,46.23 764.47,47.04 769.45,46.53 788.88,51.52 789.00,51.87 800.58,52.02 803.78,56.95 806.90,55.29 812.48,53.00 812.86,57.92 824.00,58.50 827.65,57.13 830.60,54.28 842.87,52.91 846.41,52.24 866.32,51.41 870.65,48.78 873.25,48.32 876.01,45.90 883.69,50.89 883.74,49.39 887.53,46.75 891.20,44.92 897.19,42.41 897.36,47.43 918.89,46.38 930.35,45.09 936.49,42.17 947.17,39.71 952.11,38.03 954.94,37.22 970.28,35.75 970.36,34.51 970.45,39.59 973.12,38.39 976.48,36.03 982.34,33.70 991.77,32.01 993.64,37.12 993.72,36.13 993.85,35.98 1021.57,33.55 1033.92,30.57 1041.89,28.10 1045.48,28.04 1064.12,28.00 1065.01,25.00 1066.01,30.16 1067.11,29.92 1074.36,28.70 1088.14,29.24 1088.20,34.37 1096.44,39.46 1096.51,37.88 1097.56,35.12 1100.10,33.55 1109.27,38.64 1109.46,39.05 1109.57,39.84 1120.70,40.37 1125.89,38.01 1126.04,35.90 1126.24,35.75 1128.98,34.18 1130.71,33.95 1142.74,30.98 1145.78,28.94 1164.03,34.08 1168.96,33.81 1170.00,32.30"/>
<text x="620.0" y="588" text-anchor="middle" font-family="sans-serif" font-size="12" fill="#333">UTC time</text>
<text x="15" y="287.5" transform="rotate(-90 15,287.5)" text-anchor="middle" font-family="sans-serif" font-size="12" fill="#333">Capital</text>
</svg>