<svg xmlns="http://www.w3.org/2000/svg" width="1200" height="600" viewBox="0 0 1200 600">
<desc>Equity curve with drawdown fill</desc>
<text x="600.0" y="18.0" text-anchor="middle" font-family="sans-serif" font-size="14">Portfolio 2005</text>
<rect x="70" y="25" width="1100" height="525" fill="white" stroke="#ccc" />
<line x1="70" y1="550.00" x2="1170" y2="550.00" stroke="#eee"/>
<text x="62" y="554.0" text-anchor="end" font-family="sans-serif" font-size="11" fill="#555">0.00</text>
<line x1="70" y1="445.00" x2="1170" y2="445.00" stroke="#eee"/>
<text x="62" y="449.0" text-anchor="end" font-family="sans-serif" font-size="11" fill="#555">20000</text>
<line x1="70" y1="340.00" x2="1170" y2="340.00" stroke="#eee"/>
<text x="62" y="344.0" text-anchor="end" font-family="sans-serif" font-size="11" fill="#555">40000</text>
<line x1="70" y1="235.00" x2="1170" y2="235.00" stroke="#eee"/>
<text x="62" y="239.0" text-anchor="end" font-family="sans-serif" font-size="11" fill="#555">60000</text>
<line x1="70" y1="130.00" x2="1170" y2="130.00" stroke="#eee"/>
<text x="62" y="134.0" text-anchor="end" font-family="sans-serif" font-size="11" fill="#555">80000</text>
<line x1="70" y1="25.00" x2="1170" y2="25.00" stroke="#eee"/>
<text x="62" y="29.0" text-anchor="end" font-family="sans-serif" font-size="11" fill="#555">100000</text>
<line x1="154.68" y1="25" x2="154.68" y2="550" stroke="#f2f2f2"/>
<text x="154.68" y="566" text-anchor="middle" font-family="sans-serif" font-size="11" fill="#555">Feb</text>
<line x1="240.63" y1="25" x2="240.63" y2="550" stroke="#f2f2f2"/>
<text x="240.63" y="566" text-anchor="middle" font-family="sans-serif" font-size="11" fill="#555">Mar</text>
<line x1="335.80" y1="25" x2="335.80" y2="550" stroke="#f2f2f2"/>
<text x="335.80" y="566" text-anchor="middle" font-family="sans-serif" font-size="11" fill="#555">Apr</text>
<line x1="427.90" y1="25" x2="427.90" y2="550" stroke="#f2f2f2"/>
<text x="427.90" y="566" text-anchor="middle" font-family="sans-serif" font-size="11" fill="#555">May</text>
<line x1="523.06" y1="25" x2="523.06" y2="550" stroke="#f2f2f2"/>
<text x="523.06" y="566" text-anchor="middle" font-family="sans-serif" font-size="11" fill="#555">Jun</text>
<line x1="615.16" y1="25" x2="615.16" y2="550" stroke="#f2f2f2"/>
<text x="615.16" y="566" text-anchor="middle" font-family="sans-serif" font-size="11" fill="#555">Jul</text>
<line x1="710.32" y1="25" x2="710.32" y2="550" stroke="#f2f2f2"/>
<text x="710.32" y="566" text-anchor="middle" font-family="sans-serif" font-size="11" fill="#555">Aug</text>
<line x1="805.49" y1="25" x2="805.49" y2="550" stroke="#f2f2f2"/>
<text x="805.49" y="566" text-anchor="middle" font-family="sans-serif" font-size="11" fill="#555">Sep</text>
<line x1="897.58" y1="25" x2="897.58" y2="550" stroke="#f2f2f2"/>
<text x="897.58" y="566" text-anchor="middle" font-family="sans-serif" font-size="11" fill="#555">Oct</text>
<line x1="992.75" y1="25" x2="992.75" y2="550" stroke="#f2f2f2"/>
<text x="992.75" y="566" text-anchor="middle" font-family="sans-serif" font-size="11" fill="#555">Nov</text>
<line x1="1084.84" y1="25" x2="1084.84" y2="550" stroke="#f2f2f2"/>
<text x="1084.84" y="566" text-anchor="middle" font-family="sans-serif" font-size="11" fill="#555">Dec</text>
<line x1="70" y1="550" x2="1170" y2="550" stroke="#888"/>
<line x1="70" y1="25" x2="70" y2="550" stroke="#888"/>
<path d="M 70.00 25.00 L 70.84 25.00 L 76.01 25.00 L 79.66 25.00 L 79.90 25.00 L 79.94 25.00 L 80.01 25.00 L 80.13 25.00 L 95.01 25.00 L 95.19 25.00 L 95.20 25.00 L 95.32 25.00 L 95.38 25.00 L 99.76 25.00 L 100.59 25.00 L 115.99 25.00 L 135.33 25.00 L 144.41 25.00 L 162.70 25.00 L 165.62 25.00 L 165.67 25.00 L 166.10 25.00 L 175.30 25.00 L 184.22 25.00 L 184.38 25.00 L 184.43 25.00 L 194.85 25.00 L 199.45 25.00 L 202.77 25.00 L 219.58 25.00 L 219.61 25.00 L 251.64 25.00 L 264.15 25.00 L 268.59 25.00 L 273.10 25.00 L 285.55 25.00 L 288.48 25.00 L 307.63 25.00 L 309.92 25.00 L 325.32 25.00 L 337.53 25.00 L 337.72 25.00 L 337.88 25.00 L 359.46 25.00 L 371.39 25.00 L 374.57 25.00 L 377.64 25.00 L 380.86 25.00 L 389.17 25.00 L 396.16 25.00 L 399.49 25.00 L 410.83 25.00 L 417.46 25.00 L 424.18 25.00 L 437.58 25.00 L 444.97 25.00 L 445.16 25.00 L 445.20 25.00 L 460.32 25.00 L 463.39 25.00 L 488.19 25.00 L 520.29 25.00 L 520.38 25.00 L 521.51 25.00 L 524.28 25.00 L 527.22 25.00 L 530.12 25.00 L 530.93 25.00 L 531.39 25.00 L 546.92 25.00 L 549.64 25.00 L 552.63 25.00 L 564.87 25.00 L 568.10 25.00 L 571.14 25.00 L 573.71 25.00 L 574.23 25.00 L 581.37 25.00 L 583.40 25.00 L 592.39 25.00 L 611.21 25.00 L 624.25 25.00 L 624.42 25.00 L 628.72 25.00 L 634.91 25.00 L 634.94 25.00 L 635.07 25.00 L 635.36 25.00 L 638.61 25.00 L 648.00 25.00 L 649.43 25.00 L 653.90 25.00 L 659.99 25.00 L 673.81 25.00 L 675.55 25.00 L 675.85 25.00 L 675.97 25.00 L 678.15 25.00 L 678.17 25.00 L 678.64 25.00 L 679.00 25.00 L 681.92 25.00 L 696.84 25.00 L 717.76 25.00 L 717.92 25.00 L 717.99 25.00 L 719.86 25.00 L 721.67 25.00 L 724.43 25.00 L 745.91 25.00 L 782.85 25.00 L 798.55 25.00 L 804.39 25.00 L 804.48 25.00 L 804.58 25.00 L 807.56 25.00 L 807.96 25.00 L 809.72 25.00 L 839.77 25.00 L 852.31 25.00 L 860.67 25.00 L 872.04 25.00 L 903.99 25.00 L 913.14 25.00 L 914.85 25.00 L 927.04 25.00 L 936.67 25.00 L 939.26 25.00 L 939.58 25.00 L 953.89 25.00 L 954.15 25.00 L 959.15 25.00 L 961.21 25.00 L 970.39 25.00 L 972.59 25.00 L 973.30 25.00 L 982.25 25.00 L 997.89 25.00 L 1000.73 25.00 L 1003.78 25.00 L 1003.94 25.00 L 1003.99 25.00 L 1004.15 25.00 L 1014.40 25.00 L 1046.78 25.00 L 1046.86 25.00 L 1056.19 25.00 L 1059.69 25.00 L 1061.08 25.00 L 1077.72 25.00 L 1078.13 25.00 L 1080.52 25.00 L 1086.57 25.00 L 1098.85 25.00 L 1107.46 25.00 L 1108.36 25.00 L 1119.82 25.00 L 1120.27 25.00 L 1120.39 25.00 L 1124.16 25.00 L 1125.05 25.00 L 1129.87 25.00 L 1145.17 25.00 L 1148.24 25.00 L 1151.32 25.00 L 1168.83 25.00 L 1169.92 25.00 L 1170.00 25.00 L 1170.00 126.24 L 1169.92 127.73 L 1168.83 121.41 L 1151.32 117.35 L 1148.24 119.84 L 1145.17 118.58 L 1129.87 118.96 L 1125.05 118.38 L 1124.16 111.91 L 1120.39 115.59 L 1120.27 118.00 L 1119.82 121.33 L 1108.36 123.69 L 1107.46 125.48 L 1098.85 127.63 L 1086.57 128.84 L 1080.52 131.70 L 1078.13 133.31 L 1077.72 135.47 L 1061.08 129.31 L 1059.69 132.85 L 1056.19 126.64 L 1046.86 120.31 L 1046.78 121.81 L 1014.40 115.39 L 1004.15 108.86 L 1003.99 102.22 L 1003.94 95.44 L 1003.78 88.56 L 1000.73 91.79 L 997.89 91.93 L 982.25 93.72 L 973.30 97.27 L 972.59 95.89 L 970.39 93.72 L 961.21 96.83 L 959.15 89.96 L 954.15 93.52 L 953.89 96.92 L 939.58 98.13 L 939.26 91.29 L 936.67 94.87 L 927.04 98.77 L 914.85 98.98 L 913.14 92.17 L 903.99 95.65 L 872.04 88.77 L 860.67 87.24 L 852.31 89.24 L 839.77 91.19 L 809.72 84.24 L 807.96 87.07 L 807.56 91.05 L 804.58 84.09 L 804.48 77.01 L 804.39 78.41 L 798.55 71.24 L 782.85 72.25 L 745.91 70.36 L 724.43 63.05 L 721.67 66.56 L 719.86 68.04 L 717.99 71.55 L 717.92 72.03 L 717.76 69.49 L 696.84 62.18 L 681.92 63.77 L 679.00 61.44 L 678.64 62.23 L 678.17 61.84 L 678.15 65.90 L 675.97 58.53 L 675.85 51.06 L 675.55 43.44 L 673.81 43.89 L 659.99 45.67 L 653.90 44.39 L 649.43 43.20 L 648.00 44.23 L 638.61 42.83 L 635.36 43.80 L 635.07 47.23 L 634.94 50.53 L 634.91 54.63 L 628.72 47.08 L 624.42 50.79 L 624.25 51.22 L 611.21 43.62 L 592.39 46.75 L 583.40 48.93 L 581.37 46.84 L 574.23 46.01 L 573.71 48.51 L 571.14 52.00 L 568.10 53.37 L 564.87 55.46 L 552.63 47.94 L 549.64 40.30 L 546.92 43.52 L 531.39 35.80 L 530.93 37.10 L 530.12 41.53 L 527.22 45.92 L 524.28 48.99 L 521.51 52.57 L 520.38 52.65 L 520.29 54.36 L 488.19 46.82 L 463.39 43.27 L 460.32 47.65 L 445.20 52.00 L 445.16 54.51 L 444.97 51.92 L 437.58 56.23 L 424.18 48.71 L 417.46 50.60 L 410.83 53.22 L 399.49 55.09 L 396.16 57.05 L 389.17 59.99 L 380.86 58.92 L 377.64 57.60 L 374.57 61.82 L 371.39 60.11 L 359.46 52.67 L 337.88 45.10 L 337.72 45.03 L 337.53 49.40 L 325.32 53.88 L 309.92 57.07 L 307.63 60.97 L 288.48 53.53 L 285.55 56.43 L 273.10 57.97 L 268.59 61.09 L 264.15 64.52 L 251.64 57.15 L 219.61 61.41 L 219.58 64.98 L 202.77 57.61 L 199.45 58.68 L 194.85 60.43 L 184.43 61.86 L 184.38 63.82 L 184.22 62.13 L 175.30 54.72 L 166.10 47.18 L 165.67 50.62 L 165.62 54.93 L 162.70 59.21 L 144.41 58.33 L 135.33 60.92 L 115.99 57.40 L 100.59 56.28 L 99.76 60.20 L 95.38 64.43 L 95.32 66.77 L 95.20 65.64 L 95.19 58.40 L 95.01 50.92 L 80.13 55.24 L 80.01 47.73 L 79.94 50.15 L 79.90 42.55 L 79.66 34.83 L 76.01 39.28 L 70.84 40.61 L 70.00 32.86 Z" fill="#d0d0d0" fill-opacity="0.5" stroke="none"/>
<polyline fill="none" stroke="#111" stroke-width="1.2" points="70.00,32.86 70.84,40.61 76.01,39.28 79.66,34.83 79.90,42.55 79.94,50.15 80.01,47.73 80.13,55.24 95.01,50.92 95.19,58.40 95.20,65.64 95.32,66.77 95.38,64.43 99.76,60.20 100.59,56.28 115.99,57.40 135.33,60.92 144.41,58.33 162.70,59.21 165.62,54.93 165.67,50.62 166.10,47.18 175.30,54.72 184.22,62.13 184.38,63.82 184.43,61.86 194.85,60.43 199.45,58.68 202.77,57.61 219.58,64.98 219.61,61.41 251.64,57.15 264.15,64.52 268.59,61.09 273.10,57.97 285.55,56.43 288.48,53.53 307.63,60.97 309.92,57.07 325.32,53.88 337.53,49.40 337.72,45.03 337.88,45.10 359.46,52.67 371.39,60.11 374.57,61.82 377.64,57.60 380.86,58.92 389.17,59.99 396.16,57.05 399.49,55.09 410.83,53.22 417.46,50.60 424.18,48.71 437.58,56.23 444.97,51.92 445.16,54.51 445.20,52.00 460.32,47.65 463.39,43.27 488.19,46.82 520.29,54.36 520.38,52.65 521.51,52.57 524.28,48.99 527.22,45.92 530.12,41.53 530.93,37.10 531.39,35.80 546.92,43.52 549.64,40.30 552.63,47.94 564.87,55.46 568.10,53.37 571.14,52.00 573.71,48.51 574.23,46.01 581.37,46.84 583.40,48.93 592.39,46.75 611.21,43.62 624.25,51.22 624.42,50.79 628.72,47.08 634.91,54.63 634.94,50.53 635.07,47.23 635.36,43.80 638.61,42.83 648.00,44.23 649.43,43.20 653.90,44.39 659.99,45.67 673.81,43.89 675.55,43.44 675.85,51.06 675.97,58.53 678.15,65.90 678.17,61.84 678.64,62.23 679.00,61.44 681.92,63.77 696.84,62.18 717.76,69.49 717.92,72.03 717.99,71.55 719.86,68.04 721.67,66.56 724.43,63.05 745.91,70.36 782.85,72.25 798.55,71.24 804.39,78.41 804.48,77.01 804.58,84.09 807.56,91.05 807.96,87.07 809.72,84.24 839.77,91.19 852.31,89.24 860.67,87.24 872.04,88.77 903.99,95.65 913.14,92.17 914.85,98.98 927.04,98.77 936.67,94.87 939.26,91.29 939.58,98.13 953.89,96.92 954.15,93.52 959.15,89.96 961.21,96.83 970.39,93.72 972.59,95.89 973.30,97.27 982.25,93.72 997.89,91.93 1000.73,91.79 1003.78,88.56 1003.94,95.44 1003.99,102.22 1004.15,108.86 1014.40,115.39 1046.78,121.81 1046.86,120.31 1056.19,126.64 1059.69,132.85 1061.08,129.31 1077.72,135.47 1078.13,133.31 1080.52,131.70 1086.57,128.84 1098.85,127.63 1107.46,125.48 1108.36,123.69 1119.82,121.33 1120.27,118.00 1120.39,115.59 1124.16,111.91 1125.05,118.38 1129.87,118.96 1145.17,118.58 1148.24,119.84 1151.32,117.35 1168.83,121.41 1169.92,127.73 1170.00,126.24"/>
<text x="620.0" y="588" text-anchor="middle" font-family="sans-serif" font-size="12" fill="#333">UTC time</text>
<text x="15" y="287.5" transform="rotate(-90 15,287.5)" text-anchor="middle" font-family="sans-serif" font-size="12" fill="#333">Capital</text>
</svg>