<svg xmlns="http://www.w3.org/2000/svg" width="1200" height="600" viewBox="0 0 1200 600">
<desc>Equity curve with drawdown fill</desc>
<text x="600.0" y="18.0" text-anchor="middle" font-family="sans-serif" font-size="14">Portfolio 2023</text>
<rect x="70" y="25" width="1100" height="525" fill="white" stroke="#ccc" />
<line x1="70" y1="550.00" x2="1170" y2="550.00" stroke="#eee"/>
<text x="62" y="554.0" text-anchor="end" font-family="sans-serif" font-size="11" fill="#555">0.00</text>
<line x1="70" y1="445.00" x2="1170" y2="445.00" stroke="#eee"/>
<text x="62" y="449.0" text-anchor="end" font-family="sans-serif" font-size="11" fill="#555">20897</text>
<line x1="70" y1="340.00" x2="1170" y2="340.00" stroke="#eee"/>
<text x="62" y="344.0" text-anchor="end" font-family="sans-serif" font-size="11" fill="#555">41794</text>
<line x1="70" y1="235.00" x2="1170" y2="235.00" stroke="#eee"/>
<text x="62" y="239.0" text-anchor="end" font-family="sans-serif" font-size="11" fill="#555">62691</text>
<line x1="70" y1="130.00" x2="1170" y2="130.00" stroke="#eee"/>
<text x="62" y="134.0" text-anchor="end" font-family="sans-serif" font-size="11" fill="#555">83588</text>
<line x1="70" y1="25.00" x2="1170" y2="25.00" stroke="#eee"/>
<text x="62" y="29.0" text-anchor="end" font-family="sans-serif" font-size="11" fill="#555">104485</text>
<line x1="157.75" y1="25" x2="157.75" y2="550" stroke="#f2f2f2"/>
<text x="157.75" y="566" text-anchor="middle" font-family="sans-serif" font-size="11" fill="#555">Feb</text>
<line x1="243.48" y1="25" x2="243.48" y2="550" stroke="#f2f2f2"/>
<text x="243.48" y="566" text-anchor="middle" font-family="sans-serif" font-size="11" fill="#555">Mar</text>
<line x1="338.40" y1="25" x2="338.40" y2="550" stroke="#f2f2f2"/>
<text x="338.40" y="566" text-anchor="middle" font-family="sans-serif" font-size="11" fill="#555">Apr</text>
<line x1="430.26" y1="25" x2="430.26" y2="550" stroke="#f2f2f2"/>
<text x="430.26" y="566" text-anchor="middle" font-family="sans-serif" font-size="11" fill="#555">May</text>
<line x1="525.18" y1="25" x2="525.18" y2="550" stroke="#f2f2f2"/>
<text x="525.18" y="566" text-anchor="middle" font-family="sans-serif" font-size="11" fill="#555">Jun</text>
<line x1="617.04" y1="25" x2="617.04" y2="550" stroke="#f2f2f2"/>
<text x="617.04" y="566" text-anchor="middle" font-family="sans-serif" font-size="11" fill="#555">Jul</text>
<line x1="711.96" y1="25" x2="711.96" y2="550" stroke="#f2f2f2"/>
<text x="711.96" y="566" text-anchor="middle" font-family="sans-serif" font-size="11" fill="#555">Aug</text>
<line x1="806.88" y1="25" x2="806.88" y2="550" stroke="#f2f2f2"/>
<text x="806.88" y="566" text-anchor="middle" font-family="sans-serif" font-size="11" fill="#555">Sep</text>
<line x1="898.74" y1="25" x2="898.74" y2="550" stroke="#f2f2f2"/>
<text x="898.74" y="566" text-anchor="middle" font-family="sans-serif" font-size="11" fill="#555">Oct</text>
<line x1="993.66" y1="25" x2="993.66" y2="550" stroke="#f2f2f2"/>
<text x="993.66" y="566" text-anchor="middle" font-family="sans-serif" font-size="11" fill="#555">Nov</text>
<line x1="1085.52" y1="25" x2="1085.52" y2="550" stroke="#f2f2f2"/>
<text x="1085.52" y="566" text-anchor="middle" font-family="sans-serif" font-size="11" fill="#555">Dec</text>
<line x1="70" y1="550" x2="1170" y2="550" stroke="#888"/>
<line x1="70" y1="25" x2="70" y2="550" stroke="#888"/>
<path d="M 70.00 47.54 L 70.11 47.54 L 70.14 47.54 L 70.85 47.54 L 73.12 47.54 L 76.98 47.54 L 79.94 47.54 L 80.08 47.54 L 80.32 47.54 L 80.46 47.54 L 89.09 47.54 L 98.23 47.54 L 98.31 47.54 L 98.86 47.54 L 113.91 47.54 L 116.01 47.54 L 116.74 47.54 L 117.17 47.54 L 138.27 47.54 L 160.73 47.54 L 162.61 47.54 L 162.76 47.54 L 165.59 47.54 L 165.76 47.54 L 165.82 47.54 L 178.41 47.54 L 199.28 47.54 L 199.28 49.94 L 178.41 52.77 L 165.82 47.75 L 165.76 50.16 L 165.59 51.98 L 162.76 54.93 L 162.61 57.23 L 160.73 59.42 L 138.27 61.52 L 117.17 63.53 L 116.74 63.45 L 116.01 65.99 L 113.91 64.72 L 98.86 65.33 L 98.31 66.52 L 98.23 68.93 L 89.09 71.67 L 80.46 73.31 L 80.32 71.08 L 80.08 66.88 L 79.94 62.01 L 76.98 64.07 L 73.12 59.17 L 70.85 60.15 L 70.14 62.39 L 70.11 57.52 L 70.00 52.55 Z" fill="#d0d0d0" fill-opacity="0.5" stroke="none"/>
<path d="M 264.22 40.88 L 273.13 40.88 L 280.66 40.88 L 281.47 40.88 L 281.47 42.02 L 280.66 43.10 L 273.13 44.12 L 264.22 45.97 Z" fill="#d0d0d0" fill-opacity="0.5" stroke="none"/>
<path d="M 287.69 39.39 L 288.01 39.39 L 288.30 39.39 L 288.52 39.39 L 303.46 39.39 L 313.27 39.39 L 314.96 39.39 L 315.35 39.39 L 315.44 39.39 L 367.70 39.39 L 373.87 39.39 L 373.87 41.23 L 367.70 42.53 L 315.44 44.28 L 315.35 44.15 L 314.96 45.11 L 313.27 47.38 L 303.46 50.01 L 288.52 52.54 L 288.30 51.69 L 288.01 49.55 L 287.69 44.50 Z" fill="#d0d0d0" fill-opacity="0.5" stroke="none"/>
<path d="M 389.70 38.89 L 389.70 40.14 Z" fill="#d0d0d0" fill-opacity="0.5" stroke="none"/>
<path d="M 570.26 25.00 L 593.63 25.00 L 612.86 25.00 L 616.10 25.00 L 637.15 25.00 L 652.46 25.00 L 677.47 25.00 L 688.67 25.00 L 698.83 25.00 L 698.92 25.00 L 701.46 25.00 L 717.02 25.00 L 722.96 25.00 L 753.69 25.00 L 780.45 25.00 L 799.68 25.00 L 809.11 25.00 L 848.41 25.00 L 867.50 25.00 L 915.81 25.00 L 915.85 25.00 L 916.18 25.00 L 934.18 25.00 L 956.04 25.00 L 991.88 25.00 L 1001.38 25.00 L 1001.46 25.00 L 1001.57 25.00 L 1035.19 25.00 L 1035.37 25.00 L 1035.44 25.00 L 1096.57 25.00 L 1108.68 25.00 L 1124.72 25.00 L 1124.87 25.00 L 1127.16 25.00 L 1130.16 25.00 L 1170.00 25.00 L 1170.00 33.13 L 1130.16 35.31 L 1127.16 37.08 L 1124.87 39.14 L 1124.72 37.78 L 1108.68 32.61 L 1096.57 35.56 L 1035.44 37.69 L 1035.37 32.51 L 1035.19 27.29 L 1001.57 30.27 L 1001.46 32.45 L 1001.38 34.41 L 991.88 37.34 L 956.04 39.97 L 934.18 42.66 L 916.18 45.32 L 915.85 40.23 L 915.81 42.54 L 867.50 37.42 L 848.41 40.07 L 809.11 34.92 L 799.68 32.36 L 780.45 33.53 L 753.69 35.67 L 722.96 37.32 L 717.02 32.14 L 701.46 34.51 L 698.92 35.39 L 698.83 34.90 L 688.67 32.55 L 677.47 32.32 L 652.46 27.09 L 637.15 29.79 L 616.10 32.74 L 612.86 33.60 L 593.63 35.44 L 570.26 30.25 Z" fill="#d0d0d0" fill-opacity="0.5" stroke="none"/>
<polyline fill="none" stroke="#111" stroke-width="1.2" points="70.00,52.55 70.11,57.52 70.14,62.39 70.85,60.15 73.12,59.17 76.98,64.07 79.94,62.01 80.08,66.88 80.32,71.08 80.46,73.31 89.09,71.67 98.23,68.93 98.31,66.52 98.86,65.33 113.91,64.72 116.01,65.99 116.74,63.45 117.17,63.53 138.27,61.52 160.73,59.42 162.61,57.23 162.76,54.93 165.59,51.98 165.76,50.16 165.82,47.75 178.41,52.77 199.28,49.94 199.42,47.31 199.60,44.92 208.71,42.53 245.19,40.88 264.22,45.97 273.13,44.12 280.66,43.10 281.47,42.02 282.29,39.39 287.69,44.50 288.01,49.55 288.30,51.69 288.52,52.54 303.46,50.01 313.27,47.38 314.96,45.11 315.35,44.15 315.44,44.28 367.70,42.53 373.87,41.23 380.15,38.89 389.70,40.14 413.96,38.05 438.82,35.12 441.57,34.65 444.23,31.69 459.73,28.92 461.97,27.72 527.11,25.00 570.26,30.25 593.63,35.44 612.86,33.60 616.10,32.74 637.15,29.79 652.46,27.09 677.47,32.32 688.67,32.55 698.83,34.90 698.92,35.39 701.46,34.51 717.02,32.14 722.96,37.32 753.69,35.67 780.45,33.53 799.68,32.36 809.11,34.92 848.41,40.07 867.50,37.42 915.81,42.54 915.85,40.23 916.18,45.32 934.18,42.66 956.04,39.97 991.88,37.34 1001.38,34.41 1001.46,32.45 1001.57,30.27 1035.19,27.29 1035.37,32.51 1035.44,37.69 1096.57,35.56 1108.68,32.61 1124.72,37.78 1124.87,39.14 1127.16,37.08 1130.16,35.31 1170.00,33.13"/>
<text x="620.0" y="588" text-anchor="middle" font-family="sans-serif" font-size="12" fill="#333">UTC time</text>
<text x="15" y="287.5" transform="rotate(-90 15,287.5)" text-anchor="middle" font-family="sans-serif" font-size="12" fill="#333">Capital</text>
</svg>