<svg xmlns="http://www.w3.org/2000/svg" width="1200" height="600" viewBox="0 0 1200 600">
<desc>Equity curve with drawdown fill</desc>
<text x="600.0" y="18.0" text-anchor="middle" font-family="sans-serif" font-size="14">Portfolio 2013</text>
<rect x="70" y="25" width="1100" height="525" fill="white" stroke="#ccc" />
<line x1="70" y1="550.00" x2="1170" y2="550.00" stroke="#eee"/>
<text x="62" y="554.0" text-anchor="end" font-family="sans-serif" font-size="11" fill="#555">0.00</text>
<line x1="70" y1="445.00" x2="1170" y2="445.00" stroke="#eee"/>
<text x="62" y="449.0" text-anchor="end" font-family="sans-serif" font-size="11" fill="#555">20000</text>
<line x1="70" y1="340.00" x2="1170" y2="340.00" stroke="#eee"/>
<text x="62" y="344.0" text-anchor="end" font-family="sans-serif" font-size="11" fill="#555">40000</text>
<line x1="70" y1="235.00" x2="1170" y2="235.00" stroke="#eee"/>
<text x="62" y="239.0" text-anchor="end" font-family="sans-serif" font-size="11" fill="#555">60000</text>
<line x1="70" y1="130.00" x2="1170" y2="130.00" stroke="#eee"/>
<text x="62" y="134.0" text-anchor="end" font-family="sans-serif" font-size="11" fill="#555">80000</text>
<line x1="70" y1="25.00" x2="1170" y2="25.00" stroke="#eee"/>
<text x="62" y="29.0" text-anchor="end" font-family="sans-serif" font-size="11" fill="#555">100000</text>
<line x1="159.76" y1="25" x2="159.76" y2="550" stroke="#f2f2f2"/>
<text x="159.76" y="566" text-anchor="middle" font-family="sans-serif" font-size="11" fill="#555">Feb</text>
<line x1="245.61" y1="25" x2="245.61" y2="550" stroke="#f2f2f2"/>
<text x="245.61" y="566" text-anchor="middle" font-family="sans-serif" font-size="11" fill="#555">Mar</text>
<line x1="340.66" y1="25" x2="340.66" y2="550" stroke="#f2f2f2"/>
<text x="340.66" y="566" text-anchor="middle" font-family="sans-serif" font-size="11" fill="#555">Apr</text>
<line x1="432.64" y1="25" x2="432.64" y2="550" stroke="#f2f2f2"/>
<text x="432.64" y="566" text-anchor="middle" font-family="sans-serif" font-size="11" fill="#555">May</text>
<line x1="527.69" y1="25" x2="527.69" y2="550" stroke="#f2f2f2"/>
<text x="527.69" y="566" text-anchor="middle" font-family="sans-serif" font-size="11" fill="#555">Jun</text>
<line x1="619.68" y1="25" x2="619.68" y2="550" stroke="#f2f2f2"/>
<text x="619.68" y="566" text-anchor="middle" font-family="sans-serif" font-size="11" fill="#555">Jul</text>
<line x1="714.72" y1="25" x2="714.72" y2="550" stroke="#f2f2f2"/>
<text x="714.72" y="566" text-anchor="middle" font-family="sans-serif" font-size="11" fill="#555">Aug</text>
<line x1="809.77" y1="25" x2="809.77" y2="550" stroke="#f2f2f2"/>
<text x="809.77" y="566" text-anchor="middle" font-family="sans-serif" font-size="11" fill="#555">Sep</text>
<line x1="901.76" y1="25" x2="901.76" y2="550" stroke="#f2f2f2"/>
<text x="901.76" y="566" text-anchor="middle" font-family="sans-serif" font-size="11" fill="#555">Oct</text>
<line x1="996.81" y1="25" x2="996.81" y2="550" stroke="#f2f2f2"/>
<text x="996.81" y="566" text-anchor="middle" font-family="sans-serif" font-size="11" fill="#555">Nov</text>
<line x1="1088.79" y1="25" x2="1088.79" y2="550" stroke="#f2f2f2"/>
<text x="1088.79" y="566" text-anchor="middle" font-family="sans-serif" font-size="11" fill="#555">Dec</text>
<line x1="70" y1="550" x2="1170" y2="550" stroke="#888"/>
<line x1="70" y1="25" x2="70" y2="550" stroke="#888"/>
<path d="M 70.00 25.00 L 94.09 25.00 L 97.11 25.00 L 110.12 25.00 L 118.52 25.00 L 130.29 25.00 L 134.22 25.00 L 161.68 25.00 L 161.91 25.00 L 174.15 25.00 L 179.93 25.00 L 180.09 25.00 L 180.10 25.00 L 180.22 25.00 L 180.34 25.00 L 194.98 25.00 L 200.90 25.00 L 220.45 25.00 L 222.22 25.00 L 225.59 25.00 L 235.39 25.00 L 235.42 25.00 L 235.62 25.00 L 235.83 25.00 L 265.77 25.00 L 268.80 25.00 L 268.88 25.00 L 268.95 25.00 L 284.39 25.00 L 287.84 25.00 L 297.73 25.00 L 299.02 25.00 L 302.99 25.00 L 311.97 25.00 L 319.28 25.00 L 321.03 25.00 L 351.60 25.00 L 351.79 25.00 L 354.65 25.00 L 354.67 25.00 L 354.97 25.00 L 388.34 25.00 L 388.93 25.00 L 391.70 25.00 L 409.38 25.00 L 416.27 25.00 L 431.51 25.00 L 437.51 25.00 L 437.60 25.00 L 437.76 25.00 L 440.51 25.00 L 440.73 25.00 L 459.72 25.00 L 462.34 25.00 L 483.47 25.00 L 498.99 25.00 L 499.03 25.00 L 517.46 25.00 L 520.03 25.00 L 520.08 25.00 L 523.50 25.00 L 535.90 25.00 L 536.02 25.00 L 536.09 25.00 L 545.17 25.00 L 545.29 25.00 L 547.88 25.00 L 585.37 25.00 L 590.79 25.00 L 612.47 25.00 L 627.90 25.00 L 630.61 25.00 L 630.72 25.00 L 630.79 25.00 L 633.66 25.00 L 646.30 25.00 L 649.73 25.00 L 650.29 25.00 L 650.33 25.00 L 650.47 25.00 L 651.41 25.00 L 670.78 25.00 L 713.38 25.00 L 714.09 25.00 L 719.52 25.00 L 759.47 25.00 L 759.98 25.00 L 760.17 25.00 L 823.86 25.00 L 826.83 25.00 L 864.32 25.00 L 906.72 25.00 L 946.09 25.00 L 949.84 25.00 L 952.04 25.00 L 967.87 25.00 L 993.21 25.00 L 1016.83 25.00 L 1017.02 25.00 L 1017.04 25.00 L 1019.99 25.00 L 1035.73 25.00 L 1057.16 25.00 L 1102.91 25.00 L 1143.34 25.00 L 1170.00 25.00 L 1170.00 32.71 L 1143.34 35.81 L 1102.91 38.79 L 1057.16 40.69 L 1035.73 35.54 L 1019.99 38.52 L 1017.04 41.47 L 1017.02 36.33 L 1016.83 35.03 L 993.21 38.11 L 967.87 39.71 L 952.04 42.67 L 949.84 41.09 L 946.09 42.74 L 906.72 44.05 L 864.32 43.35 L 826.83 46.38 L 823.86 49.29 L 760.17 50.97 L 759.98 51.69 L 759.47 54.67 L 719.52 55.28 L 714.09 58.14 L 713.38 60.98 L 670.78 63.80 L 651.41 65.54 L 650.47 60.67 L 650.33 62.31 L 650.29 57.43 L 649.73 52.47 L 646.30 47.45 L 633.66 42.37 L 630.79 45.30 L 630.72 47.09 L 630.61 47.02 L 627.90 49.92 L 612.47 52.26 L 590.79 53.79 L 585.37 55.16 L 547.88 50.17 L 545.29 53.03 L 545.17 52.55 L 536.09 55.41 L 536.02 56.79 L 535.90 57.09 L 523.50 52.13 L 520.08 47.11 L 520.03 49.09 L 517.46 44.03 L 499.03 44.57 L 498.99 47.32 L 483.47 49.50 L 462.34 51.37 L 459.72 53.72 L 440.73 48.72 L 440.51 51.22 L 437.76 54.07 L 437.60 49.08 L 437.51 49.76 L 431.51 44.71 L 416.27 39.61 L 409.38 38.83 L 391.70 37.18 L 388.93 32.01 L 388.34 32.18 L 354.97 34.18 L 354.67 36.37 L 354.65 39.19 L 351.79 42.13 L 351.60 37.01 L 321.03 39.97 L 319.28 41.96 L 311.97 44.89 L 302.99 47.00 L 299.02 49.63 L 297.73 50.86 L 287.84 49.31 L 284.39 50.00 L 268.95 49.10 L 268.88 44.05 L 268.80 38.95 L 265.77 41.90 L 235.83 44.82 L 235.62 45.71 L 235.42 45.18 L 235.39 47.67 L 225.59 42.60 L 222.22 45.05 L 220.45 47.45 L 200.90 50.35 L 194.98 53.23 L 180.34 53.12 L 180.22 51.55 L 180.10 50.66 L 180.09 45.63 L 179.93 40.55 L 174.15 35.41 L 161.91 37.86 L 161.68 37.72 L 134.22 40.15 L 130.29 41.61 L 118.52 36.48 L 110.12 39.22 L 97.11 40.56 L 94.09 35.43 L 70.00 30.24 Z" fill="#d0d0d0" fill-opacity="0.5" stroke="none"/>
<polyline fill="none" stroke="#111" stroke-width="1.2" points="70.00,30.24 94.09,35.43 97.11,40.56 110.12,39.22 118.52,36.48 130.29,41.61 134.22,40.15 161.68,37.72 161.91,37.86 174.15,35.41 179.93,40.55 180.09,45.63 180.10,50.66 180.22,51.55 180.34,53.12 194.98,53.23 200.90,50.35 220.45,47.45 222.22,45.05 225.59,42.60 235.39,47.67 235.42,45.18 235.62,45.71 235.83,44.82 265.77,41.90 268.80,38.95 268.88,44.05 268.95,49.10 284.39,50.00 287.84,49.31 297.73,50.86 299.02,49.63 302.99,47.00 311.97,44.89 319.28,41.96 321.03,39.97 351.60,37.01 351.79,42.13 354.65,39.19 354.67,36.37 354.97,34.18 388.34,32.18 388.93,32.01 391.70,37.18 409.38,38.83 416.27,39.61 431.51,44.71 437.51,49.76 437.60,49.08 437.76,54.07 440.51,51.22 440.73,48.72 459.72,53.72 462.34,51.37 483.47,49.50 498.99,47.32 499.03,44.57 517.46,44.03 520.03,49.09 520.08,47.11 523.50,52.13 535.90,57.09 536.02,56.79 536.09,55.41 545.17,52.55 545.29,53.03 547.88,50.17 585.37,55.16 590.79,53.79 612.47,52.26 627.90,49.92 630.61,47.02 630.72,47.09 630.79,45.30 633.66,42.37 646.30,47.45 649.73,52.47 650.29,57.43 650.33,62.31 650.47,60.67 651.41,65.54 670.78,63.80 713.38,60.98 714.09,58.14 719.52,55.28 759.47,54.67 759.98,51.69 760.17,50.97 823.86,49.29 826.83,46.38 864.32,43.35 906.72,44.05 946.09,42.74 949.84,41.09 952.04,42.67 967.87,39.71 993.21,38.11 1016.83,35.03 1017.02,36.33 1017.04,41.47 1019.99,38.52 1035.73,35.54 1057.16,40.69 1102.91,38.79 1143.34,35.81 1170.00,32.71"/>
<text x="620.0" y="588" text-anchor="middle" font-family="sans-serif" font-size="12" fill="#333">UTC time</text>
<text x="15" y="287.5" transform="rotate(-90 15,287.5)" text-anchor="middle" font-family="sans-serif" font-size="12" fill="#333">Capital</text>
</svg>