<svg xmlns="http://www.w3.org/2000/svg" width="1200" height="600" viewBox="0 0 1200 600">
<desc>Equity curve with drawdown fill</desc>
<text x="600.0" y="18.0" text-anchor="middle" font-family="sans-serif" font-size="14">Portfolio 2024</text>
<rect x="70" y="25" width="1100" height="525" fill="white" stroke="#ccc" />
<line x1="70" y1="550.00" x2="1170" y2="550.00" stroke="#eee"/>
<text x="62" y="554.0" text-anchor="end" font-family="sans-serif" font-size="11" fill="#555">0.00</text>
<line x1="70" y1="445.00" x2="1170" y2="445.00" stroke="#eee"/>
<text x="62" y="449.0" text-anchor="end" font-family="sans-serif" font-size="11" fill="#555">21324</text>
<line x1="70" y1="340.00" x2="1170" y2="340.00" stroke="#eee"/>
<text x="62" y="344.0" text-anchor="end" font-family="sans-serif" font-size="11" fill="#555">42648</text>
<line x1="70" y1="235.00" x2="1170" y2="235.00" stroke="#eee"/>
<text x="62" y="239.0" text-anchor="end" font-family="sans-serif" font-size="11" fill="#555">63972</text>
<line x1="70" y1="130.00" x2="1170" y2="130.00" stroke="#eee"/>
<text x="62" y="134.0" text-anchor="end" font-family="sans-serif" font-size="11" fill="#555">85296</text>
<line x1="70" y1="25.00" x2="1170" y2="25.00" stroke="#eee"/>
<text x="62" y="29.0" text-anchor="end" font-family="sans-serif" font-size="11" fill="#555">106621</text>
<line x1="150.60" y1="25" x2="150.60" y2="550" stroke="#f2f2f2"/>
<text x="150.60" y="566" text-anchor="middle" font-family="sans-serif" font-size="11" fill="#555">Feb</text>
<line x1="239.21" y1="25" x2="239.21" y2="550" stroke="#f2f2f2"/>
<text x="239.21" y="566" text-anchor="middle" font-family="sans-serif" font-size="11" fill="#555">Mar</text>
<line x1="333.94" y1="25" x2="333.94" y2="550" stroke="#f2f2f2"/>
<text x="333.94" y="566" text-anchor="middle" font-family="sans-serif" font-size="11" fill="#555">Apr</text>
<line x1="425.62" y1="25" x2="425.62" y2="550" stroke="#f2f2f2"/>
<text x="425.62" y="566" text-anchor="middle" font-family="sans-serif" font-size="11" fill="#555">May</text>
<line x1="520.35" y1="25" x2="520.35" y2="550" stroke="#f2f2f2"/>
<text x="520.35" y="566" text-anchor="middle" font-family="sans-serif" font-size="11" fill="#555">Jun</text>
<line x1="612.02" y1="25" x2="612.02" y2="550" stroke="#f2f2f2"/>
<text x="612.02" y="566" text-anchor="middle" font-family="sans-serif" font-size="11" fill="#555">Jul</text>
<line x1="706.75" y1="25" x2="706.75" y2="550" stroke="#f2f2f2"/>
<text x="706.75" y="566" text-anchor="middle" font-family="sans-serif" font-size="11" fill="#555">Aug</text>
<line x1="801.48" y1="25" x2="801.48" y2="550" stroke="#f2f2f2"/>
<text x="801.48" y="566" text-anchor="middle" font-family="sans-serif" font-size="11" fill="#555">Sep</text>
<line x1="893.15" y1="25" x2="893.15" y2="550" stroke="#f2f2f2"/>
<text x="893.15" y="566" text-anchor="middle" font-family="sans-serif" font-size="11" fill="#555">Oct</text>
<line x1="987.88" y1="25" x2="987.88" y2="550" stroke="#f2f2f2"/>
<text x="987.88" y="566" text-anchor="middle" font-family="sans-serif" font-size="11" fill="#555">Nov</text>
<line x1="1079.56" y1="25" x2="1079.56" y2="550" stroke="#f2f2f2"/>
<text x="1079.56" y="566" text-anchor="middle" font-family="sans-serif" font-size="11" fill="#555">Dec</text>
<line x1="70" y1="550" x2="1170" y2="550" stroke="#888"/>
<line x1="70" y1="25" x2="70" y2="550" stroke="#888"/>
<path d="M 155.53 51.94 L 155.65 51.94 L 155.65 53.50 L 155.53 53.02 Z" fill="#d0d0d0" fill-opacity="0.5" stroke="none"/>
<path d="M 363.36 39.95 L 363.53 39.95 L 402.25 39.95 L 433.45 39.95 L 540.40 39.95 L 540.40 39.99 L 433.45 42.90 L 402.25 45.78 L 363.53 48.66 L 363.36 45.04 Z" fill="#d0d0d0" fill-opacity="0.5" stroke="none"/>
<path d="M 751.37 26.37 L 776.04 26.37 L 793.58 26.37 L 818.48 26.37 L 818.48 28.26 L 793.58 31.22 L 776.04 32.03 L 751.37 26.81 Z" fill="#d0d0d0" fill-opacity="0.5" stroke="none"/>
<path d="M 869.88 25.26 L 904.04 25.26 L 904.04 27.51 L 869.88 30.49 Z" fill="#d0d0d0" fill-opacity="0.5" stroke="none"/>
<path d="M 1003.26 25.00 L 1003.32 25.00 L 1003.44 25.00 L 1003.55 25.00 L 1003.62 25.00 L 1003.67 25.00 L 1004.04 25.00 L 1004.69 25.00 L 1011.54 25.00 L 1026.48 25.00 L 1044.14 25.00 L 1051.23 25.00 L 1053.22 25.00 L 1053.25 25.00 L 1053.38 25.00 L 1061.09 25.00 L 1064.31 25.00 L 1068.39 25.00 L 1069.15 25.00 L 1084.54 25.00 L 1090.70 25.00 L 1096.57 25.00 L 1133.95 25.00 L 1170.00 25.00 L 1170.00 37.96 L 1133.95 39.41 L 1096.57 34.26 L 1090.70 36.91 L 1084.54 39.58 L 1069.15 42.19 L 1068.39 43.94 L 1064.31 46.82 L 1061.09 41.75 L 1053.38 44.63 L 1053.25 46.89 L 1053.22 49.69 L 1051.23 44.64 L 1044.14 43.15 L 1026.48 44.36 L 1011.54 39.26 L 1004.69 39.52 L 1004.04 41.91 L 1003.67 43.21 L 1003.62 44.54 L 1003.55 39.44 L 1003.44 34.29 L 1003.32 29.10 L 1003.26 30.23 Z" fill="#d0d0d0" fill-opacity="0.5" stroke="none"/>
<polyline fill="none" stroke="#111" stroke-width="1.2" points="70.00,54.78 155.37,51.94 155.53,53.02 155.65,53.50 188.98,50.65 189.08,49.30 215.82,46.43 262.36,43.79 299.73,42.86 363.16,39.95 363.36,45.04 363.53,48.66 402.25,45.78 433.45,42.90 540.40,39.99 555.68,37.07 644.30,34.13 711.53,31.18 720.10,29.09 720.74,26.37 751.37,26.81 776.04,32.03 793.58,31.22 818.48,28.26 855.85,25.26 869.88,30.49 904.04,27.51 943.87,25.00 1003.26,30.23 1003.32,29.10 1003.44,34.29 1003.55,39.44 1003.62,44.54 1003.67,43.21 1004.04,41.91 1004.69,39.52 1011.54,39.26 1026.48,44.36 1044.14,43.15 1051.23,44.64 1053.22,49.69 1053.25,46.89 1053.38,44.63 1061.09,41.75 1064.31,46.82 1068.39,43.94 1069.15,42.19 1084.54,39.58 1090.70,36.91 1096.57,34.26 1133.95,39.41 1170.00,37.96"/>
<text x="620.0" y="588" text-anchor="middle" font-family="sans-serif" font-size="12" fill="#333">UTC time</text>
<text x="15" y="287.5" transform="rotate(-90 15,287.5)" text-anchor="middle" font-family="sans-serif" font-size="12" fill="#333">Capital</text>
</svg>