<svg xmlns="http://www.w3.org/2000/svg" width="1200" height="600" viewBox="0 0 1200 600">
<desc>Equity curve with drawdown fill</desc>
<text x="600.0" y="18.0" text-anchor="middle" font-family="sans-serif" font-size="14">Portfolio 2008</text>
<rect x="70" y="25" width="1100" height="525" fill="white" stroke="#ccc" />
<line x1="70" y1="550.00" x2="1170" y2="550.00" stroke="#eee"/>
<text x="62" y="554.0" text-anchor="end" font-family="sans-serif" font-size="11" fill="#555">0.00</text>
<line x1="70" y1="445.00" x2="1170" y2="445.00" stroke="#eee"/>
<text x="62" y="449.0" text-anchor="end" font-family="sans-serif" font-size="11" fill="#555">21981</text>
<line x1="70" y1="340.00" x2="1170" y2="340.00" stroke="#eee"/>
<text x="62" y="344.0" text-anchor="end" font-family="sans-serif" font-size="11" fill="#555">43962</text>
<line x1="70" y1="235.00" x2="1170" y2="235.00" stroke="#eee"/>
<text x="62" y="239.0" text-anchor="end" font-family="sans-serif" font-size="11" fill="#555">65944</text>
<line x1="70" y1="130.00" x2="1170" y2="130.00" stroke="#eee"/>
<text x="62" y="134.0" text-anchor="end" font-family="sans-serif" font-size="11" fill="#555">87925</text>
<line x1="70" y1="25.00" x2="1170" y2="25.00" stroke="#eee"/>
<text x="62" y="29.0" text-anchor="end" font-family="sans-serif" font-size="11" fill="#555">109906</text>
<line x1="158.59" y1="25" x2="158.59" y2="550" stroke="#f2f2f2"/>
<text x="158.59" y="566" text-anchor="middle" font-family="sans-serif" font-size="11" fill="#555">Feb</text>
<line x1="246.23" y1="25" x2="246.23" y2="550" stroke="#f2f2f2"/>
<text x="246.23" y="566" text-anchor="middle" font-family="sans-serif" font-size="11" fill="#555">Mar</text>
<line x1="339.92" y1="25" x2="339.92" y2="550" stroke="#f2f2f2"/>
<text x="339.92" y="566" text-anchor="middle" font-family="sans-serif" font-size="11" fill="#555">Apr</text>
<line x1="430.58" y1="25" x2="430.58" y2="550" stroke="#f2f2f2"/>
<text x="430.58" y="566" text-anchor="middle" font-family="sans-serif" font-size="11" fill="#555">May</text>
<line x1="524.27" y1="25" x2="524.27" y2="550" stroke="#f2f2f2"/>
<text x="524.27" y="566" text-anchor="middle" font-family="sans-serif" font-size="11" fill="#555">Jun</text>
<line x1="614.93" y1="25" x2="614.93" y2="550" stroke="#f2f2f2"/>
<text x="614.93" y="566" text-anchor="middle" font-family="sans-serif" font-size="11" fill="#555">Jul</text>
<line x1="708.62" y1="25" x2="708.62" y2="550" stroke="#f2f2f2"/>
<text x="708.62" y="566" text-anchor="middle" font-family="sans-serif" font-size="11" fill="#555">Aug</text>
<line x1="802.31" y1="25" x2="802.31" y2="550" stroke="#f2f2f2"/>
<text x="802.31" y="566" text-anchor="middle" font-family="sans-serif" font-size="11" fill="#555">Sep</text>
<line x1="892.97" y1="25" x2="892.97" y2="550" stroke="#f2f2f2"/>
<text x="892.97" y="566" text-anchor="middle" font-family="sans-serif" font-size="11" fill="#555">Oct</text>
<line x1="986.66" y1="25" x2="986.66" y2="550" stroke="#f2f2f2"/>
<text x="986.66" y="566" text-anchor="middle" font-family="sans-serif" font-size="11" fill="#555">Nov</text>
<line x1="1077.33" y1="25" x2="1077.33" y2="550" stroke="#f2f2f2"/>
<text x="1077.33" y="566" text-anchor="middle" font-family="sans-serif" font-size="11" fill="#555">Dec</text>
<line x1="1170.00" y1="25" x2="1170.00" y2="550" stroke="#f2f2f2"/>
<text x="1170.00" y="566" text-anchor="middle" font-family="sans-serif" font-size="11" fill="#555">Jan</text>
<line x1="70" y1="550" x2="1170" y2="550" stroke="#888"/>
<line x1="70" y1="25" x2="70" y2="550" stroke="#888"/>
<path d="M 112.23 49.01 L 112.26 49.01 L 112.36 49.01 L 112.50 49.01 L 114.91 49.01 L 127.41 49.01 L 129.54 49.01 L 130.04 49.01 L 130.04 51.55 L 129.54 56.02 L 127.41 59.66 L 114.91 63.57 L 112.50 63.97 L 112.36 62.81 L 112.26 63.90 L 112.23 56.50 Z" fill="#d0d0d0" fill-opacity="0.5" stroke="none"/>
<path d="M 155.04 46.31 L 160.29 46.31 L 160.29 49.50 L 155.04 53.85 Z" fill="#d0d0d0" fill-opacity="0.5" stroke="none"/>
<path d="M 171.97 41.90 L 178.37 41.90 L 178.50 41.90 L 178.50 43.79 L 178.37 46.50 L 171.97 49.51 Z" fill="#d0d0d0" fill-opacity="0.5" stroke="none"/>
<path d="M 277.91 25.00 L 277.97 25.00 L 278.20 25.00 L 278.24 25.00 L 278.39 25.00 L 278.44 25.00 L 280.92 25.00 L 287.41 25.00 L 287.43 25.00 L 294.71 25.00 L 295.07 25.00 L 295.73 25.00 L 296.00 25.00 L 296.44 25.00 L 301.87 25.00 L 302.74 25.00 L 305.02 25.00 L 317.22 25.00 L 319.21 25.00 L 319.32 25.00 L 319.46 25.00 L 323.08 25.00 L 323.20 25.00 L 323.35 25.00 L 338.89 25.00 L 340.91 25.00 L 344.65 25.00 L 348.14 25.00 L 361.36 25.00 L 366.40 25.00 L 368.42 25.00 L 369.24 25.00 L 379.18 25.00 L 380.87 25.00 L 386.60 25.00 L 386.67 25.00 L 389.95 25.00 L 392.75 25.00 L 392.95 25.00 L 393.09 25.00 L 404.73 25.00 L 405.37 25.00 L 408.27 25.00 L 410.60 25.00 L 411.25 25.00 L 411.51 25.00 L 413.60 25.00 L 425.58 25.00 L 431.69 25.00 L 450.16 25.00 L 452.13 25.00 L 453.62 25.00 L 477.96 25.00 L 487.06 25.00 L 489.34 25.00 L 492.30 25.00 L 532.12 25.00 L 532.20 25.00 L 532.34 25.00 L 538.14 25.00 L 538.31 25.00 L 538.44 25.00 L 541.08 25.00 L 541.11 25.00 L 541.33 25.00 L 550.30 25.00 L 550.72 25.00 L 551.64 25.00 L 552.86 25.00 L 558.56 25.00 L 562.01 25.00 L 591.98 25.00 L 599.28 25.00 L 619.72 25.00 L 622.69 25.00 L 622.84 25.00 L 622.91 25.00 L 635.47 25.00 L 644.19 25.00 L 646.99 25.00 L 658.56 25.00 L 659.33 25.00 L 662.33 25.00 L 665.75 25.00 L 680.53 25.00 L 701.47 25.00 L 707.43 25.00 L 728.65 25.00 L 729.92 25.00 L 730.08 25.00 L 730.90 25.00 L 740.01 25.00 L 741.09 25.00 L 746.35 25.00 L 750.12 25.00 L 750.17 25.00 L 765.31 25.00 L 768.15 25.00 L 781.39 25.00 L 785.46 25.00 L 786.06 25.00 L 792.24 25.00 L 802.64 25.00 L 806.51 25.00 L 809.01 25.00 L 813.41 25.00 L 813.49 25.00 L 814.35 25.00 L 815.64 25.00 L 816.10 25.00 L 816.15 25.00 L 823.34 25.00 L 823.36 25.00 L 824.42 25.00 L 824.83 25.00 L 824.87 25.00 L 824.90 25.00 L 825.63 25.00 L 825.70 25.00 L 825.81 25.00 L 825.86 25.00 L 826.81 25.00 L 827.85 25.00 L 828.33 25.00 L 828.59 25.00 L 830.94 25.00 L 831.57 25.00 L 836.63 25.00 L 837.15 25.00 L 837.62 25.00 L 844.59 25.00 L 845.14 25.00 L 845.22 25.00 L 845.34 25.00 L 845.59 25.00 L 845.65 25.00 L 845.80 25.00 L 846.21 25.00 L 846.34 25.00 L 846.47 25.00 L 847.79 25.00 L 849.04 25.00 L 849.34 25.00 L 849.65 25.00 L 850.06 25.00 L 850.82 25.00 L 851.73 25.00 L 852.51 25.00 L 852.75 25.00 L 852.99 25.00 L 853.06 25.00 L 853.20 25.00 L 853.93 25.00 L 854.70 25.00 L 854.93 25.00 L 855.09 25.00 L 855.22 25.00 L 855.55 25.00 L 855.64 25.00 L 855.97 25.00 L 856.90 25.00 L 857.64 25.00 L 857.90 25.00 L 858.45 25.00 L 858.50 25.00 L 858.59 25.00 L 858.70 25.00 L 858.77 25.00 L 866.33 25.00 L 866.91 25.00 L 867.93 25.00 L 868.15 25.00 L 868.35 25.00 L 869.86 25.00 L 870.26 25.00 L 871.09 25.00 L 873.59 25.00 L 875.16 25.00 L 876.41 25.00 L 876.80 25.00 L 877.12 25.00 L 878.96 25.00 L 879.53 25.00 L 886.83 25.00 L 887.96 25.00 L 888.07 25.00 L 888.14 25.00 L 888.86 25.00 L 888.88 25.00 L 889.29 25.00 L 889.37 25.00 L 889.86 25.00 L 891.69 25.00 L 891.82 25.00 L 891.91 25.00 L 891.94 25.00 L 892.03 25.00 L 892.14 25.00 L 894.60 25.00 L 894.72 25.00 L 894.79 25.00 L 894.84 25.00 L 894.98 25.00 L 896.22 25.00 L 897.07 25.00 L 897.71 25.00 L 897.75 25.00 L 897.89 25.00 L 898.04 25.00 L 898.15 25.00 L 900.72 25.00 L 900.82 25.00 L 900.97 25.00 L 901.13 25.00 L 901.34 25.00 L 908.03 25.00 L 908.11 25.00 L 908.98 25.00 L 909.76 25.00 L 909.98 25.00 L 910.09 25.00 L 911.76 25.00 L 911.84 25.00 L 912.30 25.00 L 912.78 25.00 L 912.90 25.00 L 912.92 25.00 L 913.06 25.00 L 913.17 25.00 L 913.49 25.00 L 914.19 25.00 L 915.16 25.00 L 915.18 25.00 L 915.46 25.00 L 915.66 25.00 L 915.81 25.00 L 915.91 25.00 L 916.45 25.00 L 917.75 25.00 L 918.33 25.00 L 918.73 25.00 L 919.16 25.00 L 920.87 25.00 L 921.25 25.00 L 921.67 25.00 L 921.95 25.00 L 922.09 25.00 L 922.30 25.00 L 922.62 25.00 L 929.14 25.00 L 929.24 25.00 L 929.30 25.00 L 929.72 25.00 L 929.76 25.00 L 930.14 25.00 L 930.20 25.00 L 930.32 25.00 L 930.68 25.00 L 930.96 25.00 L 931.32 25.00 L 931.51 25.00 L 932.48 25.00 L 933.68 25.00 L 934.20 25.00 L 934.28 25.00 L 935.39 25.00 L 936.83 25.00 L 937.07 25.00 L 937.51 25.00 L 938.28 25.00 L 938.99 25.00 L 939.07 25.00 L 939.15 25.00 L 939.51 25.00 L 939.92 25.00 L 940.22 25.00 L 940.29 25.00 L 940.39 25.00 L 941.70 25.00 L 942.76 25.00 L 943.24 25.00 L 943.38 25.00 L 952.00 25.00 L 952.27 25.00 L 952.39 25.00 L 952.45 25.00 L 954.47 25.00 L 955.13 25.00 L 955.55 25.00 L 956.51 25.00 L 957.11 25.00 L 957.13 25.00 L 957.27 25.00 L 957.30 25.00 L 957.47 25.00 L 957.69 25.00 L 957.91 25.00 L 958.33 25.00 L 958.47 25.00 L 959.48 25.00 L 959.55 25.00 L 959.61 25.00 L 959.75 25.00 L 960.14 25.00 L 960.43 25.00 L 961.17 25.00 L 961.45 25.00 L 962.36 25.00 L 962.69 25.00 L 962.87 25.00 L 963.00 25.00 L 963.48 25.00 L 963.51 25.00 L 963.61 25.00 L 963.66 25.00 L 963.76 25.00 L 963.81 25.00 L 963.85 25.00 L 964.21 25.00 L 964.22 25.00 L 964.35 25.00 L 964.37 25.00 L 964.50 25.00 L 964.50 25.00 L 964.83 25.00 L 964.92 25.00 L 971.46 25.00 L 971.68 25.00 L 971.72 25.00 L 971.89 25.00 L 972.33 25.00 L 972.63 25.00 L 972.72 25.00 L 972.76 25.00 L 972.85 25.00 L 973.58 25.00 L 973.71 25.00 L 973.83 25.00 L 973.94 25.00 L 974.52 25.00 L 974.77 25.00 L 974.86 25.00 L 975.01 25.00 L 975.18 25.00 L 975.46 25.00 L 975.54 25.00 L 975.58 25.00 L 975.71 25.00 L 976.23 25.00 L 976.58 25.00 L 977.03 25.00 L 977.51 25.00 L 977.59 25.00 L 977.66 25.00 L 977.99 25.00 L 978.51 25.00 L 978.60 25.00 L 978.89 25.00 L 979.12 25.00 L 979.49 25.00 L 979.52 25.00 L 979.63 25.00 L 979.71 25.00 L 979.76 25.00 L 979.82 25.00 L 980.02 25.00 L 980.04 25.00 L 980.79 25.00 L 980.85 25.00 L 981.07 25.00 L 981.08 25.00 L 981.15 25.00 L 981.22 25.00 L 981.54 25.00 L 981.89 25.00 L 982.00 25.00 L 982.26 25.00 L 982.42 25.00 L 982.58 25.00 L 982.61 25.00 L 982.70 25.00 L 982.76 25.00 L 983.06 25.00 L 983.07 25.00 L 983.58 25.00 L 983.73 25.00 L 983.82 25.00 L 983.90 25.00 L 984.13 25.00 L 984.58 25.00 L 984.63 25.00 L 984.73 25.00 L 984.77 25.00 L 985.00 25.00 L 985.18 25.00 L 985.61 25.00 L 985.78 25.00 L 992.98 25.00 L 993.80 25.00 L 994.48 25.00 L 994.54 25.00 L 994.79 25.00 L 994.98 25.00 L 995.03 25.00 L 995.94 25.00 L 996.18 25.00 L 996.71 25.00 L 997.13 25.00 L 997.22 25.00 L 997.39 25.00 L 997.59 25.00 L 997.72 25.00 L 997.82 25.00 L 997.93 25.00 L 998.81 25.00 L 999.29 25.00 L 999.31 25.00 L 999.42 25.00 L 999.72 25.00 L 1000.24 25.00 L 1000.32 25.00 L 1000.66 25.00 L 1000.67 25.00 L 1000.78 25.00 L 1000.82 25.00 L 1000.99 25.00 L 1001.91 25.00 L 1002.86 25.00 L 1003.29 25.00 L 1003.31 25.00 L 1003.45 25.00 L 1003.58 25.00 L 1003.80 25.00 L 1003.89 25.00 L 1003.97 25.00 L 1005.17 25.00 L 1005.72 25.00 L 1006.31 25.00 L 1006.66 25.00 L 1006.74 25.00 L 1013.81 25.00 L 1013.99 25.00 L 1014.89 25.00 L 1015.37 25.00 L 1015.70 25.00 L 1015.80 25.00 L 1015.89 25.00 L 1016.00 25.00 L 1017.14 25.00 L 1018.09 25.00 L 1018.77 25.00 L 1018.86 25.00 L 1018.94 25.00 L 1019.04 25.00 L 1019.06 25.00 L 1019.24 25.00 L 1020.17 25.00 L 1020.77 25.00 L 1021.08 25.00 L 1021.48 25.00 L 1021.70 25.00 L 1021.90 25.00 L 1022.13 25.00 L 1023.90 25.00 L 1024.09 25.00 L 1024.46 25.00 L 1024.51 25.00 L 1024.88 25.00 L 1025.17 25.00 L 1025.40 25.00 L 1025.93 25.00 L 1026.09 25.00 L 1027.12 25.00 L 1027.65 25.00 L 1027.84 25.00 L 1028.09 25.00 L 1028.39 25.00 L 1035.02 25.00 L 1035.06 25.00 L 1036.14 25.00 L 1036.23 25.00 L 1036.35 25.00 L 1037.06 25.00 L 1039.77 25.00 L 1040.19 25.00 L 1040.35 25.00 L 1042.85 25.00 L 1042.90 25.00 L 1042.99 25.00 L 1043.09 25.00 L 1043.14 25.00 L 1043.25 25.00 L 1043.32 25.00 L 1043.42 25.00 L 1045.89 25.00 L 1046.00 25.00 L 1046.35 25.00 L 1047.67 25.00 L 1048.36 25.00 L 1048.41 25.00 L 1049.05 25.00 L 1049.13 25.00 L 1056.18 25.00 L 1057.21 25.00 L 1057.50 25.00 L 1057.65 25.00 L 1057.77 25.00 L 1057.88 25.00 L 1057.96 25.00 L 1058.13 25.00 L 1058.25 25.00 L 1058.46 25.00 L 1059.37 25.00 L 1060.91 25.00 L 1060.92 25.00 L 1060.99 25.00 L 1061.15 25.00 L 1061.24 25.00 L 1063.36 25.00 L 1063.87 25.00 L 1064.19 25.00 L 1064.29 25.00 L 1064.41 25.00 L 1066.54 25.00 L 1066.78 25.00 L 1069.55 25.00 L 1069.84 25.00 L 1069.90 25.00 L 1069.95 25.00 L 1070.09 25.00 L 1070.35 25.00 L 1077.53 25.00 L 1078.41 25.00 L 1079.09 25.00 L 1081.39 25.00 L 1081.69 25.00 L 1082.00 25.00 L 1082.21 25.00 L 1084.54 25.00 L 1085.41 25.00 L 1087.47 25.00 L 1087.56 25.00 L 1088.22 25.00 L 1088.46 25.00 L 1088.56 25.00 L 1088.63 25.00 L 1090.89 25.00 L 1091.15 25.00 L 1099.36 25.00 L 1099.55 25.00 L 1099.68 25.00 L 1100.49 25.00 L 1101.79 25.00 L 1102.94 25.00 L 1103.56 25.00 L 1103.76 25.00 L 1105.47 25.00 L 1105.89 25.00 L 1106.40 25.00 L 1106.70 25.00 L 1108.25 25.00 L 1108.94 25.00 L 1109.76 25.00 L 1109.85 25.00 L 1111.09 25.00 L 1111.43 25.00 L 1111.78 25.00 L 1111.82 25.00 L 1111.97 25.00 L 1112.36 25.00 L 1112.67 25.00 L 1119.63 25.00 L 1121.40 25.00 L 1121.58 25.00 L 1121.65 25.00 L 1121.73 25.00 L 1123.91 25.00 L 1124.29 25.00 L 1124.77 25.00 L 1125.10 25.00 L 1125.12 25.00 L 1126.30 25.00 L 1126.49 25.00 L 1126.73 25.00 L 1127.31 25.00 L 1127.51 25.00 L 1127.53 25.00 L 1127.58 25.00 L 1127.64 25.00 L 1127.71 25.00 L 1127.73 25.00 L 1127.85 25.00 L 1127.90 25.00 L 1129.44 25.00 L 1129.62 25.00 L 1129.84 25.00 L 1129.91 25.00 L 1129.94 25.00 L 1129.96 25.00 L 1130.08 25.00 L 1130.12 25.00 L 1130.25 25.00 L 1130.33 25.00 L 1130.47 25.00 L 1130.52 25.00 L 1130.62 25.00 L 1130.71 25.00 L 1130.73 25.00 L 1130.77 25.00 L 1130.93 25.00 L 1131.02 25.00 L 1131.86 25.00 L 1132.56 25.00 L 1132.83 25.00 L 1132.84 25.00 L 1132.94 25.00 L 1133.03 25.00 L 1133.11 25.00 L 1133.20 25.00 L 1133.31 25.00 L 1133.50 25.00 L 1133.81 25.00 L 1140.83 25.00 L 1140.90 25.00 L 1141.75 25.00 L 1141.79 25.00 L 1142.06 25.00 L 1142.13 25.00 L 1142.19 25.00 L 1142.31 25.00 L 1142.83 25.00 L 1145.83 25.00 L 1154.45 25.00 L 1162.23 25.00 L 1162.75 25.00 L 1163.35 25.00 L 1163.93 25.00 L 1164.29 25.00 L 1164.39 25.00 L 1165.03 25.00 L 1165.08 25.00 L 1165.24 25.00 L 1165.79 25.00 L 1166.05 25.00 L 1166.60 25.00 L 1168.38 25.00 L 1168.90 25.00 L 1169.46 25.00 L 1169.66 25.00 L 1169.67 25.00 L 1169.68 25.00 L 1170.00 25.00 L 1170.00 157.27 L 1169.68 160.69 L 1169.67 154.69 L 1169.66 148.69 L 1169.46 142.49 L 1168.90 146.09 L 1168.38 148.72 L 1166.60 150.47 L 1166.05 153.99 L 1165.79 157.48 L 1165.24 151.42 L 1165.08 152.13 L 1165.03 154.79 L 1164.39 148.69 L 1164.29 150.19 L 1163.93 144.01 L 1163.35 146.88 L 1162.75 149.79 L 1162.23 152.76 L 1154.45 154.68 L 1145.83 149.69 L 1142.83 153.18 L 1142.31 155.66 L 1142.19 158.41 L 1142.13 161.51 L 1142.06 164.93 L 1141.79 167.57 L 1141.75 170.42 L 1140.90 164.60 L 1140.83 166.69 L 1133.81 160.80 L 1133.50 163.77 L 1133.31 166.77 L 1133.20 167.71 L 1133.11 168.22 L 1133.03 162.48 L 1132.94 156.53 L 1132.84 156.55 L 1132.83 150.49 L 1132.56 144.32 L 1131.86 147.16 L 1131.02 150.72 L 1130.93 153.13 L 1130.77 154.32 L 1130.73 156.92 L 1130.71 160.53 L 1130.62 162.80 L 1130.52 163.48 L 1130.47 157.53 L 1130.33 151.48 L 1130.25 152.14 L 1130.12 153.60 L 1130.08 156.26 L 1129.96 150.18 L 1129.94 153.30 L 1129.91 147.21 L 1129.84 150.87 L 1129.62 154.21 L 1129.44 157.04 L 1127.90 158.93 L 1127.85 160.87 L 1127.73 154.88 L 1127.71 158.11 L 1127.64 152.09 L 1127.58 153.71 L 1127.53 147.63 L 1127.51 141.40 L 1127.31 135.08 L 1126.73 136.73 L 1126.49 130.32 L 1126.30 133.24 L 1125.12 126.78 L 1125.10 120.20 L 1124.77 124.01 L 1124.29 117.39 L 1123.91 120.71 L 1121.73 124.47 L 1121.65 127.62 L 1121.58 129.54 L 1121.40 123.02 L 1119.63 116.39 L 1112.67 117.20 L 1112.36 120.37 L 1111.97 121.65 L 1111.82 125.17 L 1111.78 128.12 L 1111.43 121.57 L 1111.09 123.18 L 1109.85 124.10 L 1109.76 125.08 L 1108.94 118.49 L 1108.25 121.68 L 1106.70 125.42 L 1106.40 127.89 L 1105.89 130.53 L 1105.47 133.50 L 1103.76 136.87 L 1103.56 136.24 L 1102.94 136.27 L 1101.79 139.59 L 1100.49 141.70 L 1099.68 143.28 L 1099.55 144.78 L 1099.36 146.88 L 1091.15 148.66 L 1090.89 151.58 L 1088.63 145.45 L 1088.56 148.38 L 1088.46 149.19 L 1088.22 143.01 L 1087.56 145.74 L 1087.47 148.48 L 1085.41 151.99 L 1084.54 154.48 L 1082.21 148.39 L 1082.00 151.11 L 1081.69 153.11 L 1081.39 154.84 L 1079.09 158.28 L 1078.41 161.65 L 1077.53 164.16 L 1070.35 166.49 L 1070.09 160.63 L 1069.95 162.68 L 1069.90 164.49 L 1069.84 158.70 L 1069.55 152.70 L 1066.78 152.29 L 1066.54 155.06 L 1064.41 158.47 L 1064.29 160.51 L 1064.19 162.77 L 1063.87 165.75 L 1063.36 168.75 L 1061.24 171.78 L 1061.15 175.02 L 1060.99 173.92 L 1060.92 168.22 L 1060.91 162.40 L 1059.37 156.47 L 1058.46 157.39 L 1058.25 160.41 L 1058.13 163.29 L 1057.96 165.41 L 1057.88 159.54 L 1057.77 159.46 L 1057.65 153.48 L 1057.50 155.74 L 1057.21 157.75 L 1056.18 160.60 L 1049.13 161.12 L 1049.05 155.17 L 1048.41 158.57 L 1048.36 160.84 L 1047.67 154.87 L 1046.35 157.63 L 1046.00 160.03 L 1045.89 163.38 L 1043.42 166.72 L 1043.32 168.84 L 1043.25 170.39 L 1043.14 164.72 L 1043.09 158.83 L 1042.99 161.99 L 1042.90 163.27 L 1042.85 157.36 L 1040.35 151.35 L 1040.19 154.55 L 1039.77 157.73 L 1037.06 160.78 L 1036.35 163.88 L 1036.23 165.81 L 1036.14 166.65 L 1035.06 160.80 L 1035.02 162.09 L 1028.39 159.28 L 1028.09 162.63 L 1027.84 165.12 L 1027.65 168.41 L 1027.12 162.60 L 1026.09 165.63 L 1025.93 168.65 L 1025.40 170.50 L 1025.17 164.73 L 1024.88 168.05 L 1024.51 170.77 L 1024.46 173.55 L 1024.09 176.74 L 1023.90 171.09 L 1022.13 165.34 L 1021.90 167.80 L 1021.70 171.09 L 1021.48 173.74 L 1021.08 176.15 L 1020.77 178.55 L 1020.17 181.16 L 1019.24 182.99 L 1019.06 184.57 L 1019.04 187.36 L 1018.94 181.92 L 1018.86 183.45 L 1018.77 177.95 L 1018.09 172.34 L 1017.14 173.89 L 1016.00 175.75 L 1015.89 177.87 L 1015.80 180.73 L 1015.70 182.47 L 1015.37 185.60 L 1014.89 187.23 L 1013.99 189.97 L 1013.81 190.38 L 1006.74 191.21 L 1006.66 194.20 L 1006.31 197.18 L 1005.72 199.89 L 1005.17 202.78 L 1003.97 205.19 L 1003.89 207.72 L 1003.80 208.96 L 1003.58 211.46 L 1003.45 213.84 L 1003.31 215.99 L 1003.29 218.56 L 1002.86 213.81 L 1001.91 216.01 L 1000.99 218.73 L 1000.82 221.44 L 1000.78 223.73 L 1000.67 223.82 L 1000.66 219.20 L 1000.32 214.47 L 1000.24 215.18 L 999.72 210.35 L 999.42 213.14 L 999.31 208.37 L 999.29 211.02 L 998.81 206.10 L 997.93 201.08 L 997.82 199.65 L 997.72 194.59 L 997.59 189.32 L 997.39 183.94 L 997.22 184.89 L 997.13 179.42 L 996.71 178.95 L 996.18 181.03 L 995.94 183.86 L 995.03 186.31 L 994.98 188.99 L 994.79 189.38 L 994.54 190.17 L 994.48 191.61 L 993.80 186.29 L 992.98 187.11 L 985.78 187.25 L 985.61 190.31 L 985.18 193.04 L 985.00 195.35 L 984.77 198.08 L 984.73 200.08 L 984.63 194.93 L 984.58 189.66 L 984.13 184.30 L 983.90 187.27 L 983.82 187.41 L 983.73 182.00 L 983.58 183.59 L 983.07 184.37 L 983.06 187.32 L 982.76 190.38 L 982.70 192.43 L 982.61 187.13 L 982.58 181.82 L 982.42 176.31 L 982.26 177.90 L 982.00 180.66 L 981.89 175.13 L 981.54 169.48 L 981.22 172.20 L 981.15 175.40 L 981.08 176.29 L 981.07 170.76 L 980.85 165.04 L 980.79 159.20 L 980.04 153.25 L 980.02 156.65 L 979.82 159.55 L 979.76 162.49 L 979.71 165.78 L 979.63 166.86 L 979.52 166.73 L 979.49 160.94 L 979.12 155.03 L 978.89 157.09 L 978.60 158.46 L 978.51 161.33 L 977.99 164.45 L 977.66 164.23 L 977.59 165.57 L 977.51 159.85 L 977.03 161.45 L 976.58 155.55 L 976.23 149.55 L 975.71 143.43 L 975.58 146.81 L 975.54 148.95 L 975.46 142.93 L 975.18 143.58 L 975.01 146.88 L 974.86 148.32 L 974.77 142.19 L 974.52 145.73 L 973.94 146.20 L 973.83 140.03 L 973.71 142.97 L 973.58 146.46 L 972.85 149.92 L 972.76 143.93 L 972.72 137.72 L 972.63 131.41 L 972.33 133.60 L 971.89 137.22 L 971.72 140.56 L 971.68 143.40 L 971.46 137.18 L 964.92 139.50 L 964.83 141.73 L 964.50 145.27 L 964.50 148.86 L 964.37 142.74 L 964.35 136.52 L 964.22 130.18 L 964.21 133.92 L 963.85 127.54 L 963.81 130.56 L 963.76 124.12 L 963.66 123.92 L 963.61 117.37 L 963.51 110.71 L 963.48 113.57 L 963.00 117.38 L 962.87 110.73 L 962.69 113.43 L 962.36 114.32 L 961.45 118.10 L 961.17 121.83 L 960.43 115.26 L 960.14 118.44 L 959.75 119.59 L 959.61 123.35 L 959.55 127.07 L 959.48 129.78 L 958.47 123.34 L 958.33 126.84 L 957.91 130.53 L 957.69 133.98 L 957.47 136.26 L 957.30 139.82 L 957.27 142.60 L 957.13 136.38 L 957.11 130.07 L 956.51 123.63 L 955.55 127.32 L 955.13 120.83 L 954.47 124.18 L 952.45 124.49 L 952.39 126.76 L 952.27 120.27 L 952.00 122.55 L 943.38 122.60 L 943.24 125.94 L 942.76 128.58 L 941.70 131.49 L 940.39 134.21 L 940.29 136.81 L 940.22 138.64 L 939.92 132.36 L 939.51 132.78 L 939.15 134.12 L 939.07 127.75 L 938.99 129.41 L 938.28 122.97 L 937.51 124.61 L 937.07 126.46 L 936.83 129.87 L 935.39 129.82 L 934.28 132.80 L 934.20 134.69 L 933.68 128.34 L 932.48 131.72 L 931.51 132.95 L 931.32 132.46 L 930.96 136.06 L 930.68 139.63 L 930.32 142.05 L 930.20 135.83 L 930.14 129.51 L 929.76 123.08 L 929.72 125.68 L 929.30 119.18 L 929.24 120.76 L 929.14 114.30 L 922.62 107.62 L 922.30 100.83 L 922.09 93.92 L 921.95 97.92 L 921.67 101.50 L 921.25 104.07 L 920.87 97.22 L 919.16 101.16 L 918.73 104.73 L 918.33 106.01 L 917.75 99.19 L 916.45 97.87 L 915.91 101.42 L 915.81 104.88 L 915.66 108.86 L 915.46 102.09 L 915.18 105.66 L 915.16 109.38 L 914.19 102.62 L 913.49 106.17 L 913.17 109.13 L 913.06 112.39 L 912.92 114.69 L 912.90 118.20 L 912.78 111.58 L 912.30 114.24 L 911.84 117.06 L 911.76 119.66 L 910.09 113.07 L 909.98 116.15 L 909.76 119.70 L 908.98 123.42 L 908.11 127.13 L 908.03 129.54 L 901.34 129.58 L 901.13 133.21 L 900.97 136.60 L 900.82 137.00 L 900.72 130.71 L 898.15 134.35 L 898.04 137.82 L 897.89 141.36 L 897.75 144.41 L 897.71 138.25 L 897.07 131.99 L 896.22 125.62 L 894.98 125.91 L 894.84 129.57 L 894.79 132.06 L 894.72 125.79 L 894.60 127.19 L 892.14 130.88 L 892.03 130.32 L 891.94 130.43 L 891.91 124.04 L 891.82 117.54 L 891.69 110.93 L 889.86 104.21 L 889.37 107.25 L 889.29 110.96 L 888.88 114.79 L 888.86 118.34 L 888.14 111.75 L 888.07 113.81 L 887.96 113.10 L 886.83 106.41 L 879.53 109.46 L 878.96 112.29 L 877.12 115.70 L 876.80 119.58 L 876.41 123.11 L 875.16 125.65 L 873.59 128.17 L 871.09 129.38 L 870.26 122.98 L 869.86 124.76 L 868.35 126.64 L 868.15 120.18 L 867.93 120.92 L 866.91 119.16 L 866.33 121.96 L 858.77 124.95 L 858.70 126.21 L 858.59 119.75 L 858.50 121.75 L 858.45 123.93 L 857.90 117.43 L 857.64 120.97 L 856.90 124.10 L 855.97 117.59 L 855.64 120.65 L 855.55 121.41 L 855.22 114.87 L 855.09 118.08 L 854.93 111.49 L 854.70 112.69 L 853.93 116.51 L 853.20 119.58 L 853.06 118.76 L 852.99 112.19 L 852.75 105.50 L 852.51 108.20 L 851.73 111.85 L 850.82 105.15 L 850.06 98.34 L 849.65 102.29 L 849.34 95.44 L 849.04 98.48 L 847.79 100.25 L 846.47 103.51 L 846.34 107.23 L 846.21 110.61 L 845.80 103.91 L 845.65 97.10 L 845.59 100.35 L 845.34 93.48 L 845.22 97.47 L 845.14 98.31 L 844.59 91.41 L 837.62 93.78 L 837.15 86.81 L 836.63 90.57 L 831.57 91.98 L 830.94 84.97 L 828.59 88.32 L 828.33 91.19 L 827.85 84.19 L 826.81 84.53 L 825.86 88.24 L 825.81 90.68 L 825.70 83.67 L 825.63 86.73 L 824.90 79.66 L 824.87 83.42 L 824.83 76.29 L 824.42 75.14 L 823.36 78.62 L 823.34 82.45 L 816.15 75.31 L 816.10 79.22 L 815.64 83.33 L 814.35 85.96 L 813.49 86.08 L 813.41 87.62 L 809.01 80.56 L 806.51 84.66 L 802.64 88.31 L 792.24 88.64 L 786.06 92.34 L 785.46 94.86 L 781.39 87.90 L 768.15 90.53 L 765.31 93.51 L 750.17 89.94 L 750.12 92.61 L 746.35 85.63 L 741.09 88.57 L 740.01 91.01 L 730.90 84.00 L 730.08 83.72 L 729.92 87.92 L 728.65 91.97 L 707.43 84.98 L 701.47 84.64 L 680.53 77.54 L 665.75 78.01 L 662.33 81.75 L 659.33 83.28 L 658.56 87.00 L 646.99 90.23 L 644.19 83.22 L 635.47 81.97 L 622.91 79.75 L 622.84 72.57 L 622.69 71.80 L 619.72 75.99 L 599.28 80.15 L 591.98 72.98 L 562.01 73.30 L 558.56 66.02 L 552.86 68.54 L 551.64 71.08 L 550.72 75.28 L 550.30 79.44 L 541.33 72.25 L 541.11 71.52 L 541.08 75.18 L 538.44 79.34 L 538.31 76.87 L 538.14 74.22 L 532.34 77.74 L 532.20 77.61 L 532.12 70.41 L 492.30 63.10 L 489.34 62.17 L 487.06 65.62 L 477.96 64.43 L 453.62 57.02 L 452.13 59.14 L 450.16 62.57 L 431.69 64.74 L 425.58 57.34 L 413.60 60.86 L 411.51 53.41 L 411.25 56.77 L 410.60 60.77 L 408.27 53.32 L 405.37 56.35 L 404.73 59.11 L 393.09 59.65 L 392.95 62.67 L 392.75 66.17 L 389.95 58.81 L 386.67 59.67 L 386.60 61.63 L 380.87 54.19 L 379.18 54.20 L 369.24 53.56 L 368.42 46.01 L 366.40 50.03 L 361.36 51.92 L 348.14 50.45 L 344.65 47.47 L 340.91 51.55 L 338.89 43.97 L 323.35 45.11 L 323.20 41.66 L 323.08 41.98 L 319.46 34.26 L 319.32 36.52 L 319.21 38.62 L 317.22 30.86 L 305.02 33.32 L 302.74 25.48 L 301.87 29.25 L 296.44 33.78 L 296.00 36.85 L 295.73 40.91 L 295.07 44.46 L 294.71 46.11 L 287.43 49.56 L 287.41 53.65 L 280.92 46.10 L 278.44 38.44 L 278.39 41.63 L 278.24 33.92 L 278.20 37.67 L 277.97 29.91 L 277.91 32.84 Z" fill="#d0d0d0" fill-opacity="0.5" stroke="none"/>
<polyline fill="none" stroke="#111" stroke-width="1.2" points="70.00,68.84 75.67,64.62 75.70,60.96 75.83,57.57 94.04,57.38 104.96,53.04 109.31,49.01 112.23,56.50 112.26,63.90 112.36,62.81 112.50,63.97 114.91,63.57 127.41,59.66 129.54,56.02 130.04,51.55 130.24,48.06 130.37,46.31 155.04,53.85 160.29,49.50 160.46,46.13 160.51,41.90 171.97,49.51 178.37,46.50 178.50,43.79 193.71,41.48 217.60,39.69 221.19,37.09 239.28,34.05 242.23,30.94 254.18,29.41 260.40,26.34 266.29,25.00 277.91,32.84 277.97,29.91 278.20,37.67 278.24,33.92 278.39,41.63 278.44,38.44 280.92,46.10 287.41,53.65 287.43,49.56 294.71,46.11 295.07,44.46 295.73,40.91 296.00,36.85 296.44,33.78 301.87,29.25 302.74,25.48 305.02,33.32 317.22,30.86 319.21,38.62 319.32,36.52 319.46,34.26 323.08,41.98 323.20,41.66 323.35,45.11 338.89,43.97 340.91,51.55 344.65,47.47 348.14,50.45 361.36,51.92 366.40,50.03 368.42,46.01 369.24,53.56 379.18,54.20 380.87,54.19 386.60,61.63 386.67,59.67 389.95,58.81 392.75,66.17 392.95,62.67 393.09,59.65 404.73,59.11 405.37,56.35 408.27,53.32 410.60,60.77 411.25,56.77 411.51,53.41 413.60,60.86 425.58,57.34 431.69,64.74 450.16,62.57 452.13,59.14 453.62,57.02 477.96,64.43 487.06,65.62 489.34,62.17 492.30,63.10 532.12,70.41 532.20,77.61 532.34,77.74 538.14,74.22 538.31,76.87 538.44,79.34 541.08,75.18 541.11,71.52 541.33,72.25 550.30,79.44 550.72,75.28 551.64,71.08 552.86,68.54 558.56,66.02 562.01,73.30 591.98,72.98 599.28,80.15 619.72,75.99 622.69,71.80 622.84,72.57 622.91,79.75 635.47,81.97 644.19,83.22 646.99,90.23 658.56,87.00 659.33,83.28 662.33,81.75 665.75,78.01 680.53,77.54 701.47,84.64 707.43,84.98 728.65,91.97 729.92,87.92 730.08,83.72 730.90,84.00 740.01,91.01 741.09,88.57 746.35,85.63 750.12,92.61 750.17,89.94 765.31,93.51 768.15,90.53 781.39,87.90 785.46,94.86 786.06,92.34 792.24,88.64 802.64,88.31 806.51,84.66 809.01,80.56 813.41,87.62 813.49,86.08 814.35,85.96 815.64,83.33 816.10,79.22 816.15,75.31 823.34,82.45 823.36,78.62 824.42,75.14 824.83,76.29 824.87,83.42 824.90,79.66 825.63,86.73 825.70,83.67 825.81,90.68 825.86,88.24 826.81,84.53 827.85,84.19 828.33,91.19 828.59,88.32 830.94,84.97 831.57,91.98 836.63,90.57 837.15,86.81 837.62,93.78 844.59,91.41 845.14,98.31 845.22,97.47 845.34,93.48 845.59,100.35 845.65,97.10 845.80,103.91 846.21,110.61 846.34,107.23 846.47,103.51 847.79,100.25 849.04,98.48 849.34,95.44 849.65,102.29 850.06,98.34 850.82,105.15 851.73,111.85 852.51,108.20 852.75,105.50 852.99,112.19 853.06,118.76 853.20,119.58 853.93,116.51 854.70,112.69 854.93,111.49 855.09,118.08 855.22,114.87 855.55,121.41 855.64,120.65 855.97,117.59 856.90,124.10 857.64,120.97 857.90,117.43 858.45,123.93 858.50,121.75 858.59,119.75 858.70,126.21 858.77,124.95 866.33,121.96 866.91,119.16 867.93,120.92 868.15,120.18 868.35,126.64 869.86,124.76 870.26,122.98 871.09,129.38 873.59,128.17 875.16,125.65 876.41,123.11 876.80,119.58 877.12,115.70 878.96,112.29 879.53,109.46 886.83,106.41 887.96,113.10 888.07,113.81 888.14,111.75 888.86,118.34 888.88,114.79 889.29,110.96 889.37,107.25 889.86,104.21 891.69,110.93 891.82,117.54 891.91,124.04 891.94,130.43 892.03,130.32 892.14,130.88 894.60,127.19 894.72,125.79 894.79,132.06 894.84,129.57 894.98,125.91 896.22,125.62 897.07,131.99 897.71,138.25 897.75,144.41 897.89,141.36 898.04,137.82 898.15,134.35 900.72,130.71 900.82,137.00 900.97,136.60 901.13,133.21 901.34,129.58 908.03,129.54 908.11,127.13 908.98,123.42 909.76,119.70 909.98,116.15 910.09,113.07 911.76,119.66 911.84,117.06 912.30,114.24 912.78,111.58 912.90,118.20 912.92,114.69 913.06,112.39 913.17,109.13 913.49,106.17 914.19,102.62 915.16,109.38 915.18,105.66 915.46,102.09 915.66,108.86 915.81,104.88 915.91,101.42 916.45,97.87 917.75,99.19 918.33,106.01 918.73,104.73 919.16,101.16 920.87,97.22 921.25,104.07 921.67,101.50 921.95,97.92 922.09,93.92 922.30,100.83 922.62,107.62 929.14,114.30 929.24,120.76 929.30,119.18 929.72,125.68 929.76,123.08 930.14,129.51 930.20,135.83 930.32,142.05 930.68,139.63 930.96,136.06 931.32,132.46 931.51,132.95 932.48,131.72 933.68,128.34 934.20,134.69 934.28,132.80 935.39,129.82 936.83,129.87 937.07,126.46 937.51,124.61 938.28,122.97 938.99,129.41 939.07,127.75 939.15,134.12 939.51,132.78 939.92,132.36 940.22,138.64 940.29,136.81 940.39,134.21 941.70,131.49 942.76,128.58 943.24,125.94 943.38,122.60 952.00,122.55 952.27,120.27 952.39,126.76 952.45,124.49 954.47,124.18 955.13,120.83 955.55,127.32 956.51,123.63 957.11,130.07 957.13,136.38 957.27,142.60 957.30,139.82 957.47,136.26 957.69,133.98 957.91,130.53 958.33,126.84 958.47,123.34 959.48,129.78 959.55,127.07 959.61,123.35 959.75,119.59 960.14,118.44 960.43,115.26 961.17,121.83 961.45,118.10 962.36,114.32 962.69,113.43 962.87,110.73 963.00,117.38 963.48,113.57 963.51,110.71 963.61,117.37 963.66,123.92 963.76,124.12 963.81,130.56 963.85,127.54 964.21,133.92 964.22,130.18 964.35,136.52 964.37,142.74 964.50,148.86 964.50,145.27 964.83,141.73 964.92,139.50 971.46,137.18 971.68,143.40 971.72,140.56 971.89,137.22 972.33,133.60 972.63,131.41 972.72,137.72 972.76,143.93 972.85,149.92 973.58,146.46 973.71,142.97 973.83,140.03 973.94,146.20 974.52,145.73 974.77,142.19 974.86,148.32 975.01,146.88 975.18,143.58 975.46,142.93 975.54,148.95 975.58,146.81 975.71,143.43 976.23,149.55 976.58,155.55 977.03,161.45 977.51,159.85 977.59,165.57 977.66,164.23 977.99,164.45 978.51,161.33 978.60,158.46 978.89,157.09 979.12,155.03 979.49,160.94 979.52,166.73 979.63,166.86 979.71,165.78 979.76,162.49 979.82,159.55 980.02,156.65 980.04,153.25 980.79,159.20 980.85,165.04 981.07,170.76 981.08,176.29 981.15,175.40 981.22,172.20 981.54,169.48 981.89,175.13 982.00,180.66 982.26,177.90 982.42,176.31 982.58,181.82 982.61,187.13 982.70,192.43 982.76,190.38 983.06,187.32 983.07,184.37 983.58,183.59 983.73,182.00 983.82,187.41 983.90,187.27 984.13,184.30 984.58,189.66 984.63,194.93 984.73,200.08 984.77,198.08 985.00,195.35 985.18,193.04 985.61,190.31 985.78,187.25 992.98,187.11 993.80,186.29 994.48,191.61 994.54,190.17 994.79,189.38 994.98,188.99 995.03,186.31 995.94,183.86 996.18,181.03 996.71,178.95 997.13,179.42 997.22,184.89 997.39,183.94 997.59,189.32 997.72,194.59 997.82,199.65 997.93,201.08 998.81,206.10 999.29,211.02 999.31,208.37 999.42,213.14 999.72,210.35 1000.24,215.18 1000.32,214.47 1000.66,219.20 1000.67,223.82 1000.78,223.73 1000.82,221.44 1000.99,218.73 1001.91,216.01 1002.86,213.81 1003.29,218.56 1003.31,215.99 1003.45,213.84 1003.58,211.46 1003.80,208.96 1003.89,207.72 1003.97,205.19 1005.17,202.78 1005.72,199.89 1006.31,197.18 1006.66,194.20 1006.74,191.21 1013.81,190.38 1013.99,189.97 1014.89,187.23 1015.37,185.60 1015.70,182.47 1015.80,180.73 1015.89,177.87 1016.00,175.75 1017.14,173.89 1018.09,172.34 1018.77,177.95 1018.86,183.45 1018.94,181.92 1019.04,187.36 1019.06,184.57 1019.24,182.99 1020.17,181.16 1020.77,178.55 1021.08,176.15 1021.48,173.74 1021.70,171.09 1021.90,167.80 1022.13,165.34 1023.90,171.09 1024.09,176.74 1024.46,173.55 1024.51,170.77 1024.88,168.05 1025.17,164.73 1025.40,170.50 1025.93,168.65 1026.09,165.63 1027.12,162.60 1027.65,168.41 1027.84,165.12 1028.09,162.63 1028.39,159.28 1035.02,162.09 1035.06,160.80 1036.14,166.65 1036.23,165.81 1036.35,163.88 1037.06,160.78 1039.77,157.73 1040.19,154.55 1040.35,151.35 1042.85,157.36 1042.90,163.27 1042.99,161.99 1043.09,158.83 1043.14,164.72 1043.25,170.39 1043.32,168.84 1043.42,166.72 1045.89,163.38 1046.00,160.03 1046.35,157.63 1047.67,154.87 1048.36,160.84 1048.41,158.57 1049.05,155.17 1049.13,161.12 1056.18,160.60 1057.21,157.75 1057.50,155.74 1057.65,153.48 1057.77,159.46 1057.88,159.54 1057.96,165.41 1058.13,163.29 1058.25,160.41 1058.46,157.39 1059.37,156.47 1060.91,162.40 1060.92,168.22 1060.99,173.92 1061.15,175.02 1061.24,171.78 1063.36,168.75 1063.87,165.75 1064.19,162.77 1064.29,160.51 1064.41,158.47 1066.54,155.06 1066.78,152.29 1069.55,152.70 1069.84,158.70 1069.90,164.49 1069.95,162.68 1070.09,160.63 1070.35,166.49 1077.53,164.16 1078.41,161.65 1079.09,158.28 1081.39,154.84 1081.69,153.11 1082.00,151.11 1082.21,148.39 1084.54,154.48 1085.41,151.99 1087.47,148.48 1087.56,145.74 1088.22,143.01 1088.46,149.19 1088.56,148.38 1088.63,145.45 1090.89,151.58 1091.15,148.66 1099.36,146.88 1099.55,144.78 1099.68,143.28 1100.49,141.70 1101.79,139.59 1102.94,136.27 1103.56,136.24 1103.76,136.87 1105.47,133.50 1105.89,130.53 1106.40,127.89 1106.70,125.42 1108.25,121.68 1108.94,118.49 1109.76,125.08 1109.85,124.10 1111.09,123.18 1111.43,121.57 1111.78,128.12 1111.82,125.17 1111.97,121.65 1112.36,120.37 1112.67,117.20 1119.63,116.39 1121.40,123.02 1121.58,129.54 1121.65,127.62 1121.73,124.47 1123.91,120.71 1124.29,117.39 1124.77,124.01 1125.10,120.20 1125.12,126.78 1126.30,133.24 1126.49,130.32 1126.73,136.73 1127.31,135.08 1127.51,141.40 1127.53,147.63 1127.58,153.71 1127.64,152.09 1127.71,158.11 1127.73,154.88 1127.85,160.87 1127.90,158.93 1129.44,157.04 1129.62,154.21 1129.84,150.87 1129.91,147.21 1129.94,153.30 1129.96,150.18 1130.08,156.26 1130.12,153.60 1130.25,152.14 1130.33,151.48 1130.47,157.53 1130.52,163.48 1130.62,162.80 1130.71,160.53 1130.73,156.92 1130.77,154.32 1130.93,153.13 1131.02,150.72 1131.86,147.16 1132.56,144.32 1132.83,150.49 1132.84,156.55 1132.94,156.53 1133.03,162.48 1133.11,168.22 1133.20,167.71 1133.31,166.77 1133.50,163.77 1133.81,160.80 1140.83,166.69 1140.90,164.60 1141.75,170.42 1141.79,167.57 1142.06,164.93 1142.13,161.51 1142.19,158.41 1142.31,155.66 1142.83,153.18 1145.83,149.69 1154.45,154.68 1162.23,152.76 1162.75,149.79 1163.35,146.88 1163.93,144.01 1164.29,150.19 1164.39,148.69 1165.03,154.79 1165.08,152.13 1165.24,151.42 1165.79,157.48 1166.05,153.99 1166.60,150.47 1168.38,148.72 1168.90,146.09 1169.46,142.49 1169.66,148.69 1169.67,154.69 1169.68,160.69 1170.00,157.27"/>
<text x="620.0" y="588" text-anchor="middle" font-family="sans-serif" font-size="12" fill="#333">UTC time</text>
<text x="15" y="287.5" transform="rotate(-90 15,287.5)" text-anchor="middle" font-family="sans-serif" font-size="12" fill="#333">Capital</text>
</svg>