<svg xmlns="http://www.w3.org/2000/svg" width="1200" height="600" viewBox="0 0 1200 600">
<desc>Equity curve with drawdown fill</desc>
<text x="600.0" y="18.0" text-anchor="middle" font-family="sans-serif" font-size="14">Portfolio 2016</text>
<rect x="70" y="25" width="1100" height="525" fill="white" stroke="#ccc" />
<line x1="70" y1="550.00" x2="1170" y2="550.00" stroke="#eee"/>
<text x="62" y="554.0" text-anchor="end" font-family="sans-serif" font-size="11" fill="#555">0.00</text>
<line x1="70" y1="445.00" x2="1170" y2="445.00" stroke="#eee"/>
<text x="62" y="449.0" text-anchor="end" font-family="sans-serif" font-size="11" fill="#555">23706</text>
<line x1="70" y1="340.00" x2="1170" y2="340.00" stroke="#eee"/>
<text x="62" y="344.0" text-anchor="end" font-family="sans-serif" font-size="11" fill="#555">47411</text>
<line x1="70" y1="235.00" x2="1170" y2="235.00" stroke="#eee"/>
<text x="62" y="239.0" text-anchor="end" font-family="sans-serif" font-size="11" fill="#555">71117</text>
<line x1="70" y1="130.00" x2="1170" y2="130.00" stroke="#eee"/>
<text x="62" y="134.0" text-anchor="end" font-family="sans-serif" font-size="11" fill="#555">94823</text>
<line x1="70" y1="25.00" x2="1170" y2="25.00" stroke="#eee"/>
<text x="62" y="29.0" text-anchor="end" font-family="sans-serif" font-size="11" fill="#555">118529</text>
<line x1="154.21" y1="25" x2="154.21" y2="550" stroke="#f2f2f2"/>
<text x="154.21" y="566" text-anchor="middle" font-family="sans-serif" font-size="11" fill="#555">Feb</text>
<line x1="242.56" y1="25" x2="242.56" y2="550" stroke="#f2f2f2"/>
<text x="242.56" y="566" text-anchor="middle" font-family="sans-serif" font-size="11" fill="#555">Mar</text>
<line x1="337.00" y1="25" x2="337.00" y2="550" stroke="#f2f2f2"/>
<text x="337.00" y="566" text-anchor="middle" font-family="sans-serif" font-size="11" fill="#555">Apr</text>
<line x1="428.40" y1="25" x2="428.40" y2="550" stroke="#f2f2f2"/>
<text x="428.40" y="566" text-anchor="middle" font-family="sans-serif" font-size="11" fill="#555">May</text>
<line x1="522.84" y1="25" x2="522.84" y2="550" stroke="#f2f2f2"/>
<text x="522.84" y="566" text-anchor="middle" font-family="sans-serif" font-size="11" fill="#555">Jun</text>
<line x1="614.24" y1="25" x2="614.24" y2="550" stroke="#f2f2f2"/>
<text x="614.24" y="566" text-anchor="middle" font-family="sans-serif" font-size="11" fill="#555">Jul</text>
<line x1="708.68" y1="25" x2="708.68" y2="550" stroke="#f2f2f2"/>
<text x="708.68" y="566" text-anchor="middle" font-family="sans-serif" font-size="11" fill="#555">Aug</text>
<line x1="803.12" y1="25" x2="803.12" y2="550" stroke="#f2f2f2"/>
<text x="803.12" y="566" text-anchor="middle" font-family="sans-serif" font-size="11" fill="#555">Sep</text>
<line x1="894.51" y1="25" x2="894.51" y2="550" stroke="#f2f2f2"/>
<text x="894.51" y="566" text-anchor="middle" font-family="sans-serif" font-size="11" fill="#555">Oct</text>
<line x1="988.96" y1="25" x2="988.96" y2="550" stroke="#f2f2f2"/>
<text x="988.96" y="566" text-anchor="middle" font-family="sans-serif" font-size="11" fill="#555">Nov</text>
<line x1="1080.35" y1="25" x2="1080.35" y2="550" stroke="#f2f2f2"/>
<text x="1080.35" y="566" text-anchor="middle" font-family="sans-serif" font-size="11" fill="#555">Dec</text>
<line x1="70" y1="550" x2="1170" y2="550" stroke="#888"/>
<line x1="70" y1="25" x2="70" y2="550" stroke="#888"/>
<path d="M 70.76 105.40 L 79.26 105.40 L 80.45 105.40 L 81.30 105.40 L 81.30 106.86 L 80.45 109.14 L 79.26 110.91 L 70.76 106.48 Z" fill="#d0d0d0" fill-opacity="0.5" stroke="none"/>
<path d="M 104.18 99.26 L 104.19 99.26 L 104.19 101.31 L 104.18 103.77 Z" fill="#d0d0d0" fill-opacity="0.5" stroke="none"/>
<path d="M 123.18 97.23 L 123.18 97.97 Z" fill="#d0d0d0" fill-opacity="0.5" stroke="none"/>
<path d="M 146.93 93.64 L 162.03 93.64 L 162.28 93.64 L 162.34 93.64 L 162.39 93.64 L 162.68 93.64 L 164.45 93.64 L 168.11 93.64 L 168.16 93.64 L 168.23 93.64 L 168.40 93.64 L 177.05 93.64 L 177.59 93.64 L 180.31 93.64 L 183.60 93.64 L 185.79 93.64 L 189.47 93.64 L 198.83 93.64 L 226.27 93.64 L 232.22 93.64 L 250.76 93.64 L 250.76 95.17 L 232.22 97.77 L 226.27 98.62 L 198.83 99.44 L 189.47 100.62 L 185.79 102.53 L 183.60 104.83 L 180.31 100.34 L 177.59 102.91 L 177.05 98.40 L 168.40 99.66 L 168.23 99.67 L 168.16 101.45 L 168.11 103.84 L 164.45 106.39 L 162.68 107.95 L 162.39 103.49 L 162.34 105.15 L 162.28 100.66 L 162.03 96.13 L 146.93 98.19 Z" fill="#d0d0d0" fill-opacity="0.5" stroke="none"/>
<path d="M 269.10 85.62 L 269.10 87.66 Z" fill="#d0d0d0" fill-opacity="0.5" stroke="none"/>
<path d="M 271.62 85.00 L 271.73 85.00 L 271.75 85.00 L 271.75 86.47 L 271.73 89.11 L 271.62 89.64 Z" fill="#d0d0d0" fill-opacity="0.5" stroke="none"/>
<path d="M 271.92 82.65 L 271.97 82.65 L 272.06 82.65 L 272.14 82.65 L 272.26 82.65 L 274.17 82.65 L 275.01 82.65 L 290.67 82.65 L 290.72 82.65 L 292.57 82.65 L 307.78 82.65 L 330.07 82.65 L 339.00 82.65 L 354.12 82.65 L 354.35 82.65 L 356.52 82.65 L 372.47 82.65 L 399.64 82.65 L 399.64 83.52 L 372.47 84.99 L 356.52 86.86 L 354.35 88.85 L 354.12 91.49 L 339.00 93.17 L 330.07 93.60 L 307.78 96.21 L 292.57 97.44 L 290.72 97.05 L 290.67 92.48 L 275.01 95.09 L 274.17 95.62 L 272.26 96.58 L 272.14 96.21 L 272.06 96.45 L 271.97 91.87 L 271.92 87.27 Z" fill="#d0d0d0" fill-opacity="0.5" stroke="none"/>
<path d="M 399.94 80.74 L 415.03 80.74 L 418.63 80.74 L 418.63 81.07 L 415.03 83.75 L 399.94 85.42 Z" fill="#d0d0d0" fill-opacity="0.5" stroke="none"/>
<path d="M 530.74 68.79 L 530.83 68.79 L 530.90 68.79 L 531.05 68.79 L 567.90 68.79 L 570.06 68.79 L 570.79 68.79 L 570.82 68.79 L 570.95 68.79 L 585.56 68.79 L 591.18 68.79 L 591.18 70.96 L 585.56 73.42 L 570.95 76.13 L 570.82 77.80 L 570.79 80.15 L 570.06 75.41 L 567.90 75.64 L 531.05 78.35 L 530.90 77.41 L 530.83 78.33 L 530.74 73.59 Z" fill="#d0d0d0" fill-opacity="0.5" stroke="none"/>
<path d="M 593.12 65.19 L 593.17 65.19 L 593.21 65.19 L 593.34 65.19 L 593.36 65.19 L 593.40 65.19 L 593.51 65.19 L 593.54 65.19 L 593.65 65.19 L 593.69 65.19 L 593.83 65.19 L 593.85 65.19 L 593.97 65.19 L 594.02 65.19 L 594.09 65.19 L 594.18 65.19 L 594.47 65.19 L 594.86 65.19 L 595.27 65.19 L 601.95 65.19 L 612.93 65.19 L 613.34 65.19 L 613.34 66.50 L 612.93 69.25 L 601.95 71.59 L 595.27 73.57 L 594.86 68.77 L 594.47 71.02 L 594.18 71.25 L 594.09 73.38 L 594.02 74.40 L 593.97 69.62 L 593.85 72.34 L 593.83 75.10 L 593.69 77.79 L 593.65 79.44 L 593.54 74.70 L 593.51 77.23 L 593.40 72.53 L 593.36 74.81 L 593.34 77.30 L 593.21 72.54 L 593.17 74.79 L 593.12 70.01 Z" fill="#d0d0d0" fill-opacity="0.5" stroke="none"/>
<path d="M 628.59 61.07 L 637.28 61.07 L 637.28 63.17 L 628.59 65.94 Z" fill="#d0d0d0" fill-opacity="0.5" stroke="none"/>
<path d="M 787.04 40.98 L 805.19 40.98 L 807.88 40.98 L 807.88 43.18 L 805.19 46.06 L 787.04 46.03 Z" fill="#d0d0d0" fill-opacity="0.5" stroke="none"/>
<path d="M 820.32 40.76 L 820.40 40.76 L 829.42 40.76 L 850.69 40.76 L 892.57 40.76 L 892.57 40.95 L 850.69 42.83 L 829.42 43.85 L 820.40 44.52 L 820.32 45.81 Z" fill="#d0d0d0" fill-opacity="0.5" stroke="none"/>
<path d="M 1013.59 25.00 L 1013.63 25.00 L 1013.70 25.00 L 1013.76 25.00 L 1013.89 25.00 L 1013.90 25.00 L 1014.07 25.00 L 1014.21 25.00 L 1014.34 25.00 L 1014.42 25.00 L 1014.55 25.00 L 1014.60 25.00 L 1014.91 25.00 L 1015.28 25.00 L 1015.34 25.00 L 1028.75 25.00 L 1029.74 25.00 L 1030.54 25.00 L 1032.75 25.00 L 1035.69 25.00 L 1039.48 25.00 L 1042.74 25.00 L 1057.78 25.00 L 1071.58 25.00 L 1072.72 25.00 L 1079.14 25.00 L 1079.42 25.00 L 1092.41 25.00 L 1093.53 25.00 L 1093.67 25.00 L 1093.98 25.00 L 1094.04 25.00 L 1094.91 25.00 L 1103.29 25.00 L 1103.35 25.00 L 1103.41 25.00 L 1103.52 25.00 L 1103.68 25.00 L 1103.73 25.00 L 1106.38 25.00 L 1122.37 25.00 L 1123.09 25.00 L 1124.47 25.00 L 1125.17 25.00 L 1128.19 25.00 L 1146.27 25.00 L 1168.65 25.00 L 1168.69 25.00 L 1170.00 25.00 L 1170.00 40.70 L 1168.69 42.38 L 1168.65 44.65 L 1146.27 47.61 L 1128.19 49.97 L 1125.17 52.60 L 1124.47 53.91 L 1123.09 48.93 L 1122.37 49.30 L 1106.38 52.25 L 1103.73 52.54 L 1103.68 47.56 L 1103.52 42.53 L 1103.41 42.81 L 1103.35 37.74 L 1103.29 39.78 L 1094.91 42.78 L 1094.04 43.14 L 1093.98 45.22 L 1093.67 40.17 L 1093.53 41.24 L 1092.41 42.85 L 1079.42 45.84 L 1079.14 47.05 L 1072.72 49.29 L 1071.58 51.56 L 1057.78 51.51 L 1042.74 46.51 L 1039.48 49.09 L 1035.69 51.15 L 1032.75 53.23 L 1030.54 54.09 L 1029.74 53.26 L 1028.75 54.58 L 1015.34 56.78 L 1015.28 51.82 L 1014.91 51.30 L 1014.60 53.66 L 1014.55 48.73 L 1014.42 43.72 L 1014.34 44.67 L 1014.21 39.61 L 1014.07 42.34 L 1013.90 37.27 L 1013.89 40.29 L 1013.76 39.16 L 1013.70 34.09 L 1013.63 35.32 L 1013.59 30.18 Z" fill="#d0d0d0" fill-opacity="0.5" stroke="none"/>
<polyline fill="none" stroke="#111" stroke-width="1.2" points="70.00,105.40 70.76,106.48 79.26,110.91 80.45,109.14 81.30,106.86 83.06,104.73 90.12,102.17 98.34,100.39 100.59,99.85 101.45,99.26 104.18,103.77 104.19,101.31 122.42,98.64 122.50,97.23 123.18,97.97 143.23,96.24 145.54,93.64 146.93,98.19 162.03,96.13 162.28,100.66 162.34,105.15 162.39,103.49 162.68,107.95 164.45,106.39 168.11,103.84 168.16,101.45 168.23,99.67 168.40,99.66 177.05,98.40 177.59,102.91 180.31,100.34 183.60,104.83 185.79,102.53 189.47,100.62 198.83,99.44 226.27,98.62 232.22,97.77 250.76,95.17 253.42,92.56 253.44,90.02 253.48,87.38 253.67,85.91 263.10,85.62 269.10,87.66 271.60,85.00 271.62,89.64 271.73,89.11 271.75,86.47 271.78,83.72 271.88,82.65 271.92,87.27 271.97,91.87 272.06,96.45 272.14,96.21 272.26,96.58 274.17,95.62 275.01,95.09 290.67,92.48 290.72,97.05 292.57,97.44 307.78,96.21 330.07,93.60 339.00,93.17 354.12,91.49 354.35,88.85 356.52,86.86 372.47,84.99 399.64,83.52 399.68,80.74 399.94,85.42 415.03,83.75 418.63,81.07 433.35,78.38 435.70,77.22 445.35,74.50 466.89,72.03 482.71,71.64 530.65,68.79 530.74,73.59 530.83,78.33 530.90,77.41 531.05,78.35 567.90,75.64 570.06,75.41 570.79,80.15 570.82,77.80 570.95,76.13 585.56,73.42 591.18,70.96 592.91,68.11 592.95,65.19 593.12,70.01 593.17,74.79 593.21,72.54 593.34,77.30 593.36,74.81 593.40,72.53 593.51,77.23 593.54,74.70 593.65,79.44 593.69,77.79 593.83,75.10 593.85,72.34 593.97,69.62 594.02,74.40 594.09,73.38 594.18,71.25 594.47,71.02 594.86,68.77 595.27,73.57 601.95,71.59 612.93,69.25 613.34,66.50 613.37,63.86 627.50,61.07 628.59,65.94 637.28,63.17 637.37,60.38 655.40,57.58 658.80,56.97 680.30,55.46 701.39,54.15 722.58,51.32 722.80,50.75 743.99,50.30 755.57,49.13 759.87,46.51 786.74,43.64 786.79,40.98 787.04,46.03 805.19,46.06 807.88,43.18 808.17,40.76 820.32,45.81 820.40,44.52 829.42,43.85 850.69,42.83 892.57,40.95 893.37,39.62 905.77,36.71 905.81,34.08 914.58,31.40 954.15,28.66 954.24,26.13 979.19,25.00 1013.59,30.18 1013.63,35.32 1013.70,34.09 1013.76,39.16 1013.89,40.29 1013.90,37.27 1014.07,42.34 1014.21,39.61 1014.34,44.67 1014.42,43.72 1014.55,48.73 1014.60,53.66 1014.91,51.30 1015.28,51.82 1015.34,56.78 1028.75,54.58 1029.74,53.26 1030.54,54.09 1032.75,53.23 1035.69,51.15 1039.48,49.09 1042.74,46.51 1057.78,51.51 1071.58,51.56 1072.72,49.29 1079.14,47.05 1079.42,45.84 1092.41,42.85 1093.53,41.24 1093.67,40.17 1093.98,45.22 1094.04,43.14 1094.91,42.78 1103.29,39.78 1103.35,37.74 1103.41,42.81 1103.52,42.53 1103.68,47.56 1103.73,52.54 1106.38,52.25 1122.37,49.30 1123.09,48.93 1124.47,53.91 1125.17,52.60 1128.19,49.97 1146.27,47.61 1168.65,44.65 1168.69,42.38 1170.00,40.70"/>
<text x="620.0" y="588" text-anchor="middle" font-family="sans-serif" font-size="12" fill="#333">UTC time</text>
<text x="15" y="287.5" transform="rotate(-90 15,287.5)" text-anchor="middle" font-family="sans-serif" font-size="12" fill="#333">Capital</text>
</svg>