<svg xmlns="http://www.w3.org/2000/svg" width="1200" height="600" viewBox="0 0 1200 600">
<desc>Equity curve with drawdown fill</desc>
<text x="600.0" y="18.0" text-anchor="middle" font-family="sans-serif" font-size="14">Portfolio 2010</text>
<rect x="70" y="25" width="1100" height="525" fill="white" stroke="#ccc" />
<line x1="70" y1="550.00" x2="1170" y2="550.00" stroke="#eee"/>
<text x="62" y="554.0" text-anchor="end" font-family="sans-serif" font-size="11" fill="#555">0.00</text>
<line x1="70" y1="445.00" x2="1170" y2="445.00" stroke="#eee"/>
<text x="62" y="449.0" text-anchor="end" font-family="sans-serif" font-size="11" fill="#555">24400</text>
<line x1="70" y1="340.00" x2="1170" y2="340.00" stroke="#eee"/>
<text x="62" y="344.0" text-anchor="end" font-family="sans-serif" font-size="11" fill="#555">48799</text>
<line x1="70" y1="235.00" x2="1170" y2="235.00" stroke="#eee"/>
<text x="62" y="239.0" text-anchor="end" font-family="sans-serif" font-size="11" fill="#555">73199</text>
<line x1="70" y1="130.00" x2="1170" y2="130.00" stroke="#eee"/>
<text x="62" y="134.0" text-anchor="end" font-family="sans-serif" font-size="11" fill="#555">97599</text>
<line x1="70" y1="25.00" x2="1170" y2="25.00" stroke="#eee"/>
<text x="62" y="29.0" text-anchor="end" font-family="sans-serif" font-size="11" fill="#555">121998</text>
<line x1="154.02" y1="25" x2="154.02" y2="550" stroke="#f2f2f2"/>
<text x="154.02" y="566" text-anchor="middle" font-family="sans-serif" font-size="11" fill="#555">Feb</text>
<line x1="239.38" y1="25" x2="239.38" y2="550" stroke="#f2f2f2"/>
<text x="239.38" y="566" text-anchor="middle" font-family="sans-serif" font-size="11" fill="#555">Mar</text>
<line x1="333.88" y1="25" x2="333.88" y2="550" stroke="#f2f2f2"/>
<text x="333.88" y="566" text-anchor="middle" font-family="sans-serif" font-size="11" fill="#555">Apr</text>
<line x1="425.33" y1="25" x2="425.33" y2="550" stroke="#f2f2f2"/>
<text x="425.33" y="566" text-anchor="middle" font-family="sans-serif" font-size="11" fill="#555">May</text>
<line x1="519.83" y1="25" x2="519.83" y2="550" stroke="#f2f2f2"/>
<text x="519.83" y="566" text-anchor="middle" font-family="sans-serif" font-size="11" fill="#555">Jun</text>
<line x1="611.29" y1="25" x2="611.29" y2="550" stroke="#f2f2f2"/>
<text x="611.29" y="566" text-anchor="middle" font-family="sans-serif" font-size="11" fill="#555">Jul</text>
<line x1="705.79" y1="25" x2="705.79" y2="550" stroke="#f2f2f2"/>
<text x="705.79" y="566" text-anchor="middle" font-family="sans-serif" font-size="11" fill="#555">Aug</text>
<line x1="800.29" y1="25" x2="800.29" y2="550" stroke="#f2f2f2"/>
<text x="800.29" y="566" text-anchor="middle" font-family="sans-serif" font-size="11" fill="#555">Sep</text>
<line x1="891.74" y1="25" x2="891.74" y2="550" stroke="#f2f2f2"/>
<text x="891.74" y="566" text-anchor="middle" font-family="sans-serif" font-size="11" fill="#555">Oct</text>
<line x1="986.24" y1="25" x2="986.24" y2="550" stroke="#f2f2f2"/>
<text x="986.24" y="566" text-anchor="middle" font-family="sans-serif" font-size="11" fill="#555">Nov</text>
<line x1="1077.70" y1="25" x2="1077.70" y2="550" stroke="#f2f2f2"/>
<text x="1077.70" y="566" text-anchor="middle" font-family="sans-serif" font-size="11" fill="#555">Dec</text>
<line x1="1170.00" y1="25" x2="1170.00" y2="550" stroke="#f2f2f2"/>
<text x="1170.00" y="566" text-anchor="middle" font-family="sans-serif" font-size="11" fill="#555">Jan</text>
<line x1="70" y1="550" x2="1170" y2="550" stroke="#888"/>
<line x1="70" y1="25" x2="70" y2="550" stroke="#888"/>
<path d="M 70.00 119.67 L 70.00 120.98 Z" fill="#d0d0d0" fill-opacity="0.5" stroke="none"/>
<path d="M 83.28 116.52 L 83.28 116.72 Z" fill="#d0d0d0" fill-opacity="0.5" stroke="none"/>
<path d="M 102.58 113.22 L 102.58 114.10 Z" fill="#d0d0d0" fill-opacity="0.5" stroke="none"/>
<path d="M 180.60 96.92 L 183.45 96.92 L 186.42 96.92 L 189.45 96.92 L 201.86 96.92 L 204.89 96.92 L 207.79 96.92 L 208.78 96.92 L 208.82 96.92 L 211.11 96.92 L 222.59 96.92 L 226.19 96.92 L 229.62 96.92 L 232.29 96.92 L 243.64 96.92 L 244.20 96.92 L 247.57 96.92 L 250.53 96.92 L 268.90 96.92 L 274.31 96.92 L 293.38 96.92 L 310.31 96.92 L 310.76 96.92 L 314.95 96.92 L 336.01 96.92 L 338.77 96.92 L 360.23 96.92 L 367.32 96.92 L 367.44 96.92 L 377.77 96.92 L 396.48 96.92 L 399.87 96.92 L 400.96 96.92 L 402.22 96.92 L 403.07 96.92 L 411.46 96.92 L 415.32 96.92 L 417.88 96.92 L 424.35 96.92 L 431.78 96.92 L 433.51 96.92 L 436.38 96.92 L 441.59 96.92 L 442.28 96.92 L 442.72 96.92 L 443.02 96.92 L 443.04 96.92 L 444.06 96.92 L 444.11 96.92 L 444.31 96.92 L 444.64 96.92 L 444.75 96.92 L 445.36 96.92 L 445.36 97.84 L 444.75 100.22 L 444.64 102.21 L 444.31 104.79 L 444.11 106.36 L 444.06 108.52 L 443.04 110.84 L 443.02 112.94 L 442.72 108.53 L 442.28 110.80 L 441.59 112.76 L 436.38 108.35 L 433.51 110.06 L 431.78 110.29 L 424.35 105.84 L 417.88 108.03 L 415.32 110.09 L 411.46 105.64 L 403.07 107.17 L 402.22 106.11 L 400.96 101.63 L 399.87 104.22 L 396.48 106.79 L 377.77 108.27 L 367.44 109.78 L 367.32 105.34 L 360.23 107.07 L 338.77 108.17 L 336.01 110.50 L 314.95 112.04 L 310.76 113.86 L 310.31 115.96 L 293.38 117.83 L 274.31 117.11 L 268.90 116.44 L 250.53 117.73 L 247.57 118.13 L 244.20 113.78 L 243.64 115.70 L 232.29 117.42 L 229.62 113.07 L 226.19 114.87 L 222.59 116.03 L 211.11 111.65 L 208.82 113.96 L 208.78 115.77 L 207.79 111.39 L 204.89 111.73 L 201.86 107.31 L 189.45 102.84 L 186.42 105.43 L 183.45 100.94 L 180.60 101.45 Z" fill="#d0d0d0" fill-opacity="0.5" stroke="none"/>
<path d="M 453.89 84.69 L 454.00 84.69 L 454.11 84.69 L 454.29 84.69 L 454.29 85.14 L 454.11 87.66 L 454.00 89.55 L 453.89 89.33 Z" fill="#d0d0d0" fill-opacity="0.5" stroke="none"/>
<path d="M 454.67 84.28 L 454.80 84.28 L 454.87 84.28 L 455.08 84.28 L 455.92 84.28 L 456.52 84.28 L 457.10 84.28 L 460.99 84.28 L 463.15 84.28 L 463.21 84.28 L 466.74 84.28 L 466.89 84.28 L 466.89 84.64 L 466.74 87.12 L 463.21 89.13 L 463.15 91.37 L 460.99 86.75 L 457.10 88.72 L 456.52 91.17 L 455.92 92.77 L 455.08 94.71 L 454.87 90.12 L 454.80 90.21 L 454.67 88.92 Z" fill="#d0d0d0" fill-opacity="0.5" stroke="none"/>
<path d="M 474.54 81.83 L 474.60 81.83 L 474.75 81.83 L 474.75 82.82 L 474.60 84.89 L 474.54 86.50 Z" fill="#d0d0d0" fill-opacity="0.5" stroke="none"/>
<path d="M 479.64 68.60 L 481.89 68.60 L 481.89 68.60 L 482.02 68.60 L 482.14 68.60 L 482.28 68.60 L 482.66 68.60 L 483.59 68.60 L 484.26 68.60 L 484.27 68.60 L 484.78 68.60 L 485.22 68.60 L 485.60 68.60 L 485.60 68.60 L 485.74 68.60 L 486.43 68.60 L 486.73 68.60 L 487.02 68.60 L 487.26 68.60 L 487.45 68.60 L 487.48 68.60 L 488.11 68.60 L 488.23 68.60 L 496.63 68.60 L 498.76 68.60 L 499.69 68.60 L 500.42 68.60 L 500.69 68.60 L 500.99 68.60 L 501.92 68.60 L 503.33 68.60 L 505.39 68.60 L 506.34 68.60 L 506.65 68.60 L 506.65 69.42 L 506.34 71.82 L 505.39 74.35 L 503.33 74.43 L 501.92 76.00 L 500.99 76.43 L 500.69 78.58 L 500.42 80.07 L 499.69 82.55 L 498.76 82.45 L 496.63 84.62 L 488.23 79.93 L 488.11 82.04 L 487.48 83.80 L 487.45 79.11 L 487.26 79.09 L 487.02 81.47 L 486.73 83.13 L 486.43 83.40 L 485.74 85.47 L 485.60 80.80 L 485.60 76.08 L 485.22 71.31 L 484.78 74.04 L 484.27 75.05 L 484.26 77.85 L 483.59 73.10 L 482.66 74.64 L 482.28 75.49 L 482.14 77.95 L 482.02 80.06 L 481.89 75.33 L 481.89 78.13 L 479.64 73.38 Z" fill="#d0d0d0" fill-opacity="0.5" stroke="none"/>
<path d="M 506.83 66.98 L 506.88 66.98 L 507.00 66.98 L 508.66 66.98 L 508.85 66.98 L 509.40 66.98 L 509.89 66.98 L 520.90 66.98 L 521.21 66.98 L 521.27 66.98 L 521.77 66.98 L 521.80 66.98 L 521.85 66.98 L 521.96 66.98 L 525.06 66.98 L 526.30 66.98 L 527.94 66.98 L 530.70 66.98 L 530.81 66.98 L 531.09 66.98 L 538.32 66.98 L 542.52 66.98 L 543.26 66.98 L 545.98 66.98 L 548.02 66.98 L 549.16 66.98 L 552.42 66.98 L 559.47 66.98 L 560.87 66.98 L 564.01 66.98 L 564.58 66.98 L 581.12 66.98 L 583.09 66.98 L 583.09 67.48 L 581.12 69.77 L 564.58 72.06 L 564.01 74.26 L 560.87 72.91 L 559.47 73.38 L 552.42 76.12 L 549.16 77.62 L 548.02 72.87 L 545.98 68.07 L 543.26 69.96 L 542.52 72.47 L 538.32 74.43 L 531.09 76.59 L 530.81 79.29 L 530.70 79.51 L 527.94 74.78 L 526.30 75.46 L 525.06 77.09 L 521.96 79.61 L 521.85 81.54 L 521.80 83.27 L 521.77 78.58 L 521.27 73.83 L 521.21 74.09 L 520.90 72.73 L 509.89 67.93 L 509.40 70.42 L 508.85 71.88 L 508.66 67.07 L 507.00 68.47 L 506.88 69.94 L 506.83 71.79 Z" fill="#d0d0d0" fill-opacity="0.5" stroke="none"/>
<path d="M 589.38 64.69 L 591.21 64.69 L 592.08 64.69 L 592.08 64.89 L 591.21 67.67 L 589.38 69.52 Z" fill="#d0d0d0" fill-opacity="0.5" stroke="none"/>
<path d="M 612.50 57.58 L 613.24 57.58 L 613.39 57.58 L 616.05 57.58 L 616.11 57.58 L 628.48 57.58 L 637.45 57.58 L 637.45 57.93 L 628.48 58.99 L 616.11 61.31 L 616.05 63.12 L 613.39 65.91 L 613.24 61.05 L 612.50 62.47 Z" fill="#d0d0d0" fill-opacity="0.5" stroke="none"/>
<path d="M 667.30 49.50 L 670.16 49.50 L 670.69 49.50 L 673.66 49.50 L 674.81 49.50 L 676.59 49.50 L 677.24 49.50 L 679.57 49.50 L 680.16 49.50 L 680.23 49.50 L 680.36 49.50 L 680.51 49.50 L 680.80 49.50 L 692.49 49.50 L 710.86 49.50 L 713.11 49.50 L 717.02 49.50 L 722.80 49.50 L 722.93 49.50 L 722.94 49.50 L 723.02 49.50 L 735.67 49.50 L 735.75 49.50 L 736.63 49.50 L 737.24 49.50 L 738.11 49.50 L 738.37 49.50 L 740.68 49.50 L 760.79 49.50 L 762.47 49.50 L 762.93 49.50 L 765.05 49.50 L 765.20 49.50 L 777.84 49.50 L 777.91 49.50 L 780.17 49.50 L 787.15 49.50 L 801.61 49.50 L 818.83 49.50 L 823.60 49.50 L 837.11 49.50 L 841.88 49.50 L 841.96 49.50 L 842.02 49.50 L 842.15 49.50 L 850.77 49.50 L 851.05 49.50 L 863.73 49.50 L 865.59 49.50 L 866.13 49.50 L 871.64 49.50 L 883.71 49.50 L 884.04 49.50 L 884.67 49.50 L 890.83 49.50 L 902.18 49.50 L 905.12 49.50 L 905.98 49.50 L 908.52 49.50 L 911.09 49.50 L 911.98 49.50 L 914.81 49.50 L 914.85 49.50 L 927.81 49.50 L 931.65 49.50 L 936.11 49.50 L 936.36 49.50 L 936.62 49.50 L 944.06 49.50 L 948.26 49.50 L 949.14 49.50 L 951.64 49.50 L 951.76 49.50 L 953.06 49.50 L 953.69 49.50 L 953.94 49.50 L 955.16 49.50 L 956.89 49.50 L 965.22 49.50 L 969.68 49.50 L 978.91 49.50 L 986.37 49.50 L 991.07 49.50 L 994.79 49.50 L 996.67 49.50 L 1000.15 49.50 L 1000.60 49.50 L 1007.87 49.50 L 1007.95 49.50 L 1010.74 49.50 L 1012.03 49.50 L 1012.78 49.50 L 1015.57 49.50 L 1015.61 49.50 L 1016.04 49.50 L 1017.91 49.50 L 1021.19 49.50 L 1021.19 51.91 L 1017.91 54.50 L 1016.04 56.82 L 1015.61 58.92 L 1015.57 61.61 L 1012.78 56.71 L 1012.03 58.07 L 1010.74 57.71 L 1007.95 57.48 L 1007.87 58.34 L 1000.60 53.40 L 1000.15 55.69 L 996.67 58.63 L 994.79 53.70 L 991.07 56.65 L 986.37 57.69 L 978.91 60.53 L 969.68 61.47 L 965.22 63.79 L 956.89 64.74 L 955.16 67.34 L 953.94 68.23 L 953.69 69.00 L 953.06 71.10 L 951.76 72.87 L 951.64 72.38 L 949.14 67.57 L 948.26 67.20 L 944.06 69.22 L 936.62 69.46 L 936.36 71.32 L 936.11 66.50 L 931.65 69.29 L 927.81 68.10 L 914.85 68.45 L 914.81 71.23 L 911.98 66.42 L 911.09 69.01 L 908.52 70.19 L 905.98 72.97 L 905.12 74.93 L 902.18 70.14 L 890.83 72.00 L 884.67 73.04 L 884.04 68.24 L 883.71 69.29 L 871.64 69.38 L 866.13 70.76 L 865.59 73.27 L 863.73 76.02 L 851.05 71.24 L 850.77 73.72 L 842.15 75.52 L 842.02 75.56 L 841.96 70.78 L 841.88 65.96 L 837.11 61.10 L 823.60 60.44 L 818.83 62.21 L 801.61 60.72 L 787.15 62.40 L 780.17 63.66 L 777.91 64.40 L 777.84 65.70 L 765.20 60.83 L 765.05 61.08 L 762.93 62.07 L 762.47 62.32 L 760.79 64.27 L 740.68 66.80 L 738.37 66.82 L 738.11 66.60 L 737.24 68.07 L 736.63 69.74 L 735.75 68.02 L 735.67 68.88 L 723.02 71.65 L 722.94 72.35 L 722.93 67.60 L 722.80 62.76 L 717.02 57.88 L 713.11 56.27 L 710.86 55.89 L 692.49 50.94 L 680.80 53.40 L 680.51 55.37 L 680.36 58.20 L 680.23 59.79 L 680.16 61.06 L 679.57 56.16 L 677.24 51.21 L 676.59 54.07 L 674.81 55.69 L 673.66 55.09 L 670.69 57.09 L 670.16 52.15 L 667.30 54.47 Z" fill="#d0d0d0" fill-opacity="0.5" stroke="none"/>
<path d="M 1051.95 47.23 L 1053.47 47.23 L 1055.10 47.23 L 1057.52 47.23 L 1057.55 47.23 L 1057.69 47.23 L 1057.69 48.00 L 1057.55 49.90 L 1057.52 52.32 L 1055.10 47.33 L 1053.47 49.90 L 1051.95 52.21 Z" fill="#d0d0d0" fill-opacity="0.5" stroke="none"/>
<path d="M 1073.01 38.88 L 1078.78 38.88 L 1078.78 41.60 L 1073.01 43.94 Z" fill="#d0d0d0" fill-opacity="0.5" stroke="none"/>
<path d="M 1103.36 28.85 L 1104.05 28.85 L 1115.82 28.85 L 1118.41 28.85 L 1119.25 28.85 L 1121.21 28.85 L 1122.72 28.85 L 1128.11 28.85 L 1128.57 28.85 L 1137.65 28.85 L 1138.94 28.85 L 1138.94 30.97 L 1137.65 30.92 L 1128.57 32.76 L 1128.11 32.48 L 1122.72 33.12 L 1121.21 31.90 L 1119.25 34.40 L 1118.41 29.26 L 1115.82 29.58 L 1104.05 31.67 L 1103.36 33.99 Z" fill="#d0d0d0" fill-opacity="0.5" stroke="none"/>
<path d="M 1161.89 25.00 L 1165.23 25.00 L 1170.00 25.00 L 1170.00 26.42 L 1165.23 28.58 L 1161.89 30.17 Z" fill="#d0d0d0" fill-opacity="0.5" stroke="none"/>
<polyline fill="none" stroke="#111" stroke-width="1.2" points="70.00,120.98 75.63,118.49 82.68,116.52 83.28,116.72 90.04,115.54 97.71,114.66 98.12,113.22 102.58,114.10 115.74,113.08 117.64,111.37 122.64,108.99 142.05,106.42 165.31,104.47 166.36,101.90 167.30,99.31 168.15,96.92 180.60,101.45 183.45,100.94 186.42,105.43 189.45,102.84 201.86,107.31 204.89,111.73 207.79,111.39 208.78,115.77 208.82,113.96 211.11,111.65 222.59,116.03 226.19,114.87 229.62,113.07 232.29,117.42 243.64,115.70 244.20,113.78 247.57,118.13 250.53,117.73 268.90,116.44 274.31,117.11 293.38,117.83 310.31,115.96 310.76,113.86 314.95,112.04 336.01,110.50 338.77,108.17 360.23,107.07 367.32,105.34 367.44,109.78 377.77,108.27 396.48,106.79 399.87,104.22 400.96,101.63 402.22,106.11 403.07,107.17 411.46,105.64 415.32,110.09 417.88,108.03 424.35,105.84 431.78,110.29 433.51,110.06 436.38,108.35 441.59,112.76 442.28,110.80 442.72,108.53 443.02,112.94 443.04,110.84 444.06,108.52 444.11,106.36 444.31,104.79 444.64,102.21 444.75,100.22 445.36,97.84 445.63,96.39 445.69,93.78 445.82,91.17 452.65,88.41 453.00,85.73 453.25,84.69 453.89,89.33 454.00,89.55 454.11,87.66 454.29,85.14 454.53,84.28 454.67,88.92 454.80,90.21 454.87,90.12 455.08,94.71 455.92,92.77 456.52,91.17 457.10,88.72 460.99,86.75 463.15,91.37 463.21,89.13 466.74,87.12 466.89,84.64 467.06,83.38 467.18,81.83 474.54,86.50 474.60,84.89 474.75,82.82 475.78,81.44 476.19,79.14 477.45,76.97 478.26,75.47 478.38,73.39 479.21,70.89 479.49,68.60 479.64,73.38 481.89,78.13 481.89,75.33 482.02,80.06 482.14,77.95 482.28,75.49 482.66,74.64 483.59,73.10 484.26,77.85 484.27,75.05 484.78,74.04 485.22,71.31 485.60,76.08 485.60,80.80 485.74,85.47 486.43,83.40 486.73,83.13 487.02,81.47 487.26,79.09 487.45,79.11 487.48,83.80 488.11,82.04 488.23,79.93 496.63,84.62 498.76,82.45 499.69,82.55 500.42,80.07 500.69,78.58 500.99,76.43 501.92,76.00 503.33,74.43 505.39,74.35 506.34,71.82 506.65,69.42 506.71,66.98 506.83,71.79 506.88,69.94 507.00,68.47 508.66,67.07 508.85,71.88 509.40,70.42 509.89,67.93 520.90,72.73 521.21,74.09 521.27,73.83 521.77,78.58 521.80,83.27 521.85,81.54 521.96,79.61 525.06,77.09 526.30,75.46 527.94,74.78 530.70,79.51 530.81,79.29 531.09,76.59 538.32,74.43 542.52,72.47 543.26,69.96 545.98,68.07 548.02,72.87 549.16,77.62 552.42,76.12 559.47,73.38 560.87,72.91 564.01,74.26 564.58,72.06 581.12,69.77 583.09,67.48 588.80,64.69 589.38,69.52 591.21,67.67 592.08,64.89 595.26,63.19 606.38,60.38 609.56,57.58 612.50,62.47 613.24,61.05 613.39,65.91 616.05,63.12 616.11,61.31 628.48,58.99 637.45,57.93 648.94,55.11 649.75,54.96 650.03,53.68 653.06,53.54 655.80,51.96 658.95,49.50 667.30,54.47 670.16,52.15 670.69,57.09 673.66,55.09 674.81,55.69 676.59,54.07 677.24,51.21 679.57,56.16 680.16,61.06 680.23,59.79 680.36,58.20 680.51,55.37 680.80,53.40 692.49,50.94 710.86,55.89 713.11,56.27 717.02,57.88 722.80,62.76 722.93,67.60 722.94,72.35 723.02,71.65 735.67,68.88 735.75,68.02 736.63,69.74 737.24,68.07 738.11,66.60 738.37,66.82 740.68,66.80 760.79,64.27 762.47,62.32 762.93,62.07 765.05,61.08 765.20,60.83 777.84,65.70 777.91,64.40 780.17,63.66 787.15,62.40 801.61,60.72 818.83,62.21 823.60,60.44 837.11,61.10 841.88,65.96 841.96,70.78 842.02,75.56 842.15,75.52 850.77,73.72 851.05,71.24 863.73,76.02 865.59,73.27 866.13,70.76 871.64,69.38 883.71,69.29 884.04,68.24 884.67,73.04 890.83,72.00 902.18,70.14 905.12,74.93 905.98,72.97 908.52,70.19 911.09,69.01 911.98,66.42 914.81,71.23 914.85,68.45 927.81,68.10 931.65,69.29 936.11,66.50 936.36,71.32 936.62,69.46 944.06,69.22 948.26,67.20 949.14,67.57 951.64,72.38 951.76,72.87 953.06,71.10 953.69,69.00 953.94,68.23 955.16,67.34 956.89,64.74 965.22,63.79 969.68,61.47 978.91,60.53 986.37,57.69 991.07,56.65 994.79,53.70 996.67,58.63 1000.15,55.69 1000.60,53.40 1007.87,58.34 1007.95,57.48 1010.74,57.71 1012.03,58.07 1012.78,56.71 1015.57,61.61 1015.61,58.92 1016.04,56.82 1017.91,54.50 1021.19,51.91 1033.99,49.29 1039.24,47.23 1051.95,52.21 1053.47,49.90 1055.10,47.33 1057.52,52.32 1057.55,49.90 1057.69,48.00 1058.23,45.40 1063.70,43.14 1071.73,41.51 1072.62,38.88 1073.01,43.94 1078.78,41.60 1079.84,38.58 1082.55,36.09 1082.65,33.14 1082.88,30.85 1085.88,30.06 1094.37,28.85 1103.36,33.99 1104.05,31.67 1115.82,29.58 1118.41,29.26 1119.25,34.40 1121.21,31.90 1122.72,33.12 1128.11,32.48 1128.57,32.76 1137.65,30.92 1138.94,30.97 1146.83,27.99 1160.04,25.00 1161.89,30.17 1165.23,28.58 1170.00,26.42"/>
<text x="620.0" y="588" text-anchor="middle" font-family="sans-serif" font-size="12" fill="#333">UTC time</text>
<text x="15" y="287.5" transform="rotate(-90 15,287.5)" text-anchor="middle" font-family="sans-serif" font-size="12" fill="#333">Capital</text>
</svg>