<svg xmlns="http://www.w3.org/2000/svg" width="1200" height="600" viewBox="0 0 1200 600">
<desc>Equity curve with drawdown fill</desc>
<text x="600.0" y="18.0" text-anchor="middle" font-family="sans-serif" font-size="14">Portfolio 2025</text>
<rect x="70" y="25" width="1100" height="525" fill="white" stroke="#ccc" />
<line x1="70" y1="550.00" x2="1170" y2="550.00" stroke="#eee"/>
<text x="62" y="554.0" text-anchor="end" font-family="sans-serif" font-size="11" fill="#555">0.00</text>
<line x1="70" y1="445.00" x2="1170" y2="445.00" stroke="#eee"/>
<text x="62" y="449.0" text-anchor="end" font-family="sans-serif" font-size="11" fill="#555">21874</text>
<line x1="70" y1="340.00" x2="1170" y2="340.00" stroke="#eee"/>
<text x="62" y="344.0" text-anchor="end" font-family="sans-serif" font-size="11" fill="#555">43749</text>
<line x1="70" y1="235.00" x2="1170" y2="235.00" stroke="#eee"/>
<text x="62" y="239.0" text-anchor="end" font-family="sans-serif" font-size="11" fill="#555">65623</text>
<line x1="70" y1="130.00" x2="1170" y2="130.00" stroke="#eee"/>
<text x="62" y="134.0" text-anchor="end" font-family="sans-serif" font-size="11" fill="#555">87497</text>
<line x1="70" y1="25.00" x2="1170" y2="25.00" stroke="#eee"/>
<text x="62" y="29.0" text-anchor="end" font-family="sans-serif" font-size="11" fill="#555">109371</text>
<line x1="258.67" y1="25" x2="258.67" y2="550" stroke="#f2f2f2"/>
<text x="258.67" y="566" text-anchor="middle" font-family="sans-serif" font-size="11" fill="#555">Feb</text>
<line x1="437.51" y1="25" x2="437.51" y2="550" stroke="#f2f2f2"/>
<text x="437.51" y="566" text-anchor="middle" font-family="sans-serif" font-size="11" fill="#555">Mar</text>
<line x1="635.52" y1="25" x2="635.52" y2="550" stroke="#f2f2f2"/>
<text x="635.52" y="566" text-anchor="middle" font-family="sans-serif" font-size="11" fill="#555">Apr</text>
<line x1="827.13" y1="25" x2="827.13" y2="550" stroke="#f2f2f2"/>
<text x="827.13" y="566" text-anchor="middle" font-family="sans-serif" font-size="11" fill="#555">May</text>
<line x1="1025.14" y1="25" x2="1025.14" y2="550" stroke="#f2f2f2"/>
<text x="1025.14" y="566" text-anchor="middle" font-family="sans-serif" font-size="11" fill="#555">Jun</text>
<line x1="70" y1="550" x2="1170" y2="550" stroke="#888"/>
<line x1="70" y1="25" x2="70" y2="550" stroke="#888"/>
<path d="M 71.32 68.26 L 95.06 68.26 L 95.62 68.26 L 95.84 68.26 L 96.20 68.26 L 96.40 68.26 L 96.40 70.13 L 96.20 72.86 L 95.84 75.25 L 95.62 75.42 L 95.06 70.62 L 71.32 73.07 Z" fill="#d0d0d0" fill-opacity="0.5" stroke="none"/>
<path d="M 185.93 48.04 L 186.12 48.04 L 186.66 48.04 L 188.66 48.04 L 210.12 48.04 L 233.16 48.04 L 249.67 48.04 L 256.98 48.04 L 256.98 49.68 L 249.67 50.79 L 233.16 52.79 L 210.12 52.86 L 188.66 54.82 L 186.66 49.83 L 186.12 52.67 L 185.93 53.05 Z" fill="#d0d0d0" fill-opacity="0.5" stroke="none"/>
<path d="M 271.38 47.10 L 271.38 47.57 Z" fill="#d0d0d0" fill-opacity="0.5" stroke="none"/>
<path d="M 275.62 42.09 L 279.28 42.09 L 301.22 42.09 L 301.22 42.13 L 279.28 45.02 L 275.62 47.15 Z" fill="#d0d0d0" fill-opacity="0.5" stroke="none"/>
<path d="M 333.70 36.60 L 339.42 36.60 L 339.42 39.21 L 333.70 41.72 Z" fill="#d0d0d0" fill-opacity="0.5" stroke="none"/>
<path d="M 428.83 36.31 L 462.00 36.31 L 465.34 36.31 L 466.97 36.31 L 472.98 36.31 L 474.47 36.31 L 503.51 36.31 L 523.51 36.31 L 554.58 36.31 L 554.58 37.36 L 523.51 39.39 L 503.51 40.95 L 474.47 43.07 L 472.98 45.38 L 466.97 48.25 L 465.34 43.20 L 462.00 44.32 L 428.83 39.23 Z" fill="#d0d0d0" fill-opacity="0.5" stroke="none"/>
<path d="M 1170.00 25.00 L 1170.00 30.22 Z" fill="#d0d0d0" fill-opacity="0.5" stroke="none"/>
<polyline fill="none" stroke="#111" stroke-width="1.2" points="70.00,68.26 71.32,73.07 95.06,70.62 95.62,75.42 95.84,75.25 96.20,72.86 96.40,70.13 108.50,67.90 121.74,65.14 121.84,62.96 122.16,60.48 139.83,57.68 153.68,54.87 154.61,53.57 185.62,50.73 185.67,48.04 185.93,53.05 186.12,52.67 186.66,49.83 188.66,54.82 210.12,52.86 233.16,52.79 249.67,50.79 256.98,49.68 257.25,47.10 271.38,47.57 271.46,44.72 271.56,42.09 275.62,47.15 279.28,45.02 301.22,42.13 301.61,39.52 332.52,36.60 333.70,41.72 339.42,39.21 340.30,36.31 428.83,39.23 462.00,44.32 465.34,43.20 466.97,48.25 472.98,45.38 474.47,43.07 503.51,40.95 523.51,39.39 554.58,37.36 1033.92,35.01 1054.70,34.96 1092.66,32.27 1098.33,29.88 1102.26,27.14 1131.55,25.00 1170.00,30.22"/>
<text x="620.0" y="588" text-anchor="middle" font-family="sans-serif" font-size="12" fill="#333">UTC time</text>
<text x="15" y="287.5" transform="rotate(-90 15,287.5)" text-anchor="middle" font-family="sans-serif" font-size="12" fill="#333">Capital</text>
</svg>