<svg xmlns="http://www.w3.org/2000/svg" width="1200" height="600" viewBox="0 0 1200 600">
<desc>Equity curve with drawdown fill</desc>
<text x="600.0" y="18.0" text-anchor="middle" font-family="sans-serif" font-size="14">Portfolio 2003</text>
<rect x="70" y="25" width="1100" height="525" fill="white" stroke="#ccc" />
<line x1="70" y1="550.00" x2="1170" y2="550.00" stroke="#eee"/>
<text x="62" y="554.0" text-anchor="end" font-family="sans-serif" font-size="11" fill="#555">0.00</text>
<line x1="70" y1="445.00" x2="1170" y2="445.00" stroke="#eee"/>
<text x="62" y="449.0" text-anchor="end" font-family="sans-serif" font-size="11" fill="#555">20823</text>
<line x1="70" y1="340.00" x2="1170" y2="340.00" stroke="#eee"/>
<text x="62" y="344.0" text-anchor="end" font-family="sans-serif" font-size="11" fill="#555">41645</text>
<line x1="70" y1="235.00" x2="1170" y2="235.00" stroke="#eee"/>
<text x="62" y="239.0" text-anchor="end" font-family="sans-serif" font-size="11" fill="#555">62468</text>
<line x1="70" y1="130.00" x2="1170" y2="130.00" stroke="#eee"/>
<text x="62" y="134.0" text-anchor="end" font-family="sans-serif" font-size="11" fill="#555">83291</text>
<line x1="70" y1="25.00" x2="1170" y2="25.00" stroke="#eee"/>
<text x="62" y="29.0" text-anchor="end" font-family="sans-serif" font-size="11" fill="#555">104114</text>
<line x1="158.95" y1="25" x2="158.95" y2="550" stroke="#f2f2f2"/>
<text x="158.95" y="566" text-anchor="middle" font-family="sans-serif" font-size="11" fill="#555">Feb</text>
<line x1="243.77" y1="25" x2="243.77" y2="550" stroke="#f2f2f2"/>
<text x="243.77" y="566" text-anchor="middle" font-family="sans-serif" font-size="11" fill="#555">Mar</text>
<line x1="337.69" y1="25" x2="337.69" y2="550" stroke="#f2f2f2"/>
<text x="337.69" y="566" text-anchor="middle" font-family="sans-serif" font-size="11" fill="#555">Apr</text>
<line x1="428.57" y1="25" x2="428.57" y2="550" stroke="#f2f2f2"/>
<text x="428.57" y="566" text-anchor="middle" font-family="sans-serif" font-size="11" fill="#555">May</text>
<line x1="522.48" y1="25" x2="522.48" y2="550" stroke="#f2f2f2"/>
<text x="522.48" y="566" text-anchor="middle" font-family="sans-serif" font-size="11" fill="#555">Jun</text>
<line x1="613.36" y1="25" x2="613.36" y2="550" stroke="#f2f2f2"/>
<text x="613.36" y="566" text-anchor="middle" font-family="sans-serif" font-size="11" fill="#555">Jul</text>
<line x1="707.28" y1="25" x2="707.28" y2="550" stroke="#f2f2f2"/>
<text x="707.28" y="566" text-anchor="middle" font-family="sans-serif" font-size="11" fill="#555">Aug</text>
<line x1="801.19" y1="25" x2="801.19" y2="550" stroke="#f2f2f2"/>
<text x="801.19" y="566" text-anchor="middle" font-family="sans-serif" font-size="11" fill="#555">Sep</text>
<line x1="892.07" y1="25" x2="892.07" y2="550" stroke="#f2f2f2"/>
<text x="892.07" y="566" text-anchor="middle" font-family="sans-serif" font-size="11" fill="#555">Oct</text>
<line x1="985.99" y1="25" x2="985.99" y2="550" stroke="#f2f2f2"/>
<text x="985.99" y="566" text-anchor="middle" font-family="sans-serif" font-size="11" fill="#555">Nov</text>
<line x1="1076.87" y1="25" x2="1076.87" y2="550" stroke="#f2f2f2"/>
<text x="1076.87" y="566" text-anchor="middle" font-family="sans-serif" font-size="11" fill="#555">Dec</text>
<line x1="1170.00" y1="25" x2="1170.00" y2="550" stroke="#f2f2f2"/>
<text x="1170.00" y="566" text-anchor="middle" font-family="sans-serif" font-size="11" fill="#555">Jan</text>
<line x1="70" y1="550" x2="1170" y2="550" stroke="#888"/>
<line x1="70" y1="25" x2="70" y2="550" stroke="#888"/>
<path d="M 70.00 45.74 L 70.13 45.74 L 70.23 45.74 L 88.38 45.74 L 88.52 45.74 L 88.54 45.74 L 88.59 45.74 L 94.12 45.74 L 109.42 45.74 L 112.75 45.74 L 127.94 45.74 L 144.98 45.74 L 145.60 45.74 L 145.64 45.74 L 150.14 45.74 L 153.99 45.74 L 155.09 45.74 L 157.82 45.74 L 166.09 45.74 L 169.86 45.74 L 171.95 45.74 L 173.12 45.74 L 173.31 45.74 L 178.40 45.74 L 179.07 45.74 L 188.40 45.74 L 190.55 45.74 L 191.46 45.74 L 196.35 45.74 L 197.20 45.74 L 207.56 45.74 L 233.56 45.74 L 233.56 49.06 L 207.56 53.32 L 197.20 54.79 L 196.35 57.63 L 191.46 61.44 L 190.55 61.53 L 188.40 62.28 L 179.07 65.05 L 178.40 68.78 L 173.31 72.16 L 173.12 64.89 L 171.95 67.63 L 169.86 69.83 L 166.09 72.77 L 157.82 75.71 L 155.09 68.51 L 153.99 71.42 L 150.14 75.51 L 145.64 77.10 L 145.60 80.28 L 144.98 73.14 L 127.94 76.09 L 112.75 74.88 L 109.42 78.93 L 94.12 78.94 L 88.59 81.30 L 88.54 83.62 L 88.52 76.66 L 88.38 69.46 L 70.23 62.16 L 70.13 54.73 L 70.00 53.30 Z" fill="#d0d0d0" fill-opacity="0.5" stroke="none"/>
<path d="M 252.22 45.51 L 255.82 45.51 L 260.69 45.51 L 264.15 45.51 L 264.15 47.57 L 260.69 50.68 L 255.82 54.96 L 252.22 47.42 Z" fill="#d0d0d0" fill-opacity="0.5" stroke="none"/>
<path d="M 282.51 31.92 L 285.23 31.92 L 285.26 31.92 L 294.20 31.92 L 294.24 31.92 L 294.33 31.92 L 294.50 31.92 L 297.16 31.92 L 299.92 31.92 L 301.70 31.92 L 302.33 31.92 L 303.30 31.92 L 306.62 31.92 L 321.31 31.92 L 341.74 31.92 L 342.72 31.92 L 356.96 31.92 L 359.79 31.92 L 363.92 31.92 L 364.14 31.92 L 369.80 31.92 L 379.14 31.92 L 379.14 35.25 L 369.80 38.76 L 364.14 41.34 L 363.92 44.14 L 359.79 43.77 L 356.96 45.72 L 342.72 47.60 L 341.74 50.10 L 321.31 49.44 L 306.62 53.34 L 303.30 54.79 L 302.33 58.64 L 301.70 62.01 L 299.92 66.15 L 297.16 68.33 L 294.50 68.04 L 294.33 66.02 L 294.24 58.68 L 294.20 51.20 L 285.26 43.60 L 285.23 47.35 L 282.51 39.70 Z" fill="#d0d0d0" fill-opacity="0.5" stroke="none"/>
<path d="M 400.20 25.00 L 402.43 25.00 L 408.39 25.00 L 412.50 25.00 L 421.53 25.00 L 424.62 25.00 L 425.73 25.00 L 430.53 25.00 L 433.38 25.00 L 442.73 25.00 L 446.21 25.00 L 448.63 25.00 L 451.50 25.00 L 451.54 25.00 L 465.11 25.00 L 465.60 25.00 L 465.94 25.00 L 471.43 25.00 L 473.36 25.00 L 475.67 25.00 L 483.05 25.00 L 484.32 25.00 L 484.82 25.00 L 485.57 25.00 L 491.05 25.00 L 493.68 25.00 L 496.36 25.00 L 496.55 25.00 L 507.64 25.00 L 508.12 25.00 L 508.52 25.00 L 511.91 25.00 L 514.53 25.00 L 515.45 25.00 L 518.33 25.00 L 526.00 25.00 L 526.27 25.00 L 527.48 25.00 L 529.96 25.00 L 536.25 25.00 L 536.33 25.00 L 536.38 25.00 L 536.40 25.00 L 536.59 25.00 L 539.34 25.00 L 539.38 25.00 L 539.53 25.00 L 539.57 25.00 L 547.92 25.00 L 548.53 25.00 L 560.71 25.00 L 569.07 25.00 L 577.45 25.00 L 577.55 25.00 L 579.26 25.00 L 582.34 25.00 L 590.44 25.00 L 594.26 25.00 L 597.65 25.00 L 612.47 25.00 L 615.39 25.00 L 620.63 25.00 L 633.02 25.00 L 635.88 25.00 L 636.75 25.00 L 642.79 25.00 L 657.80 25.00 L 658.10 25.00 L 658.23 25.00 L 658.96 25.00 L 660.79 25.00 L 663.71 25.00 L 664.89 25.00 L 667.05 25.00 L 667.15 25.00 L 675.92 25.00 L 682.23 25.00 L 684.77 25.00 L 688.09 25.00 L 700.18 25.00 L 706.37 25.00 L 708.50 25.00 L 709.18 25.00 L 709.27 25.00 L 709.39 25.00 L 718.54 25.00 L 758.84 25.00 L 763.43 25.00 L 768.91 25.00 L 768.94 25.00 L 770.02 25.00 L 770.06 25.00 L 770.22 25.00 L 772.60 25.00 L 782.22 25.00 L 783.07 25.00 L 785.09 25.00 L 791.08 25.00 L 793.99 25.00 L 812.02 25.00 L 815.02 25.00 L 815.23 25.00 L 815.32 25.00 L 824.50 25.00 L 827.68 25.00 L 832.56 25.00 L 833.35 25.00 L 836.22 25.00 L 836.36 25.00 L 836.38 25.00 L 836.41 25.00 L 836.56 25.00 L 852.20 25.00 L 854.55 25.00 L 854.69 25.00 L 857.74 25.00 L 864.72 25.00 L 864.78 25.00 L 869.05 25.00 L 875.87 25.00 L 887.99 25.00 L 888.03 25.00 L 888.11 25.00 L 888.18 25.00 L 888.22 25.00 L 890.94 25.00 L 891.07 25.00 L 900.30 25.00 L 909.10 25.00 L 911.55 25.00 L 914.27 25.00 L 918.01 25.00 L 918.47 25.00 L 921.17 25.00 L 929.53 25.00 L 929.73 25.00 L 931.79 25.00 L 933.56 25.00 L 936.21 25.00 L 936.27 25.00 L 939.42 25.00 L 942.60 25.00 L 949.93 25.00 L 950.73 25.00 L 957.54 25.00 L 981.78 25.00 L 982.18 25.00 L 994.11 25.00 L 994.28 25.00 L 1006.16 25.00 L 1019.68 25.00 L 1036.62 25.00 L 1039.40 25.00 L 1039.47 25.00 L 1039.58 25.00 L 1056.90 25.00 L 1057.01 25.00 L 1063.61 25.00 L 1063.77 25.00 L 1063.84 25.00 L 1076.91 25.00 L 1079.00 25.00 L 1081.85 25.00 L 1081.99 25.00 L 1082.09 25.00 L 1086.38 25.00 L 1087.79 25.00 L 1087.98 25.00 L 1091.03 25.00 L 1103.10 25.00 L 1105.12 25.00 L 1119.23 25.00 L 1121.23 25.00 L 1133.44 25.00 L 1169.95 25.00 L 1170.00 25.00 L 1170.00 73.04 L 1169.95 76.92 L 1133.44 69.67 L 1121.23 72.09 L 1119.23 69.79 L 1105.12 70.17 L 1103.10 73.92 L 1091.03 76.94 L 1087.98 80.55 L 1087.79 83.38 L 1086.38 76.24 L 1082.09 80.31 L 1081.99 79.39 L 1081.85 77.32 L 1079.00 70.08 L 1076.91 69.64 L 1063.84 72.69 L 1063.77 75.10 L 1063.61 75.07 L 1057.01 76.61 L 1056.90 76.79 L 1039.58 80.89 L 1039.47 81.57 L 1039.40 74.40 L 1036.62 67.11 L 1019.68 69.99 L 1006.16 74.14 L 994.28 66.85 L 994.11 64.87 L 982.18 57.43 L 981.78 61.70 L 957.54 65.06 L 950.73 67.65 L 949.93 70.95 L 942.60 63.61 L 939.42 63.14 L 936.27 64.49 L 936.21 68.03 L 933.56 71.79 L 931.79 74.03 L 929.73 66.73 L 929.53 68.76 L 921.17 67.67 L 918.47 68.04 L 918.01 68.28 L 914.27 72.45 L 911.55 75.88 L 909.10 74.30 L 900.30 75.85 L 891.07 79.46 L 890.94 83.49 L 888.22 87.52 L 888.18 90.10 L 888.11 83.07 L 888.03 84.68 L 887.99 77.55 L 875.87 70.33 L 869.05 74.12 L 864.78 77.87 L 864.72 80.36 L 857.74 73.18 L 854.69 75.35 L 854.55 78.89 L 852.20 80.46 L 836.56 80.08 L 836.41 82.05 L 836.38 74.90 L 836.36 67.63 L 836.22 65.93 L 833.35 70.10 L 832.56 73.84 L 827.68 75.34 L 824.50 75.82 L 815.32 79.55 L 815.23 82.39 L 815.02 81.66 L 812.02 74.51 L 793.99 78.29 L 791.08 80.58 L 785.09 73.41 L 783.07 66.11 L 782.22 69.38 L 772.60 73.13 L 770.22 76.85 L 770.06 69.61 L 770.02 73.53 L 768.94 77.60 L 768.91 81.03 L 763.43 73.86 L 758.84 77.00 L 718.54 74.40 L 709.39 78.09 L 709.27 80.56 L 709.18 82.55 L 708.50 75.40 L 706.37 68.14 L 700.18 67.88 L 688.09 68.10 L 684.77 67.24 L 682.23 70.71 L 675.92 69.52 L 667.15 72.62 L 667.05 74.36 L 664.89 67.09 L 663.71 70.43 L 660.79 67.15 L 658.96 66.54 L 658.23 69.92 L 658.10 67.07 L 657.80 65.90 L 642.79 58.49 L 636.75 61.97 L 635.88 64.49 L 633.02 67.10 L 620.63 69.32 L 615.39 61.98 L 612.47 62.13 L 597.65 61.60 L 594.26 65.54 L 590.44 68.45 L 582.34 69.06 L 579.26 71.07 L 577.55 63.75 L 577.45 66.09 L 569.07 69.11 L 560.71 72.87 L 548.53 76.78 L 547.92 76.90 L 539.57 79.54 L 539.53 82.28 L 539.38 75.14 L 539.34 67.90 L 536.59 72.02 L 536.40 71.51 L 536.38 64.20 L 536.33 56.79 L 536.25 49.26 L 529.96 41.62 L 527.48 45.25 L 526.27 49.23 L 526.00 41.58 L 518.33 42.36 L 515.45 46.35 L 514.53 38.66 L 511.91 42.71 L 508.52 34.97 L 508.12 39.37 L 507.64 43.00 L 496.55 42.58 L 496.36 38.27 L 493.68 30.46 L 491.05 33.51 L 485.57 37.76 L 484.82 41.75 L 484.32 44.60 L 483.05 48.65 L 475.67 48.35 L 473.36 40.70 L 471.43 39.54 L 465.94 43.55 L 465.60 45.94 L 465.11 49.48 L 451.54 41.85 L 451.50 34.23 L 448.63 35.22 L 446.21 38.48 L 442.73 30.69 L 433.38 32.82 L 430.53 36.94 L 425.73 29.11 L 424.62 29.81 L 421.53 29.52 L 412.50 33.18 L 408.39 33.54 L 402.43 33.70 L 400.20 25.84 Z" fill="#d0d0d0" fill-opacity="0.5" stroke="none"/>
<polyline fill="none" stroke="#111" stroke-width="1.2" points="70.00,53.30 70.13,54.73 70.23,62.16 88.38,69.46 88.52,76.66 88.54,83.62 88.59,81.30 94.12,78.94 109.42,78.93 112.75,74.88 127.94,76.09 144.98,73.14 145.60,80.28 145.64,77.10 150.14,75.51 153.99,71.42 155.09,68.51 157.82,75.71 166.09,72.77 169.86,69.83 171.95,67.63 173.12,64.89 173.31,72.16 178.40,68.78 179.07,65.05 188.40,62.28 190.55,61.53 191.46,61.44 196.35,57.63 197.20,54.79 207.56,53.32 233.56,49.06 239.50,45.51 252.22,47.42 255.82,54.96 260.69,50.68 264.15,47.57 278.84,43.93 280.31,40.41 280.34,35.82 280.40,32.80 280.55,31.92 282.51,39.70 285.23,47.35 285.26,43.60 294.20,51.20 294.24,58.68 294.33,66.02 294.50,68.04 297.16,68.33 299.92,66.15 301.70,62.01 302.33,58.64 303.30,54.79 306.62,53.34 321.31,49.44 341.74,50.10 342.72,47.60 356.96,45.72 359.79,43.77 363.92,44.14 364.14,41.34 369.80,38.76 379.14,35.25 385.47,31.27 386.75,28.64 388.38,25.00 400.20,25.84 402.43,33.70 408.39,33.54 412.50,33.18 421.53,29.52 424.62,29.81 425.73,29.11 430.53,36.94 433.38,32.82 442.73,30.69 446.21,38.48 448.63,35.22 451.50,34.23 451.54,41.85 465.11,49.48 465.60,45.94 465.94,43.55 471.43,39.54 473.36,40.70 475.67,48.35 483.05,48.65 484.32,44.60 484.82,41.75 485.57,37.76 491.05,33.51 493.68,30.46 496.36,38.27 496.55,42.58 507.64,43.00 508.12,39.37 508.52,34.97 511.91,42.71 514.53,38.66 515.45,46.35 518.33,42.36 526.00,41.58 526.27,49.23 527.48,45.25 529.96,41.62 536.25,49.26 536.33,56.79 536.38,64.20 536.40,71.51 536.59,72.02 539.34,67.90 539.38,75.14 539.53,82.28 539.57,79.54 547.92,76.90 548.53,76.78 560.71,72.87 569.07,69.11 577.45,66.09 577.55,63.75 579.26,71.07 582.34,69.06 590.44,68.45 594.26,65.54 597.65,61.60 612.47,62.13 615.39,61.98 620.63,69.32 633.02,67.10 635.88,64.49 636.75,61.97 642.79,58.49 657.80,65.90 658.10,67.07 658.23,69.92 658.96,66.54 660.79,67.15 663.71,70.43 664.89,67.09 667.05,74.36 667.15,72.62 675.92,69.52 682.23,70.71 684.77,67.24 688.09,68.10 700.18,67.88 706.37,68.14 708.50,75.40 709.18,82.55 709.27,80.56 709.39,78.09 718.54,74.40 758.84,77.00 763.43,73.86 768.91,81.03 768.94,77.60 770.02,73.53 770.06,69.61 770.22,76.85 772.60,73.13 782.22,69.38 783.07,66.11 785.09,73.41 791.08,80.58 793.99,78.29 812.02,74.51 815.02,81.66 815.23,82.39 815.32,79.55 824.50,75.82 827.68,75.34 832.56,73.84 833.35,70.10 836.22,65.93 836.36,67.63 836.38,74.90 836.41,82.05 836.56,80.08 852.20,80.46 854.55,78.89 854.69,75.35 857.74,73.18 864.72,80.36 864.78,77.87 869.05,74.12 875.87,70.33 887.99,77.55 888.03,84.68 888.11,83.07 888.18,90.10 888.22,87.52 890.94,83.49 891.07,79.46 900.30,75.85 909.10,74.30 911.55,75.88 914.27,72.45 918.01,68.28 918.47,68.04 921.17,67.67 929.53,68.76 929.73,66.73 931.79,74.03 933.56,71.79 936.21,68.03 936.27,64.49 939.42,63.14 942.60,63.61 949.93,70.95 950.73,67.65 957.54,65.06 981.78,61.70 982.18,57.43 994.11,64.87 994.28,66.85 1006.16,74.14 1019.68,69.99 1036.62,67.11 1039.40,74.40 1039.47,81.57 1039.58,80.89 1056.90,76.79 1057.01,76.61 1063.61,75.07 1063.77,75.10 1063.84,72.69 1076.91,69.64 1079.00,70.08 1081.85,77.32 1081.99,79.39 1082.09,80.31 1086.38,76.24 1087.79,83.38 1087.98,80.55 1091.03,76.94 1103.10,73.92 1105.12,70.17 1119.23,69.79 1121.23,72.09 1133.44,69.67 1169.95,76.92 1170.00,73.04"/>
<text x="620.0" y="588" text-anchor="middle" font-family="sans-serif" font-size="12" fill="#333">UTC time</text>
<text x="15" y="287.5" transform="rotate(-90 15,287.5)" text-anchor="middle" font-family="sans-serif" font-size="12" fill="#333">Capital</text>
</svg>