<svg xmlns="http://www.w3.org/2000/svg" width="1200" height="600" viewBox="0 0 1200 600">
<desc>Equity curve with drawdown fill</desc>
<text x="600.0" y="18.0" text-anchor="middle" font-family="sans-serif" font-size="14">Portfolio 2018</text>
<rect x="70" y="25" width="1100" height="525" fill="white" stroke="#ccc" />
<line x1="70" y1="550.00" x2="1170" y2="550.00" stroke="#eee"/>
<text x="62" y="554.0" text-anchor="end" font-family="sans-serif" font-size="11" fill="#555">0.00</text>
<line x1="70" y1="445.00" x2="1170" y2="445.00" stroke="#eee"/>
<text x="62" y="449.0" text-anchor="end" font-family="sans-serif" font-size="11" fill="#555">21432</text>
<line x1="70" y1="340.00" x2="1170" y2="340.00" stroke="#eee"/>
<text x="62" y="344.0" text-anchor="end" font-family="sans-serif" font-size="11" fill="#555">42865</text>
<line x1="70" y1="235.00" x2="1170" y2="235.00" stroke="#eee"/>
<text x="62" y="239.0" text-anchor="end" font-family="sans-serif" font-size="11" fill="#555">64297</text>
<line x1="70" y1="130.00" x2="1170" y2="130.00" stroke="#eee"/>
<text x="62" y="134.0" text-anchor="end" font-family="sans-serif" font-size="11" fill="#555">85729</text>
<line x1="70" y1="25.00" x2="1170" y2="25.00" stroke="#eee"/>
<text x="62" y="29.0" text-anchor="end" font-family="sans-serif" font-size="11" fill="#555">107161</text>
<line x1="138.85" y1="25" x2="138.85" y2="550" stroke="#f2f2f2"/>
<text x="138.85" y="566" text-anchor="middle" font-family="sans-serif" font-size="11" fill="#555">Feb</text>
<line x1="228.39" y1="25" x2="228.39" y2="550" stroke="#f2f2f2"/>
<text x="228.39" y="566" text-anchor="middle" font-family="sans-serif" font-size="11" fill="#555">Mar</text>
<line x1="327.53" y1="25" x2="327.53" y2="550" stroke="#f2f2f2"/>
<text x="327.53" y="566" text-anchor="middle" font-family="sans-serif" font-size="11" fill="#555">Apr</text>
<line x1="423.47" y1="25" x2="423.47" y2="550" stroke="#f2f2f2"/>
<text x="423.47" y="566" text-anchor="middle" font-family="sans-serif" font-size="11" fill="#555">May</text>
<line x1="522.61" y1="25" x2="522.61" y2="550" stroke="#f2f2f2"/>
<text x="522.61" y="566" text-anchor="middle" font-family="sans-serif" font-size="11" fill="#555">Jun</text>
<line x1="618.55" y1="25" x2="618.55" y2="550" stroke="#f2f2f2"/>
<text x="618.55" y="566" text-anchor="middle" font-family="sans-serif" font-size="11" fill="#555">Jul</text>
<line x1="717.68" y1="25" x2="717.68" y2="550" stroke="#f2f2f2"/>
<text x="717.68" y="566" text-anchor="middle" font-family="sans-serif" font-size="11" fill="#555">Aug</text>
<line x1="816.82" y1="25" x2="816.82" y2="550" stroke="#f2f2f2"/>
<text x="816.82" y="566" text-anchor="middle" font-family="sans-serif" font-size="11" fill="#555">Sep</text>
<line x1="912.76" y1="25" x2="912.76" y2="550" stroke="#f2f2f2"/>
<text x="912.76" y="566" text-anchor="middle" font-family="sans-serif" font-size="11" fill="#555">Oct</text>
<line x1="1011.90" y1="25" x2="1011.90" y2="550" stroke="#f2f2f2"/>
<text x="1011.90" y="566" text-anchor="middle" font-family="sans-serif" font-size="11" fill="#555">Nov</text>
<line x1="1107.84" y1="25" x2="1107.84" y2="550" stroke="#f2f2f2"/>
<text x="1107.84" y="566" text-anchor="middle" font-family="sans-serif" font-size="11" fill="#555">Dec</text>
<line x1="70" y1="550" x2="1170" y2="550" stroke="#888"/>
<line x1="70" y1="25" x2="70" y2="550" stroke="#888"/>
<path d="M 73.43 59.78 L 76.04 59.78 L 85.92 59.78 L 85.92 60.73 L 76.04 61.86 L 73.43 64.67 Z" fill="#d0d0d0" fill-opacity="0.5" stroke="none"/>
<path d="M 118.29 55.07 L 118.37 55.07 L 118.57 55.07 L 119.00 55.07 L 119.14 55.07 L 119.14 56.72 L 119.00 56.65 L 118.57 59.49 L 118.37 58.66 L 118.29 60.01 Z" fill="#d0d0d0" fill-opacity="0.5" stroke="none"/>
<path d="M 252.94 38.38 L 252.94 39.67 Z" fill="#d0d0d0" fill-opacity="0.5" stroke="none"/>
<path d="M 409.67 36.20 L 429.27 36.20 L 435.01 36.20 L 454.21 36.20 L 470.21 36.20 L 491.86 36.20 L 495.05 36.20 L 501.98 36.20 L 514.37 36.20 L 514.37 37.77 L 501.98 37.15 L 495.05 39.11 L 491.86 40.00 L 470.21 42.11 L 454.21 36.99 L 435.01 37.34 L 429.27 39.51 L 409.67 41.33 Z" fill="#d0d0d0" fill-opacity="0.5" stroke="none"/>
<path d="M 565.90 25.00 L 566.03 25.00 L 566.03 25.00 L 566.16 25.00 L 566.18 25.00 L 566.29 25.00 L 581.48 25.00 L 588.40 25.00 L 612.63 25.00 L 636.37 25.00 L 653.01 25.00 L 678.62 25.00 L 681.27 25.00 L 747.29 25.00 L 747.38 25.00 L 747.47 25.00 L 781.85 25.00 L 784.23 25.00 L 793.26 25.00 L 831.56 25.00 L 837.94 25.00 L 857.15 25.00 L 879.43 25.00 L 900.91 25.00 L 1048.03 25.00 L 1055.50 25.00 L 1057.98 25.00 L 1061.79 25.00 L 1083.47 25.00 L 1100.53 25.00 L 1100.58 25.00 L 1100.68 25.00 L 1138.84 25.00 L 1150.74 25.00 L 1170.00 25.00 L 1170.00 46.22 L 1150.74 43.53 L 1138.84 41.72 L 1100.68 42.95 L 1100.58 37.84 L 1100.53 39.86 L 1083.47 34.72 L 1061.79 36.34 L 1057.98 31.16 L 1055.50 34.13 L 1048.03 35.80 L 900.91 37.34 L 879.43 39.77 L 857.15 39.15 L 837.94 34.00 L 831.56 34.21 L 793.26 36.33 L 784.23 39.04 L 781.85 38.99 L 747.47 41.91 L 747.38 44.17 L 747.29 45.24 L 681.27 48.13 L 678.62 47.45 L 653.01 48.13 L 636.37 49.56 L 612.63 51.96 L 588.40 54.81 L 581.48 49.82 L 566.29 51.39 L 566.18 50.57 L 566.16 45.58 L 566.03 40.49 L 566.03 35.41 L 565.90 30.24 Z" fill="#d0d0d0" fill-opacity="0.5" stroke="none"/>
<polyline fill="none" stroke="#111" stroke-width="1.2" points="70.00,59.78 73.43,64.67 76.04,61.86 85.92,60.73 88.64,57.91 90.98,55.07 118.29,60.01 118.37,58.66 118.57,59.49 119.00,56.65 119.14,56.72 120.72,54.41 144.10,52.48 155.96,50.14 156.63,49.36 182.22,46.47 182.44,43.55 224.02,40.91 252.50,38.38 252.94,39.67 316.75,37.83 358.03,36.20 409.67,41.33 429.27,39.51 435.01,37.34 454.21,36.99 470.21,42.11 491.86,40.00 495.05,39.11 501.98,37.15 514.37,37.77 517.43,35.48 518.41,32.52 524.65,29.56 537.76,27.99 560.23,25.00 565.90,30.24 566.03,35.41 566.03,40.49 566.16,45.58 566.18,50.57 566.29,51.39 581.48,49.82 588.40,54.81 612.63,51.96 636.37,49.56 653.01,48.13 678.62,47.45 681.27,48.13 747.29,45.24 747.38,44.17 747.47,41.91 781.85,38.99 784.23,39.04 793.26,36.33 831.56,34.21 837.94,34.00 857.15,39.15 879.43,39.77 900.91,37.34 1048.03,35.80 1055.50,34.13 1057.98,31.16 1061.79,36.34 1083.47,34.72 1100.53,39.86 1100.58,37.84 1100.68,42.95 1138.84,41.72 1150.74,43.53 1170.00,46.22"/>
<text x="620.0" y="588" text-anchor="middle" font-family="sans-serif" font-size="12" fill="#333">UTC time</text>
<text x="15" y="287.5" transform="rotate(-90 15,287.5)" text-anchor="middle" font-family="sans-serif" font-size="12" fill="#333">Capital</text>
</svg>