<svg xmlns="http://www.w3.org/2000/svg" width="1200" height="600" viewBox="0 0 1200 600">
<desc>Equity curve with drawdown fill</desc>
<text x="600.0" y="18.0" text-anchor="middle" font-family="sans-serif" font-size="14">Portfolio 2006</text>
<rect x="70" y="25" width="1100" height="525" fill="white" stroke="#ccc" />
<line x1="70" y1="550.00" x2="1170" y2="550.00" stroke="#eee"/>
<text x="62" y="554.0" text-anchor="end" font-family="sans-serif" font-size="11" fill="#555">0.00</text>
<line x1="70" y1="445.00" x2="1170" y2="445.00" stroke="#eee"/>
<text x="62" y="449.0" text-anchor="end" font-family="sans-serif" font-size="11" fill="#555">21005</text>
<line x1="70" y1="340.00" x2="1170" y2="340.00" stroke="#eee"/>
<text x="62" y="344.0" text-anchor="end" font-family="sans-serif" font-size="11" fill="#555">42010</text>
<line x1="70" y1="235.00" x2="1170" y2="235.00" stroke="#eee"/>
<text x="62" y="239.0" text-anchor="end" font-family="sans-serif" font-size="11" fill="#555">63015</text>
<line x1="70" y1="130.00" x2="1170" y2="130.00" stroke="#eee"/>
<text x="62" y="134.0" text-anchor="end" font-family="sans-serif" font-size="11" fill="#555">84020</text>
<line x1="70" y1="25.00" x2="1170" y2="25.00" stroke="#eee"/>
<text x="62" y="29.0" text-anchor="end" font-family="sans-serif" font-size="11" fill="#555">105024</text>
<line x1="158.36" y1="25" x2="158.36" y2="550" stroke="#f2f2f2"/>
<text x="158.36" y="566" text-anchor="middle" font-family="sans-serif" font-size="11" fill="#555">Feb</text>
<line x1="245.59" y1="25" x2="245.59" y2="550" stroke="#f2f2f2"/>
<text x="245.59" y="566" text-anchor="middle" font-family="sans-serif" font-size="11" fill="#555">Mar</text>
<line x1="342.17" y1="25" x2="342.17" y2="550" stroke="#f2f2f2"/>
<text x="342.17" y="566" text-anchor="middle" font-family="sans-serif" font-size="11" fill="#555">Apr</text>
<line x1="435.63" y1="25" x2="435.63" y2="550" stroke="#f2f2f2"/>
<text x="435.63" y="566" text-anchor="middle" font-family="sans-serif" font-size="11" fill="#555">May</text>
<line x1="532.21" y1="25" x2="532.21" y2="550" stroke="#f2f2f2"/>
<text x="532.21" y="566" text-anchor="middle" font-family="sans-serif" font-size="11" fill="#555">Jun</text>
<line x1="625.67" y1="25" x2="625.67" y2="550" stroke="#f2f2f2"/>
<text x="625.67" y="566" text-anchor="middle" font-family="sans-serif" font-size="11" fill="#555">Jul</text>
<line x1="722.24" y1="25" x2="722.24" y2="550" stroke="#f2f2f2"/>
<text x="722.24" y="566" text-anchor="middle" font-family="sans-serif" font-size="11" fill="#555">Aug</text>
<line x1="818.82" y1="25" x2="818.82" y2="550" stroke="#f2f2f2"/>
<text x="818.82" y="566" text-anchor="middle" font-family="sans-serif" font-size="11" fill="#555">Sep</text>
<line x1="912.28" y1="25" x2="912.28" y2="550" stroke="#f2f2f2"/>
<text x="912.28" y="566" text-anchor="middle" font-family="sans-serif" font-size="11" fill="#555">Oct</text>
<line x1="1008.86" y1="25" x2="1008.86" y2="550" stroke="#f2f2f2"/>
<text x="1008.86" y="566" text-anchor="middle" font-family="sans-serif" font-size="11" fill="#555">Nov</text>
<line x1="1102.32" y1="25" x2="1102.32" y2="550" stroke="#f2f2f2"/>
<text x="1102.32" y="566" text-anchor="middle" font-family="sans-serif" font-size="11" fill="#555">Dec</text>
<line x1="70" y1="550" x2="1170" y2="550" stroke="#888"/>
<line x1="70" y1="25" x2="70" y2="550" stroke="#888"/>
<path d="M 70.00 50.12 L 73.50 50.12 L 79.16 50.12 L 87.93 50.12 L 97.88 50.12 L 98.06 50.12 L 98.11 50.12 L 101.55 50.12 L 113.18 50.12 L 115.92 50.12 L 130.41 50.12 L 130.45 50.12 L 130.45 51.67 L 130.41 55.32 L 115.92 59.59 L 113.18 63.03 L 101.55 65.96 L 98.11 65.64 L 98.06 67.51 L 97.88 65.95 L 87.93 58.58 L 79.16 61.93 L 73.50 54.50 L 70.00 57.61 Z" fill="#d0d0d0" fill-opacity="0.5" stroke="none"/>
<path d="M 144.89 47.62 L 166.36 47.62 L 166.50 47.62 L 188.46 47.62 L 188.55 47.62 L 210.28 47.62 L 247.82 47.62 L 250.77 47.62 L 250.77 49.25 L 247.82 49.41 L 210.28 53.31 L 188.55 54.16 L 188.46 56.04 L 166.50 48.53 L 166.36 50.88 L 144.89 55.14 Z" fill="#d0d0d0" fill-opacity="0.5" stroke="none"/>
<path d="M 294.21 46.13 L 316.14 46.13 L 319.28 46.13 L 330.84 46.13 L 332.37 46.13 L 337.94 46.13 L 350.60 46.13 L 353.27 46.13 L 359.53 46.13 L 359.72 46.13 L 359.75 46.13 L 362.96 46.13 L 378.29 46.13 L 393.83 46.13 L 394.11 46.13 L 400.52 46.13 L 405.67 46.13 L 425.12 46.13 L 425.29 46.13 L 425.29 47.50 L 425.12 46.37 L 405.67 50.72 L 400.52 54.77 L 394.11 58.24 L 393.83 61.08 L 378.29 58.87 L 362.96 58.68 L 359.75 56.73 L 359.72 59.91 L 359.53 57.42 L 353.27 61.68 L 350.60 54.24 L 337.94 54.60 L 332.37 53.58 L 330.84 50.90 L 319.28 52.14 L 316.14 53.87 L 294.21 46.32 Z" fill="#d0d0d0" fill-opacity="0.5" stroke="none"/>
<path d="M 447.09 37.31 L 447.09 40.74 Z" fill="#d0d0d0" fill-opacity="0.5" stroke="none"/>
<path d="M 462.62 36.31 L 462.62 37.20 Z" fill="#d0d0d0" fill-opacity="0.5" stroke="none"/>
<path d="M 480.47 25.00 L 484.16 25.00 L 487.48 25.00 L 487.60 25.00 L 487.64 25.00 L 487.72 25.00 L 490.53 25.00 L 492.86 25.00 L 503.27 25.00 L 507.27 25.00 L 508.44 25.00 L 509.31 25.00 L 509.36 25.00 L 509.54 25.00 L 515.44 25.00 L 526.54 25.00 L 528.03 25.00 L 534.44 25.00 L 537.07 25.00 L 537.27 25.00 L 555.77 25.00 L 555.83 25.00 L 555.93 25.00 L 558.92 25.00 L 574.70 25.00 L 588.68 25.00 L 602.50 25.00 L 611.27 25.00 L 621.95 25.00 L 622.13 25.00 L 624.36 25.00 L 646.11 25.00 L 676.87 25.00 L 680.69 25.00 L 683.71 25.00 L 683.82 25.00 L 702.71 25.00 L 706.16 25.00 L 711.72 25.00 L 724.63 25.00 L 730.31 25.00 L 733.34 25.00 L 733.45 25.00 L 733.63 25.00 L 746.55 25.00 L 747.22 25.00 L 752.31 25.00 L 755.22 25.00 L 767.84 25.00 L 770.92 25.00 L 795.22 25.00 L 817.77 25.00 L 820.64 25.00 L 821.09 25.00 L 839.13 25.00 L 883.44 25.00 L 929.62 25.00 L 995.22 25.00 L 1007.88 25.00 L 1016.88 25.00 L 1035.99 25.00 L 1060.75 25.00 L 1081.61 25.00 L 1081.75 25.00 L 1081.87 25.00 L 1101.34 25.00 L 1104.26 25.00 L 1126.08 25.00 L 1126.31 25.00 L 1126.43 25.00 L 1126.63 25.00 L 1141.55 25.00 L 1147.68 25.00 L 1147.97 25.00 L 1159.65 25.00 L 1170.00 25.00 L 1170.00 72.88 L 1159.65 74.91 L 1147.97 75.14 L 1147.68 77.06 L 1141.55 81.16 L 1126.63 81.94 L 1126.43 76.48 L 1126.31 76.75 L 1126.08 69.54 L 1104.26 62.20 L 1101.34 66.44 L 1081.87 69.77 L 1081.75 62.44 L 1081.61 61.18 L 1060.75 65.42 L 1035.99 66.08 L 1016.88 68.39 L 1007.88 61.05 L 995.22 56.98 L 929.62 56.51 L 883.44 60.79 L 839.13 62.29 L 821.09 64.66 L 820.64 66.71 L 817.77 70.23 L 795.22 72.47 L 770.92 74.97 L 767.84 70.71 L 755.22 67.62 L 752.31 69.30 L 747.22 61.97 L 746.55 62.44 L 733.63 66.66 L 733.45 63.83 L 733.34 64.49 L 730.31 68.70 L 724.63 70.34 L 711.72 67.65 L 706.16 64.44 L 702.71 64.35 L 683.82 62.25 L 683.71 62.85 L 680.69 55.42 L 676.87 59.32 L 646.11 51.84 L 624.36 56.30 L 622.13 59.41 L 621.95 55.56 L 611.27 48.03 L 602.50 47.76 L 588.68 50.65 L 574.70 52.18 L 558.92 50.96 L 555.93 54.14 L 555.83 46.58 L 555.77 49.78 L 537.27 42.15 L 537.07 42.96 L 534.44 47.51 L 528.03 42.79 L 526.54 43.86 L 515.44 46.84 L 509.54 39.18 L 509.36 39.94 L 509.31 42.72 L 508.44 35.01 L 507.27 38.69 L 503.27 37.61 L 492.86 36.54 L 490.53 39.62 L 487.72 42.92 L 487.64 44.79 L 487.60 37.09 L 487.48 36.99 L 484.16 29.18 L 480.47 32.87 Z" fill="#d0d0d0" fill-opacity="0.5" stroke="none"/>
<polyline fill="none" stroke="#111" stroke-width="1.2" points="70.00,57.61 73.50,54.50 79.16,61.93 87.93,58.58 97.88,65.95 98.06,67.51 98.11,65.64 101.55,65.96 113.18,63.03 115.92,59.59 130.41,55.32 130.45,51.67 144.58,47.62 144.89,55.14 166.36,50.88 166.50,48.53 188.46,56.04 188.55,54.16 210.28,53.31 247.82,49.41 250.77,49.25 275.57,46.54 288.18,46.13 294.21,46.32 316.14,53.87 319.28,52.14 330.84,50.90 332.37,53.58 337.94,54.60 350.60,54.24 353.27,61.68 359.53,57.42 359.72,59.91 359.75,56.73 362.96,58.68 378.29,58.87 393.83,61.08 394.11,58.24 400.52,54.77 405.67,50.72 425.12,46.37 425.29,47.50 425.36,45.68 428.37,41.28 437.51,40.17 440.23,37.31 447.09,40.74 449.84,36.31 462.62,37.20 468.56,33.15 471.31,29.54 471.65,25.00 480.47,32.87 484.16,29.18 487.48,36.99 487.60,37.09 487.64,44.79 487.72,42.92 490.53,39.62 492.86,36.54 503.27,37.61 507.27,38.69 508.44,35.01 509.31,42.72 509.36,39.94 509.54,39.18 515.44,46.84 526.54,43.86 528.03,42.79 534.44,47.51 537.07,42.96 537.27,42.15 555.77,49.78 555.83,46.58 555.93,54.14 558.92,50.96 574.70,52.18 588.68,50.65 602.50,47.76 611.27,48.03 621.95,55.56 622.13,59.41 624.36,56.30 646.11,51.84 676.87,59.32 680.69,55.42 683.71,62.85 683.82,62.25 702.71,64.35 706.16,64.44 711.72,67.65 724.63,70.34 730.31,68.70 733.34,64.49 733.45,63.83 733.63,66.66 746.55,62.44 747.22,61.97 752.31,69.30 755.22,67.62 767.84,70.71 770.92,74.97 795.22,72.47 817.77,70.23 820.64,66.71 821.09,64.66 839.13,62.29 883.44,60.79 929.62,56.51 995.22,56.98 1007.88,61.05 1016.88,68.39 1035.99,66.08 1060.75,65.42 1081.61,61.18 1081.75,62.44 1081.87,69.77 1101.34,66.44 1104.26,62.20 1126.08,69.54 1126.31,76.75 1126.43,76.48 1126.63,81.94 1141.55,81.16 1147.68,77.06 1147.97,75.14 1159.65,74.91 1170.00,72.88"/>
<text x="620.0" y="588" text-anchor="middle" font-family="sans-serif" font-size="12" fill="#333">UTC time</text>
<text x="15" y="287.5" transform="rotate(-90 15,287.5)" text-anchor="middle" font-family="sans-serif" font-size="12" fill="#333">Capital</text>
</svg>